<?xml version="1.0" encoding="UTF-8"?>
<svg xmlns="http://www.w3.org/2000/svg" width="11.267" height="11.267" viewBox="0 0 11.267 11.267">
  <path id="arrow-up-right-from-square-light" d="M7.394,0a.352.352,0,1,0,0,.7h2.672L4.681,6.089a.352.352,0,0,0,.5.5L10.563,1.2V3.873a.352.352,0,0,0,.7,0V.352A.353.353,0,0,0,10.915,0ZM1.408,1.408A1.41,1.41,0,0,0,0,2.817V9.859a1.41,1.41,0,0,0,1.408,1.408H8.45A1.41,1.41,0,0,0,9.859,9.859V6.69a.352.352,0,0,0-.7,0V9.859a.7.7,0,0,1-.7.7H1.408a.7.7,0,0,1-.7-.7V2.817a.7.7,0,0,1,.7-.7H4.577a.352.352,0,0,0,0-.7Z" fill="#707070"></path>
</svg>
