<svg width="463" height="6" viewBox="0 0 463 6" fill="none" xmlns="http://www.w3.org/2000/svg">
<g opacity="0.9">
<g opacity="0.9">
<path d="M4.86001 4.01002C5.09001 4.10002 6.84001 4.15002 6.17001 4.25002C4.23001 4.25002 2.30001 4.25002 0.360008 4.24002C0.310008 4.11002 1.63001 3.93002 4.86001 4.01002Z" fill="#D6D3D2"/>
<path d="M33.79 1.56999C36.48 1.56999 39.02 1.55999 41.71 1.54999C43.33 1.56999 45.11 1.58999 46.74 1.59999C47.19 1.59999 47.64 1.59999 48.08 1.59999C50.45 1.61999 52.82 1.63999 55.19 1.65999C56.83 1.65999 58.61 1.65999 60.25 1.66999C60.39 1.66999 60.68 1.69999 60.96 1.70999C62.61 1.69999 64.25 1.67999 65.9 1.67999C66.48 1.70999 66.9 1.72999 67.33 1.75999C68.25 1.72999 69.32 1.68999 70.25 1.64999C71.89 1.64999 73.67 1.64999 75.31 1.65999C75.31 1.65999 75.33 1.62999 75.34 1.61999C79.37 1.61999 83.4 1.61999 87.43 1.60999C94.11 1.63999 100.8 1.66999 107.49 1.69999C107.46 1.73999 107.43 1.77999 107.4 1.81999C108.74 1.81999 110.23 1.81999 111.72 1.82999C111.75 1.78999 111.78 1.74999 111.81 1.70999C115.53 1.70999 119.42 1.70999 123.15 1.68999C124.64 1.68999 126.13 1.68999 127.46 1.68999C131.36 1.84999 130.44 1.68999 131.77 1.69999C133.37 1.74999 134.99 1.78999 136.74 1.83999C137.34 1.83999 138.08 1.83999 138.82 1.83999C140.29 1.86999 141.61 1.89999 143.08 1.91999C152.03 1.91999 157.49 1.98999 165.22 2.00999C170.01 1.98999 179.75 1.91999 182.84 2.17999C186.05 2.06999 189.29 2.11999 192.27 2.11999C192.03 2.23999 194.45 2.18999 195.76 2.23999C196.65 2.23999 197.69 2.23999 198.59 2.23999C200.08 2.23999 201.42 2.23999 202.9 2.23999C204.24 2.23999 205.73 2.23999 207.22 2.23999C211.98 2.24999 216.74 2.25999 221.5 2.26999C223.13 2.28999 224.75 2.30999 226.38 2.31999C228.03 2.31999 229.82 2.29999 231.47 2.28999C233.11 2.28999 234.76 2.26999 236.4 2.26999C238.21 2.23999 239.87 2.21999 241.52 2.19999C241.82 2.19999 241.97 2.19999 242.27 2.19999C244.35 2.19999 246.6 2.18999 248.7 2.16999C251.09 2.16999 253.48 2.15999 255.87 2.13999C257.35 2.15999 258.67 2.17999 260.16 2.18999C262.06 2.03999 265.15 2.08999 267.36 2.12999C271.39 2.12999 275.42 2.11999 279.44 2.11999C280.96 2.06999 282.5 2.01999 283.87 1.96999C284.13 2.01999 284.39 2.07999 284.5 2.12999C288.38 2.12999 292.1 2.12999 295.99 2.11999C296.05 2.03999 296.1 1.95999 296.17 1.87999C299.04 1.81999 299.88 1.68999 300.66 1.64999C302.3 1.64999 303.95 1.62999 305.6 1.62999C310.91 1.69999 313.84 1.76999 315.57 1.64999C319.01 1.61999 322.31 1.60999 325.75 1.58999C330.59 1.68999 333.58 1.67999 333.52 1.56999C334.56 1.56999 335.45 1.56999 336.49 1.56999C338.87 1.56999 341.25 1.57999 343.63 1.58999C347.88 1.68999 348.72 1.55999 349.34 1.52999C351.27 1.52999 353.21 1.52999 355 1.53999C357.38 1.53999 359.91 1.54999 362.14 1.55999C366.13 1.59999 365.46 1.49999 368.01 1.48999C369.33 1.51999 370.8 1.54999 372.26 1.57999C372.71 1.57999 373.15 1.57999 373.6 1.57999C375.06 1.42999 377.84 1.47999 379.46 1.50999C379.91 1.50999 380.36 1.50999 380.8 1.50999C381.8 1.35999 384 1.40999 385.17 1.43999C385.65 1.38999 386.14 1.33999 386.78 1.28999C388.69 1.32999 390.46 1.35999 392.37 1.38999C393.86 1.38999 395.2 1.38999 396.68 1.38999C397.16 1.33999 397.65 1.27999 398.14 1.23999C399.61 1.26999 401.08 1.29999 402.4 1.31999C405.07 1.33999 407.58 1.36999 410.26 1.37999C410.49 1.46999 410.56 1.56999 410.79 1.65999C409.57 1.68999 408.36 1.72999 407.13 1.76999C406.83 1.76999 406.68 1.76999 406.39 1.76999C406 1.68999 405.61 1.60999 405.08 1.52999C403.89 1.52999 402.85 1.52999 400.91 1.52999C398.91 1.61999 396.56 1.56999 395.02 1.63999C393.7 1.59999 392.24 1.57999 390.77 1.54999C389.12 1.55999 387.48 1.56999 385.83 1.57999C384.92 1.59999 383.86 1.62999 382.95 1.64999C381.46 1.84999 379.42 1.78999 377.77 1.79999C377.74 1.82999 377.71 1.86999 377.68 1.91999C377.23 1.91999 376.79 1.91999 376.19 1.91999C374.11 1.90999 372.04 1.88999 369.82 1.85999C366.87 1.81999 365.72 1.96999 364.76 2.04999C363.26 2.05999 361.76 2.07999 360.41 2.07999C359.52 2.06999 358.5 2.04999 357.62 2.02999C357 2.05999 356.53 2.08999 356.07 2.10999C351.78 2.06999 347.48 2.03999 343.34 1.99999C342.25 2.05999 341.32 2.09999 340.25 2.14999C338.48 2.11999 336.57 2.08999 334.65 2.05999C332.71 2.05999 330.91 2.07999 328.96 2.08999C328.22 2.08999 327.47 2.08999 326.73 2.08999C326.71 2.10999 326.69 2.13999 326.67 2.15999C324.59 2.14999 322.37 2.11999 320.31 2.09999C320.32 2.07999 320.35 2.04999 320.36 2.02999C316.23 1.96999 316.29 2.09999 313.88 2.12999C312.23 2.13999 310.43 2.15999 308.79 2.15999C309.97 2.36999 313.51 2.41999 315.1 2.28999C315.69 2.28999 316.14 2.28999 316.59 2.28999C318.03 2.34999 319.34 2.39999 320.78 2.46999C315.5 2.74999 311.35 2.51999 307.09 2.63999C302.49 2.60999 301.63 2.97999 296.86 2.76999C292.9 2.67999 290.35 2.69999 289.66 2.82999C285.48 2.82999 281.16 2.83999 276.83 2.83999C275.89 2.69999 274.31 2.81999 272.55 2.78999C264.44 3.07999 257 2.64999 248.89 2.93999C245.4 2.81999 243.54 2.91999 240.23 2.95999C237.86 2.94999 235.49 2.91999 233.12 2.89999C229.21 3.14999 225.49 2.72999 220.35 2.83999C218.13 2.81999 216.06 2.79999 213.98 2.77999C210.99 2.79999 206.55 2.94999 206.07 2.79999C203.38 2.80999 202.8 2.58999 199.02 2.65999C194.92 2.75999 189.34 2.65999 186.7 2.78999C181.74 2.63999 172.16 2.88999 166.81 2.66999C162.53 2.80999 155.32 2.68999 149.64 2.70999C148.45 2.70999 147.26 2.70999 146.07 2.70999C146.29 2.61999 144.34 2.62999 143.3 2.62999C142.26 2.62999 140.95 2.58999 140.3 2.65999C140.4 2.72999 138.34 2.67999 136.23 2.52999C136.23 2.52999 136.25 2.50999 136.26 2.48999C137.49 2.43999 138.57 2.39999 139.95 2.33999C138.1 2.21999 136.61 2.21999 135.04 2.12999C134.71 2.16999 134.53 2.20999 134.21 2.24999C132.99 2.27999 131.77 2.31999 130.54 2.35999C129.69 2.30999 128.69 2.24999 127.83 2.19999C124.18 2.09999 125.93 2.34999 123.37 2.38999C121.33 2.31999 119.15 2.24999 117.12 2.17999C112.32 2.22999 108.58 2.03999 104.33 2.14999C103.78 2.07999 103.38 2.00999 102.99 1.94999C101.5 1.94999 100.15 1.96999 98.64 1.97999C96.27 1.95999 93.91 1.93999 91.53 1.91999C90.1 2.03999 85.9 2.07999 85.88 1.90999C83.5 1.90999 81.12 1.89999 78.74 1.88999C77.2 1.94999 75.82 2.01999 74.28 2.07999C75.21 2.22999 72.02 2.31999 69.82 2.26999C69.41 2.21999 69 2.15999 68.59 2.10999C67.53 2.12999 66.62 2.15999 65.56 2.17999C64.7 2.13999 63.68 2.09999 62.82 2.05999C61.92 2.05999 60.89 2.05999 59.99 2.05999C58.5 2.05999 57.16 2.05999 55.68 2.05999C52.08 2.08999 51.31 2.12999 49.94 2.15999C49.9 2.21999 49.86 2.26999 49.82 2.31999C48.73 2.37999 47.81 2.41999 46.87 2.47999C42.98 2.49999 40.22 2.40999 36.82 2.36999C32.12 2.27999 34.05 2.07999 33.54 1.95999C32.35 1.95999 31.16 1.95999 29.97 1.95999C29.44 1.87999 28.75 1.79999 28.07 1.70999C27.74 1.54999 31.02 1.54999 33.84 1.56999H33.79Z" fill="#D6D3D2"/>
<path d="M52.35 4.69005C55.25 4.60005 56.72 4.63005 57.98 4.74005C55.53 4.83005 52.18 4.92005 52.35 4.69005Z" fill="#D6D3D2"/>
<path d="M67.32 3.80005C67.95 3.76005 68.72 3.73005 69.49 3.69005C75.1 3.76005 80 3.59005 85.86 3.73005C88.3 3.45005 84.16 3.40005 85.62 3.25005C86.45 3.13005 88.32 3.22005 89.87 3.14005C89.88 3.12005 89.89 3.12005 89.9 3.10005C91.55 2.88005 91.6 2.81005 91.65 2.75005C93.31 2.73005 94.96 2.71005 96.77 2.68005C98.05 2.77005 99.48 2.84005 100.76 2.93005C99.87 3.12005 96.54 2.99005 96.42 3.16005C95.36 3.18005 94.45 3.21005 93.39 3.23005C98.01 3.44005 102.36 3.40005 106.21 3.43005C107.07 3.48005 108.06 3.54005 108.92 3.59005C108.44 3.64005 107.95 3.70005 107.32 3.74005C106.42 3.75005 105.36 3.76005 104.46 3.77005C101.62 3.77005 98.78 3.78005 95.95 3.79005C94.6 3.79005 93.55 3.81005 92.35 3.82005C91.7 3.90005 91.19 3.98005 90.69 4.06005C89.17 4.10005 87.8 4.14005 86.29 4.17005C84.67 4.13005 83.06 4.10005 81.44 4.08005C79.08 4.04005 77.53 4.12005 75.58 4.15005C75.13 4.15005 74.69 4.15005 74.24 4.15005C71.89 4.11005 69.37 4.08005 67.16 4.05005C67.22 3.97005 67.28 3.89005 67.34 3.81005L67.32 3.80005Z" fill="#E4E3E2"/>
<path d="M26.94 4.19003C30.24 4.16003 33.55 4.12003 37 4.09003C39.7 4.07003 42.25 4.05003 44.94 4.03003C45.39 4.03003 45.83 4.03003 46.28 4.03003C46.97 4.11003 47.65 4.19003 48.34 4.28003C51.59 4.32003 50.11 4.10003 52.09 4.05003C54.63 4.04003 57.31 4.04003 60.01 4.03003C61.19 4.05003 62.22 4.06003 63.55 4.08003C64.09 4.16003 64.77 4.24003 65.46 4.33003C68.87 4.35003 72.89 4.36003 74.24 4.15003C74.69 4.15003 75.13 4.15003 75.58 4.15003C77.54 4.12003 79.09 4.04003 81.44 4.08003C83.06 4.11003 84.67 4.14003 86.29 4.17003C87.81 4.13003 89.18 4.09003 90.69 4.06003C92.33 4.06003 93.96 4.06003 95.75 4.07003C96.84 4.01003 96.95 3.86003 95.96 3.80003C98.8 3.79003 101.63 3.78003 104.47 3.78003C104.37 3.91003 104.27 4.05003 104.18 4.18003C109.48 4.47003 116.26 4.17003 123.44 4.34003C131.08 4.49003 137.65 4.27003 144.06 4.47003C132.79 4.59003 121.56 4.47003 113.26 4.60003C113.27 4.58003 113.28 4.57003 113.29 4.56003C108.19 4.60003 102.79 4.45003 96.8 4.48003C93.48 4.53003 90.59 4.62003 89.69 4.42003C88.5 4.42003 87.31 4.42003 86.12 4.42003C85.66 4.44003 85.2 4.45003 84.75 4.46003C82.97 4.45003 81.35 4.43003 79.72 4.41003C79.67 4.48003 79.62 4.54003 79.57 4.61003C75.5 4.68003 74.27 4.73003 73.03 4.79003C67.97 4.78003 63.06 4.77003 58 4.76003C56.74 4.66003 55.27 4.62003 52.37 4.71003C42.3 4.62003 32.38 4.53003 22.46 4.44003C24.01 4.36003 25.41 4.28003 26.95 4.21003L26.94 4.19003Z" fill="#B0ABA9"/>
<path d="M73.01 4.76995C74.25 4.70995 75.49 4.64995 79.55 4.58995C79.6 4.51995 79.65 4.46995 79.7 4.38995C81.33 4.40995 82.95 4.42995 84.73 4.43995C85.18 4.43995 85.64 4.41995 86.1 4.39995C87.29 4.39995 88.48 4.39995 89.67 4.39995C90.57 4.58995 93.46 4.50995 96.78 4.45995C102.76 4.42995 108.17 4.57995 113.27 4.53995C113.26 4.55995 113.25 4.55995 113.24 4.57995C121.53 4.44995 132.77 4.57995 144.04 4.44995C137.63 4.24995 131.06 4.46995 123.42 4.31995C116.25 4.14995 109.47 4.44995 104.16 4.15995C104.26 4.02995 104.36 3.88995 104.45 3.75995C105.35 3.74995 106.4 3.73995 107.31 3.72995C108.47 3.76995 109.63 3.81995 110.8 3.84995C113.02 3.86995 111.63 3.73995 113.15 3.69995C115.08 3.69995 116.87 3.69995 118.8 3.70995C122.82 3.70995 126.84 3.72995 131.01 3.73995C133.14 3.67995 136.23 3.72995 138.93 3.71995C140.24 3.75995 141.72 3.77995 143.03 3.80995C146.67 3.92995 148.29 3.95995 149.51 3.90995C150.82 3.94995 152.29 3.98995 153.59 4.03995C154.65 4.01995 155.56 3.98995 156.63 3.95995C158.24 3.99995 159.86 4.02995 161.48 4.04995C163.44 4.00995 165.41 3.97995 167.37 3.94995C169.15 3.95995 171.07 3.97995 173 3.99995C174.19 3.99995 175.38 3.99995 176.57 3.99995C178.48 4.24995 179.34 3.88995 183.71 4.01995C183.88 3.99995 184.19 3.96995 184.51 3.94995C187.3 3.80995 190.94 3.91995 193.05 3.88995C194.51 3.92995 195.82 3.97995 197.27 4.01995C198.75 4.02995 200.08 4.04995 201.56 4.05995C203.66 4.03995 205.91 4.01995 208.01 3.99995C208.3 3.99995 208.46 3.99995 208.75 3.99995C211.42 4.00995 213.94 4.03995 216.61 4.05995C221.36 4.08995 221.74 3.96995 224.47 3.90995C228.58 3.99995 229.4 3.89995 231.04 3.88995C235 3.96995 236.19 3.97995 237.38 3.97995C240.65 3.97995 244.07 3.99995 247.35 3.99995C248.27 3.95995 249.07 3.88995 250.27 3.88995C250.86 3.88995 251.31 3.88995 251.76 3.88995C253.09 3.89995 254.57 3.91995 256.05 3.93995C257.81 3.97995 261.15 4.07995 263.76 3.98995C266.72 4.00995 269.54 4.03995 272.36 4.04995C275.53 3.99995 277.77 3.99995 281.07 3.94995C283.18 3.92995 285.27 3.90995 287.53 3.87995C294.33 3.95995 295.92 3.81995 300.38 3.82995C302.79 3.78995 305.2 3.75995 307.62 3.71995C309.87 3.69995 311.97 3.67995 314.07 3.65995C314.93 3.69995 316.76 3.63995 318.39 3.65995C326.94 3.78995 331.45 3.72995 335.57 3.61995C337.97 3.59995 340.51 3.57995 342.77 3.54995C344.26 3.54995 345.75 3.54995 347.08 3.55995C350.88 3.66995 351.37 3.59995 352.88 3.56995C352.9 3.54995 352.92 3.51995 352.94 3.49995C355.03 3.49995 357.11 3.49995 359.34 3.50995C359.5 3.48995 359.81 3.48995 360.11 3.46995C361.44 3.48995 362.92 3.49995 364.25 3.51995C364.86 3.49995 365.31 3.49995 365.77 3.47995C367.41 3.47995 369.21 3.45995 370.86 3.44995C371.74 3.46995 372.78 3.48995 373.66 3.49995C375.01 3.49995 376.5 3.47995 378 3.46995C380.83 3.46995 383.65 3.47995 386.48 3.48995C382.69 3.57995 380.32 3.75995 377.91 3.59995C376.42 3.59995 374.92 3.61995 373.57 3.61995C370.68 3.69995 367.7 3.68995 364.91 3.63995C364.42 3.70995 363.92 3.76995 363.42 3.83995C362.38 3.83995 361.49 3.83995 360.45 3.83995C359.86 4.02995 357.81 3.97995 356.16 3.98995C355.54 4.02995 355.06 4.06995 354.58 4.10995C352.92 4.12995 351.27 4.14995 349.47 4.16995C348.17 4.11995 347.38 3.96995 345.42 3.99995C344.84 4.17995 346.35 4.55995 340.72 4.50995C335.1 4.45995 329.06 4.55995 322.87 4.46995C321.02 4.55995 319.75 4.65995 316.35 4.60995C316.57 4.50995 314.63 4.51995 313.44 4.51995C310.01 4.51995 309.33 4.63995 305.64 4.58995C305.06 4.56995 304.62 4.55995 304.18 4.53995C301.86 4.65995 302.12 4.70995 300.47 4.72995C303.81 4.84995 304.31 4.76995 305.5 4.77995C305.94 4.77995 306.4 4.77995 306.84 4.77995C308.31 4.80995 309.63 4.83995 311.1 4.85995C309.61 4.85995 308.27 4.85995 306.78 4.85995C306.26 4.95995 305.74 5.04995 305.23 5.13995C304.49 5.13995 303.74 5.13995 303 5.13995C298.9 5.03995 296.87 4.96995 294.7 4.87995C294.11 4.87995 293.66 4.87995 293.21 4.87995C291.68 4.92995 290.3 4.97995 288.78 5.02995C288.34 5.02995 287.91 4.99995 287.46 4.98995C286.25 5.00995 285.04 5.02995 283.84 5.05995C282.35 5.05995 280.86 5.05995 279.52 5.05995C279.21 5.07995 279.05 5.08995 278.74 5.09995C277.26 5.09995 275.92 5.09995 274.43 5.08995C273.26 5.05995 272.09 5.02995 270.92 4.99995C270.98 4.92995 271.04 4.83995 271.09 4.76995C270.67 4.73995 270.24 4.70995 269.82 4.67995C269.52 4.67995 269.22 4.67995 269.07 4.67995C266.63 4.75995 264.19 4.82995 261.76 4.89995C261.89 4.92995 262.17 4.94995 262.45 4.97995C259.48 4.95995 256.66 4.93995 253.84 4.92995C252.33 4.95995 250.96 4.99995 249.44 5.03995C246.93 5.00995 244.27 4.97995 241.62 4.93995C236.18 5.03995 232.28 5.07995 229.54 4.94995C226.87 4.93995 224.35 4.90995 221.68 4.88995C220.94 4.88995 220.19 4.88995 219.6 4.88995C218.54 4.89995 217.64 4.91995 216.59 4.91995C215.42 4.88995 214.4 4.86995 213.08 4.83995C211.99 4.89995 210.76 4.94995 210.11 5.02995C208.04 5.00995 205.82 4.98995 203.74 4.96995C196.43 4.96995 188.97 4.98995 181.52 4.98995C179.13 4.99995 177.54 5.12995 175 5.13995C174.56 5.13995 174.11 5.13995 173.51 5.13995C172.2 5.09995 170.75 5.04995 169.44 5.00995C166.02 5.00995 162.74 4.98995 159.47 4.98995C157.23 4.99995 155.13 5.00995 152.89 5.01995C152 5.01995 150.96 5.01995 150.06 5.01995C132.21 4.96995 114.37 4.90995 96.52 4.84995C92.81 4.62995 93.43 4.79995 92.21 4.83995C88.06 4.80995 83.77 4.76995 79.47 4.73995C77.38 4.73995 75.14 4.75995 73.05 4.75995L73.01 4.76995Z" fill="#A39E9B"/>
<path d="M92.35 3.82004C93.55 3.82004 94.6 3.80004 95.95 3.79004C96.94 3.86004 96.84 4.00004 95.74 4.06004C93.96 4.06004 92.32 4.06004 90.68 4.05004C91.18 3.98004 91.69 3.89004 92.34 3.81004L92.35 3.82004Z" fill="#D6D3D2"/>
<path d="M49.9 2.16001C51.27 2.12001 52.04 2.09001 55.64 2.06001C57.13 2.06001 58.46 2.06001 59.95 2.06001C60.84 2.06001 61.88 2.06001 62.78 2.06001C63.09 2.04001 63.26 2.01001 63.59 1.98001C64.28 2.05001 64.98 2.12001 65.53 2.18001C66.59 2.16001 67.5 2.13001 68.56 2.11001C68.97 2.16001 69.37 2.22001 69.79 2.27001C71.99 2.32001 75.18 2.23001 74.25 2.08001C75.79 2.02001 77.18 1.95001 78.71 1.89001C81.09 1.89001 83.47 1.90001 85.85 1.91001C85.87 2.08001 90.07 2.04001 91.5 1.92001C93.87 1.93001 96.24 1.96001 98.61 1.98001C100.12 1.97001 101.47 1.95001 102.96 1.95001C103.35 2.02001 103.75 2.09001 104.3 2.15001C108.56 2.04001 112.29 2.23001 117.09 2.18001C119.13 2.25001 121.31 2.32001 123.34 2.39001C125.9 2.35001 124.15 2.10001 127.8 2.20001C128.66 2.25001 129.66 2.31001 130.51 2.36001C131.74 2.32001 132.96 2.28001 134.18 2.25001C134.51 2.21001 134.68 2.17001 135.01 2.13001C135.46 2.13001 135.92 2.11001 136.53 2.09001C137.66 2.18001 138.64 2.26001 139.92 2.34001C138.53 2.40001 137.44 2.47001 136.2 2.53001C138.32 2.68001 140.37 2.73001 140.27 2.66001C140.92 2.59001 142.23 2.63001 143.27 2.63001C144.31 2.63001 146.26 2.63001 146.04 2.71001C147.23 2.71001 148.42 2.71001 149.61 2.71001C155.28 2.70001 162.5 2.81001 166.78 2.67001C172.13 2.89001 181.71 2.64001 186.67 2.79001C189.31 2.65001 194.89 2.76001 198.99 2.66001C202.77 2.59001 203.35 2.81001 206.04 2.80001C206.53 2.95001 210.96 2.80001 213.95 2.78001C216.03 2.79001 218.1 2.81001 220.32 2.84001C225.46 2.74001 229.18 3.15001 233.09 2.90001C235.47 2.92001 237.83 2.94001 240.2 2.96001C243.51 2.92001 245.38 2.81001 248.86 2.94001C256.97 2.66001 264.41 3.08001 272.52 2.79001C274.29 2.82001 275.86 2.70001 276.8 2.84001C281.13 2.84001 285.45 2.84001 289.63 2.83001C290.32 2.70001 292.87 2.68001 296.83 2.77001C301.6 2.97001 302.47 2.61001 307.06 2.64001C311.32 2.52001 315.47 2.75001 320.75 2.47001C319.3 2.41001 318 2.36001 316.56 2.29001C316.11 2.29001 315.66 2.29001 315.07 2.29001C313.48 2.42001 309.94 2.37001 308.76 2.16001C310.4 2.16001 312.2 2.14001 313.85 2.13001C315.96 2.09001 318.22 2.07001 320.33 2.03001C320.32 2.05001 320.3 2.08001 320.28 2.10001C322.35 2.12001 324.57 2.14001 326.64 2.16001C326.66 2.14001 326.68 2.11001 326.7 2.09001C327.44 2.09001 328.19 2.09001 328.93 2.09001C330.28 2.08001 331.78 2.06001 333.13 2.06001C333.73 2.06001 334.17 2.06001 334.62 2.06001C336.54 2.09001 338.45 2.12001 340.22 2.15001C340.85 2.10001 341.33 2.05001 341.82 2.00001C342.27 2.00001 342.71 2.00001 343.31 2.00001C347.45 2.04001 351.75 2.08001 356.04 2.11001C356.51 2.09001 356.97 2.06001 357.59 2.03001C358.47 2.05001 359.5 2.07001 360.38 2.08001C360.35 2.12001 360.32 2.16001 360.29 2.20001C361.14 2.26001 362.14 2.31001 363 2.37001C362.22 2.42001 361.43 2.47001 360.8 2.52001C356.43 2.59001 351.94 2.81001 347.59 2.85001C346.06 2.70001 343.76 2.79001 339.76 2.75001C339.74 2.78001 339.72 2.81001 339.7 2.83001C335.96 2.85001 332.07 2.86001 328.33 2.89001C325.84 2.83001 326.47 2.99001 325.24 3.04001C324.05 3.04001 323.01 3.04001 321.67 3.04001C318.64 3.11001 314.86 3.18001 312.27 3.26001C295.63 3.18001 282.16 3.26001 266.43 3.35001C262.4 3.35001 262.41 3.14001 256.46 3.33001C254.82 3.33001 253.02 3.35001 251.38 3.35001C245.5 3.24001 241.89 3.29001 239.29 3.16001C235.23 3.21001 236.31 3.36001 234.98 3.35001C233.94 3.35001 233.05 3.35001 232 3.35001C228.04 3.27001 227.07 3.36001 225.57 3.38001C221.62 3.28001 221.09 3.38001 219.91 3.37001C219.62 3.37001 219.47 3.37001 219.17 3.37001C216.35 3.37001 213.52 3.36001 210.54 3.35001C209.94 3.35001 209.2 3.35001 208.46 3.35001C206.41 3.30001 204.21 3.26001 202.14 3.22001C199.31 3.22001 196.32 3.23001 193.49 3.23001C192.3 3.23001 191.11 3.23001 189.92 3.23001C189.92 3.23001 189.94 3.21001 189.95 3.20001C182.58 3.09001 172.39 3.17001 166.5 3.06001C162.7 3.16001 158.15 3.06001 155.01 3.08001C154.08 2.93001 151.33 3.02001 149.45 2.94001C147.97 2.93001 146.64 2.91001 145.16 2.90001C140.42 2.86001 134.1 2.94001 130.97 2.74001C128.55 2.79001 126.13 2.84001 123.71 2.88001C123.28 2.85001 122.87 2.80001 122.31 2.76001C120.23 2.76001 119.48 2.76001 118.74 2.76001C118.63 2.71001 119.43 2.63001 118.26 2.60001C114.67 2.60001 113.43 2.68001 110.94 2.82001C109.48 2.78001 108.01 2.75001 106.69 2.73001C105.48 2.74001 104.29 2.75001 103.09 2.76001C102.31 2.81001 101.52 2.86001 100.74 2.91001C99.46 2.82001 98.03 2.75001 96.75 2.66001C94.94 2.69001 93.29 2.71001 91.63 2.73001C89.99 2.73001 88.19 2.75001 86.54 2.76001C86.09 2.76001 85.65 2.76001 85.2 2.76001C83.26 2.76001 81.33 2.76001 79.39 2.75001C78.53 2.71001 77.52 2.66001 76.66 2.62001C73.08 2.62001 69.41 2.75001 65.95 2.60001C62.68 2.58001 59.27 2.56001 56.01 2.54001C53.49 2.53001 52.1 2.38001 49.76 2.33001C49.8 2.28001 49.83 2.23001 49.88 2.17001L49.9 2.16001Z" fill="#C7C4C2"/>
<path d="M96.42 3.15003C97.61 3.16003 98.63 3.18003 99.96 3.20003C102.31 3.26003 102.7 3.12003 103.66 3.04003C104.99 3.06003 106.46 3.08003 107.8 3.09003C108.88 3.04003 109.81 2.99003 110.89 2.94003C110.92 2.90003 110.95 2.86003 110.98 2.82003C113.47 2.68003 114.71 2.60003 118.3 2.60003C119.47 2.63003 118.67 2.71003 118.78 2.76003C119.52 2.76003 120.27 2.76003 122.35 2.76003C122.91 2.80003 123.33 2.85003 123.75 2.88003C126.17 2.84003 128.59 2.79003 131.01 2.74003C134.14 2.94003 140.46 2.85003 145.2 2.90003C146.68 2.91003 148.01 2.93003 149.49 2.94003C151.37 3.02003 154.12 2.93003 155.05 3.08003C158.19 3.06003 162.74 3.16003 166.54 3.06003C172.43 3.17003 182.62 3.09003 189.99 3.20003C189.99 3.20003 189.97 3.23003 189.96 3.23003C191.15 3.23003 192.34 3.23003 193.53 3.23003C196.36 3.23003 199.35 3.22003 202.18 3.22003C204.24 3.26003 206.44 3.30003 208.5 3.35003C209.24 3.35003 209.99 3.35003 210.58 3.35003C213.56 3.35003 216.38 3.36003 219.21 3.37003C219.51 3.37003 219.66 3.37003 219.95 3.37003C221.13 3.39003 221.66 3.28003 225.61 3.38003C227.11 3.37003 228.08 3.27003 232.04 3.35003C233.08 3.35003 233.97 3.35003 235.02 3.35003C236.35 3.36003 235.27 3.21003 239.33 3.16003C241.92 3.28003 245.53 3.24003 251.42 3.35003C253.06 3.35003 254.86 3.33003 256.5 3.33003C262.45 3.14003 262.44 3.36003 266.47 3.35003C282.19 3.25003 295.67 3.18003 312.31 3.26003C314.9 3.18003 318.68 3.11003 321.71 3.04003C323.05 3.04003 324.09 3.04003 325.28 3.04003C326.51 2.99003 325.88 2.83003 328.37 2.89003C332.11 2.87003 336 2.85003 339.74 2.83003C339.76 2.81003 339.78 2.78003 339.8 2.75003C343.8 2.79003 346.1 2.70003 347.63 2.85003C351.98 2.81003 356.46 2.60003 360.84 2.52003C361.47 2.47003 362.26 2.42003 363.04 2.37003C362.19 2.31003 361.18 2.26003 360.33 2.20003C360.35 2.17003 360.39 2.13003 360.42 2.08003C361.76 2.08003 363.27 2.06003 364.77 2.05003C365.73 1.97003 366.87 1.82003 369.83 1.86003C372.05 1.88003 374.12 1.90003 376.2 1.92003C376.79 1.92003 377.24 1.92003 377.69 1.92003C378.87 1.94003 380.05 1.95003 381.23 1.97003C385.75 1.91003 389.41 1.80003 394.92 1.80003C398.8 1.80003 402.68 1.80003 406.41 1.78003C406.71 1.78003 406.86 1.78003 407.15 1.78003C407.12 1.82003 407.09 1.86003 407.06 1.90003C405.55 1.93003 404.19 1.95003 402.68 1.97003C402.65 2.01003 400.4 2.03003 401.08 2.12003C406.47 2.09003 407.3 2.38003 411.68 2.30003C412.73 2.30003 413.63 2.28003 414.68 2.27003C417.01 2.34003 419.34 2.41003 421.67 2.49003C418.53 2.51003 415.38 2.53003 412.24 2.54003C405.8 2.57003 398.18 2.60003 392.33 2.45003C388.64 2.41003 388 2.66003 385.04 2.63003C380.78 2.74003 376.52 2.86003 371.85 2.92003C371.21 2.99003 370.41 3.05003 369.62 3.11003C367.98 3.11003 366.33 3.13003 364.53 3.14003C364.38 3.14003 364.08 3.14003 363.93 3.14003C362.04 3.07003 360.16 3.00003 358.27 2.93003C357.46 3.02003 356.8 3.11003 355.98 3.20003C357.29 3.24003 358.75 3.29003 360.2 3.33003C360.18 3.36003 360.15 3.40003 360.11 3.45003C359.8 3.47003 359.5 3.47003 359.34 3.49003C357.11 3.49003 355.03 3.49003 352.94 3.48003C351.32 3.46003 349.54 3.45003 347.91 3.43003C347.73 3.47003 347.41 3.51003 347.08 3.54003C345.74 3.54003 344.26 3.54003 342.77 3.53003C340.51 3.56003 337.96 3.58003 335.57 3.60003C331.45 3.72003 326.95 3.77003 318.39 3.64003C316.77 3.61003 314.94 3.67003 314.07 3.64003C311.97 3.66003 309.87 3.68003 307.62 3.70003C305.25 3.69003 302.88 3.66003 300.51 3.64003C296.17 3.67003 291.97 3.70003 287.62 3.74003C286.44 3.72003 285.26 3.71003 284.08 3.69003C282.18 3.64003 281.2 3.75003 279.7 3.76003C274.49 3.76003 269.26 3.76003 263.9 3.76003C259.86 3.78003 255.82 3.80003 251.78 3.82003C251.77 3.84003 251.76 3.84003 251.75 3.86003C251.3 3.86003 250.86 3.86003 250.26 3.86003C248.94 3.83003 247.47 3.80003 246 3.77003C243.16 3.78003 239.93 3.72003 237.49 3.79003C237.06 3.76003 236.64 3.74003 236.06 3.70003C234.39 3.74003 232.73 3.78003 231.06 3.81003C229.88 3.79003 228.7 3.78003 227.52 3.76003C226.45 3.80003 225.79 3.88003 224.45 3.87003C223.28 3.84003 222.26 3.82003 220.94 3.79003C219.61 3.77003 218.54 3.80003 217.34 3.82003C215.11 3.80003 212.6 3.78003 210.22 3.76003C208.89 3.76003 207.4 3.76003 206.06 3.76003C206.04 3.79003 206.02 3.81003 206 3.83003C204.51 3.84003 203 3.86003 201.66 3.86003C201.66 3.86003 201.68 3.84003 201.69 3.82003C200.19 3.83003 198.84 3.85003 197.34 3.85003C195.86 3.85003 194.51 3.85003 193.03 3.85003C190.92 3.88003 187.28 3.77003 184.49 3.91003C182.88 3.86003 181.13 3.82003 179.52 3.77003C177.68 3.84003 174.91 3.76003 173.06 3.84003C172.21 3.79003 171.21 3.73003 170.35 3.68003C169.28 3.72003 168.36 3.75003 167.43 3.79003C165.2 3.78003 163.13 3.76003 160.91 3.73003C160.9 3.75003 160.89 3.76003 160.88 3.77003C159.54 3.77003 158.05 3.77003 156.71 3.77003C154.33 3.77003 151.8 3.76003 149.57 3.75003C149.59 3.72003 149.61 3.70003 149.63 3.67003C153.77 3.51003 157.04 3.52003 161.06 3.53003C161.08 3.51003 161.1 3.48003 161.12 3.46003C154.81 3.33003 149.36 3.43003 146.92 3.30003C141.15 3.25003 131.81 3.17003 125.46 3.30003C124.6 3.25003 123.61 3.19003 122.75 3.14003C121.99 3.15003 121.39 3.16003 120.63 3.18003C119.16 3.16003 117.82 3.15003 116.35 3.13003C116.31 3.18003 116.27 3.24003 116.23 3.29003C114.53 3.38003 112.67 3.47003 110.96 3.56003C111.68 3.60003 112.39 3.64003 113.11 3.68003C111.59 3.72003 112.98 3.85003 110.76 3.83003C109.59 3.79003 108.43 3.75003 107.27 3.71003C107.9 3.66003 108.39 3.60003 108.87 3.56003C108.01 3.51003 107.02 3.45003 106.16 3.40003C102.3 3.37003 97.95 3.41003 93.34 3.20003C94.4 3.18003 95.31 3.15003 96.37 3.13003L96.42 3.15003Z" fill="#BCB8B6"/>
<path d="M103.12 2.76999C104.32 2.75999 105.52 2.74999 106.72 2.73999C108.04 2.76999 109.51 2.79999 110.97 2.82999C110.95 2.85999 110.91 2.89999 110.88 2.94999C109.8 2.99999 108.87 3.04999 107.79 3.09999C106.46 3.08999 104.98 3.06999 103.65 3.04999C102.63 3.00999 101.77 2.96999 100.76 2.92999C101.54 2.87999 102.33 2.82999 103.11 2.77999L103.12 2.76999Z" fill="#D6D3D2"/>
<path d="M328.74 5.23996C329.64 5.23996 330.69 5.21996 331.6 5.20996C334.42 5.22996 337.38 5.25996 340.2 5.26996C340.17 5.30996 340.14 5.34996 340.11 5.38996C342.19 5.38996 344.43 5.38996 346.51 5.39996C346.93 5.42996 347.36 5.45996 347.93 5.48996C346.33 5.63996 342.16 5.62996 340.02 5.50996C339.69 5.54996 339.52 5.57996 339.19 5.61996C335.62 5.59996 332.07 5.57996 328.5 5.54996C325.83 5.53996 323.31 5.50996 320.64 5.49996C320.55 5.41996 320.31 5.32996 320.07 5.25996C323.06 5.25996 325.89 5.24996 328.73 5.23996H328.74Z" fill="#D6D3D2"/>
<path d="M424.9 1.99C423.97 1.63 435.01 2.02 432.39 1.53C432.14 1.46 432.04 1.4 431.79 1.33C431.82 1.28 431.87 1.22 431.91 1.17C433.4 1.17 434.74 1.17 436.23 1.18C436.72 1.12 437.2 1.07 437.69 1.02C439.66 0.970005 441.63 0.930005 443.61 0.880005C445.55 1.08 445.49 1.17 445.43 1.24C444.21 1.27 443 1.29 441.79 1.32C442.02 1.41 442.25 1.51 442.33 1.6C442.33 1.6 442.31 1.62 442.31 1.63C442.25 1.7 442.21 1.76 442.16 1.83C443.8 1.83 445.58 1.83 447.22 1.84C447.34 1.88 447.6 1.92 447.72 1.97C448.23 2.08 448.61 2.18 448.97 2.29C446.58 2.3 444.18 2.31 441.8 2.32C441.65 2.32 441.35 2.32 441.06 2.32C441.11 2.25 441.16 2.19 441.21 2.12C440.48 2.09 439.91 2.07 439.19 2.03C437.21 2.08 435.24 2.13 433.27 2.18C433.78 2.3 434.14 2.42 434.49 2.54C434.49 2.54 434.47 2.56 434.46 2.58C434.26 2.65 433.92 2.71 433.57 2.78C434.29 2.82 435 2.86 435.72 2.9C435.8 2.98 436.05 3.06 436.13 3.14C436.13 3.14 436.11 3.16 436.1 3.18C434.74 3.2 433.24 3.22 431.88 3.25C429.2 3.25 428.29 3.08 427.77 2.97C427.82 2.9 427.87 2.84 427.92 2.77C427.65 2.73 427.53 2.69 427.27 2.64C428.06 2.58 428.85 2.51 429.5 2.45C429.39 2.4 429.13 2.34 429.02 2.29C429.19 2.27 429.5 2.24 429.68 2.21C428.09 2.14 426.5 2.08 424.92 2L424.9 1.99Z" fill="#B0ABA9"/>
<path d="M434.27 0.810059C435.55 0.890059 436.55 0.950059 437.69 1.02006C437.2 1.08006 436.72 1.13006 436.23 1.18006C434.74 1.18006 433.4 1.18006 431.91 1.17006C431.51 1.11006 431.1 1.06006 430.55 1.00006C431.94 0.940059 433.02 0.880059 434.27 0.810059Z" fill="#D6D3D2"/>
<path d="M457.76 2.89997C456.96 2.76997 456.17 2.62997 455.23 2.49997C455.25 2.46997 455.27 2.44997 455.29 2.42997C455.62 2.38997 455.94 2.34997 456.13 2.30997C456.1 2.13997 455.94 1.96997 455.76 1.78997C454.96 1.65997 453.44 1.49997 455.97 1.50997C456.72 1.50997 457.46 1.50997 458.21 1.50997C458.15 1.58997 458.09 1.66997 458.03 1.74997C459.53 1.93997 463.3 2.07997 458.99 2.26997C462.26 2.48997 463.81 2.80997 459.26 2.90997C458.41 3.05997 457.56 3.19997 456.85 3.34997C456.11 3.34997 455.36 3.34997 454.62 3.34997C454.19 3.31997 453.77 3.29997 453.34 3.25997C454.76 3.14997 456.34 3.02997 457.77 2.90997L457.76 2.89997Z" fill="#D6D3D2"/>
<path d="M33.5 1.96997C34.01 2.08997 32.08 2.27997 36.78 2.37997C34.39 2.38997 32 2.38997 29.6 2.40997C27.29 2.29997 26.47 2.00997 29.92 1.96997C31.11 1.96997 32.31 1.96997 33.49 1.96997H33.5Z" fill="#E4E3E2"/>
<path d="M27.05 4.03001C27.56 3.95001 28.07 3.87001 28.57 3.79001C36.21 3.54001 31.86 3.98001 37.14 3.88001C38.33 3.88001 39.52 3.88001 40.71 3.88001C42.17 3.93001 43.47 3.97001 44.93 4.01001C42.23 4.03001 39.68 4.05001 36.99 4.07001C33.54 4.10001 30.23 4.14001 26.93 4.17001C26.99 4.09001 27.02 4.05001 27.05 4.01001V4.03001Z" fill="#E4E3E2"/>
<path d="M52.08 4.04998C54.27 3.90998 52.25 3.61998 57.23 3.73998C59.26 3.81998 59.02 3.93998 60 4.02998C57.31 4.03998 54.63 4.03998 52.08 4.04998Z" fill="#E4E3E2"/>
<path d="M62.51 1.43005C63.7 1.43005 64.89 1.43005 66.02 1.52005C67.51 1.52005 69 1.52005 70.34 1.53005C71.84 1.52005 73.19 1.50005 74.68 1.50005C74.8 1.54005 75.07 1.58005 75.34 1.62005C75.34 1.64005 75.32 1.65005 75.31 1.66005C73.68 1.66005 71.89 1.66005 70.25 1.65005C69.33 1.69005 68.26 1.73005 67.33 1.76005C66.9 1.73005 66.48 1.71005 65.9 1.68005C64.25 1.68005 62.61 1.70005 60.96 1.71005C60.68 1.69005 60.39 1.68005 60.25 1.67005C61.05 1.59005 61.85 1.52005 62.51 1.43005Z" fill="#E4E3E2"/>
<path d="M64.19 3.19C68.91 3.07 71.86 3.09 72.68 3.21C68.13 3.32 65.58 3.34 64.19 3.19Z" fill="#E4E3E2"/>
<path d="M79.44 4.74999C83.74 4.77999 88.03 4.81999 92.18 4.84999C92.75 4.87999 93.18 4.90999 93.61 4.93999C94.52 4.91999 95.58 4.89999 96.5 4.85999C114.35 4.91999 132.19 4.97999 150.04 5.02999C149.53 5.10999 149.03 5.18999 148.53 5.26999C143.35 5.21999 138.33 5.14999 134.21 5.26999C129.36 5.17999 125.04 5.37999 119.84 5.34999C119.59 5.27999 120.41 5.18999 119.24 5.14999C114.2 5.10999 109.42 5.52999 105.64 5.19999C103.38 5.22999 101.27 5.25999 99 5.29999C97.38 5.26999 95.76 5.23999 94.15 5.20999C93.57 5.17999 93.15 5.15999 92.72 5.12999C91.1 5.10999 89.47 5.09999 87.84 5.07999C85.17 5.06999 80.83 5.27999 79.98 5.01999C78.61 5.05999 77.24 5.10999 75.61 5.08999C76.29 4.96999 73.79 4.92999 73.02 4.75999C75.11 4.75999 77.36 4.74999 79.44 4.73999V4.74999Z" fill="#E4E3E2"/>
<path d="M107.48 1.70006C108.82 1.70006 110.31 1.70006 111.8 1.70006C111.77 1.74006 111.74 1.78006 111.71 1.82006C110.22 1.82006 108.73 1.82006 107.39 1.81006C107.42 1.77006 107.45 1.73006 107.48 1.69006V1.70006Z" fill="#E4E3E2"/>
<path d="M123.14 1.68998C125.45 1.58998 127.27 1.54998 127.45 1.68998C126.11 1.68998 124.62 1.68998 123.14 1.68998Z" fill="#E4E3E2"/>
<path d="M138.82 1.84996C148.37 1.62996 155.38 1.81996 163.13 1.81996C172.46 1.70996 185.66 1.78996 195.31 1.84996C196 1.92996 197.66 1.88996 198.85 1.89996C199.15 1.89996 199.31 1.87996 199.62 1.85996C214.73 1.78996 228.29 1.99996 242.59 1.79996C243.72 1.87996 245.84 1.83996 247.47 1.84996C252.79 1.70996 260.9 1.82996 267.62 1.80996C269.82 1.65996 275.22 1.80996 278.42 1.71996C286.13 1.76996 292.88 1.51996 300.65 1.68996C299.88 1.72996 299.03 1.85996 296.16 1.91996C296.1 1.99996 296.04 2.07996 295.98 2.15996C292.09 2.15996 288.37 2.15996 284.49 2.16996C284.38 2.11996 284.12 2.05996 283.86 2.00996C282.49 2.05996 280.95 2.10996 279.43 2.15996C275.41 2.15996 271.38 2.15996 267.35 2.16996C265.14 2.12996 262.05 2.07996 260.15 2.22996C258.67 2.21996 257.34 2.19996 255.86 2.17996C253.47 2.18996 251.08 2.19996 248.69 2.20996C246.59 2.21996 244.35 2.22996 242.26 2.23996C241.96 2.23996 241.81 2.23996 241.51 2.23996C239.85 2.25996 238.2 2.27996 236.39 2.30996C234.75 2.30996 233.1 2.32996 231.46 2.32996C229.81 2.33996 228.01 2.35996 226.37 2.35996C224.74 2.34996 223.12 2.32996 221.49 2.30996C216.73 2.29996 211.97 2.28996 207.21 2.27996C205.72 2.27996 204.24 2.27996 202.89 2.27996C201.41 2.27996 200.06 2.27996 198.58 2.27996C197.69 2.27996 196.64 2.27996 195.75 2.27996C194.45 2.22996 192.02 2.27996 192.26 2.15996C189.28 2.15996 186.04 2.10996 182.83 2.21996C179.74 1.95996 170 2.02996 165.21 2.04996C157.48 2.02996 152.02 1.95996 143.07 1.95996C141.6 1.92996 140.28 1.89996 138.81 1.87996L138.82 1.84996Z" fill="#E4E3E2"/>
<path d="M159.44 5.01C162.71 5.01 165.99 5.03 169.41 5.03C170.72 5.07 172.17 5.12 173.48 5.16C171.99 5.36 167.81 5.17 166.34 5.34C164.48 5.44 161.46 5.3 159.26 5.24C157.48 5.24 155.84 5.24 154.2 5.23C154.54 5.17 153.37 5.14 152.86 5.03C155.1 5.03 157.2 5.02 159.44 5V5.01Z" fill="#E4E3E2"/>
<path d="M203.71 5.00004C205.79 5.01004 208.01 5.03004 210.08 5.06004C210.8 5.09004 211.53 5.11004 212.25 5.14004C215.88 5.07004 214.49 4.93004 216.56 4.95004C217.61 4.95004 218.51 4.93004 219.57 4.92004C220.16 4.92004 220.91 4.92004 221.65 4.92004C224.32 4.94004 226.84 4.96004 229.51 4.98004C232.25 5.10004 236.16 5.06004 241.59 4.97004C244.24 5.01004 246.9 5.04004 249.41 5.07004C250.93 5.03004 252.3 4.99004 253.81 4.96004C256.63 4.97004 259.44 5.00004 262.42 5.01004C265.25 5.01004 268.08 5.02004 270.9 5.03004C272.07 5.07004 273.24 5.09004 274.41 5.12004C275.9 5.12004 277.24 5.12004 278.72 5.13004C279.03 5.13004 279.19 5.11004 279.5 5.09004C280.84 5.09004 282.33 5.09004 283.82 5.09004C285.1 5.18004 286.53 5.25004 287.81 5.34004C289.57 5.38004 290.4 5.26004 292.15 5.31004C294.08 5.31004 296.02 5.31004 297.95 5.32004C299.29 5.32004 300.78 5.32004 302.12 5.32004C302.45 5.27004 302.79 5.21004 302.98 5.16004C303.72 5.16004 304.47 5.16004 305.21 5.16004C307.28 5.19004 309.34 5.22004 311.55 5.26004C314.24 5.25004 316.78 5.24004 319.47 5.24004C319.62 5.24004 319.91 5.24004 320.06 5.24004C320.3 5.32004 320.54 5.40004 320.63 5.48004C319.26 5.51004 317.74 5.55004 316.23 5.59004C314.89 5.59004 313.4 5.59004 312.09 5.54004C310.43 5.57004 308.63 5.59004 306.97 5.61004C305.43 5.68004 303.23 5.63004 301.28 5.64004C299.79 5.64004 298.31 5.64004 296.97 5.64004C291.04 5.59004 285.11 5.55004 279.17 5.52004C278.71 5.54004 278.26 5.54004 277.65 5.56004C275.29 5.53004 272.93 5.50004 270.57 5.46004C269.68 5.46004 268.64 5.46004 267.74 5.46004C264.1 5.34004 262.62 5.32004 261.4 5.37004C260.2 5.37004 259 5.39004 257.8 5.39004C254.72 5.32004 256.77 5.57004 254.1 5.55004C253.25 5.49004 252.24 5.44004 251.4 5.38004C249.17 5.38004 245.29 5.18004 244.82 5.41004C243.07 5.35004 239.65 5.34004 237.68 5.39004C235.04 5.33004 234.57 5.37004 231.22 5.46004C230.93 5.25004 230.03 5.26004 227.68 5.41004C222.42 5.26004 216.43 5.30004 212.09 5.33004C210.03 5.30004 206.94 5.23004 206.26 5.36004C200.44 5.36004 196.76 5.31004 191.2 5.36004C192.68 5.57004 187.4 5.46004 186.24 5.42004C183.89 5.17004 177.76 5.39004 174.95 5.16004C177.49 5.15004 179.08 5.02004 181.47 5.01004C188.93 5.01004 196.39 4.99004 203.69 4.99004L203.71 5.00004Z" fill="#E4E3E2"/>
<path d="M305.59 1.68C308.64 1.6 313.87 1.57 315.56 1.7C313.83 1.82 310.9 1.75 305.59 1.68Z" fill="#E4E3E2"/>
<path d="M325.74 1.64006C327.9 1.55006 332.07 1.55006 333.51 1.62006C333.57 1.74006 330.58 1.75006 325.74 1.64006Z" fill="#E4E3E2"/>
<path d="M336.48 1.61997C339.4 1.50997 341.48 1.51997 343.68 1.55997C345.61 1.55997 347.4 1.55997 349.33 1.56997C348.71 1.59997 347.87 1.72997 343.62 1.62997C341.24 1.62997 338.86 1.61997 336.48 1.60997V1.61997Z" fill="#E4E3E2"/>
<path d="M354.99 1.59006C358.06 1.47006 360.14 1.48006 362.19 1.52006C364.14 1.50006 366.09 1.48006 368.05 1.45006C370.15 1.43006 372.4 1.41006 374.51 1.39006C378.81 1.41006 381.18 1.24006 386.83 1.26006C388.94 1.23006 391.04 1.21006 393.29 1.19006C395.08 1.19006 396.22 1.26006 398.14 1.28006C397.65 1.33006 397.16 1.39006 396.68 1.43006C395.19 1.43006 393.85 1.43006 392.37 1.43006C390.45 1.40006 388.69 1.37006 386.78 1.33006C386.14 1.39006 385.66 1.44006 385.17 1.48006C384 1.45006 381.8 1.41006 380.8 1.55006C380.35 1.55006 379.91 1.55006 379.46 1.55006C377.84 1.52006 375.05 1.46006 373.6 1.62006C373.15 1.62006 372.71 1.62006 372.26 1.62006C370.8 1.58006 369.33 1.56006 368.01 1.53006C365.47 1.54006 366.14 1.64006 362.14 1.60006C359.91 1.60006 357.38 1.59006 355 1.58006L354.99 1.59006Z" fill="#E4E3E2"/>
<path d="M410.4 1.24006C410.63 0.93006 415.57 1.09006 418.4 1.10006C420.9 0.95006 426.19 1.04006 426.49 0.84006C429.04 0.82006 428.99 0.89006 430.54 1.01006C431.09 1.07006 431.5 1.12006 431.9 1.18006C428.75 1.21006 425.59 1.24006 422.59 1.28006C421.85 1.28006 421.1 1.28006 420.36 1.28006C420.21 1.28006 419.91 1.28006 419.62 1.28006C419.01 1.30006 418.26 1.30006 417.51 1.32006C415.14 1.30006 412.77 1.28006 410.4 1.26006V1.24006Z" fill="#E4E3E2"/>
<path d="M434.27 0.810005C433.89 0.720005 433.23 0.610005 434.42 0.610005C435.1 0.500005 436.18 0.450005 437.57 0.380005C439.89 0.470005 440.37 0.640005 443.65 0.830005C444.15 0.760005 444.66 0.670005 445.16 0.600005C445.56 0.870005 451.91 0.740005 452.1 0.890005C452.08 0.920005 452.06 0.950005 452.04 0.970005C453.3 1.07 455.16 1.19 456.15 1.25C456.09 1.33 456.03 1.42 455.97 1.49C453.44 1.49 454.96 1.65 455.76 1.77C455.93 1.95 456.1 2.12 456.13 2.29C455.95 2.33 455.62 2.37 455.29 2.41C453.23 2.36 451.03 2.32 448.98 2.27C448.61 2.16 448.24 2.06 447.73 1.95C447.61 1.91 447.34 1.87 447.23 1.82C446.54 1.74 445.86 1.66 445.17 1.58C445.26 1.46 445.35 1.34 445.44 1.21C445.5 1.14 445.56 1.05 443.62 0.850005C441.64 0.900005 439.67 0.950005 437.7 0.990005C436.56 0.920005 435.56 0.860005 434.28 0.780005L434.27 0.810005Z" fill="#E4E3E2"/>
<path d="M452.71 4.08995C453.54 3.97995 454.33 3.90995 455.65 3.93995C458.42 4.01995 458.49 4.13995 458.24 4.25995C456.54 4.33995 454.05 4.27995 452.61 4.20995C452.66 4.13995 452.68 4.11995 452.7 4.08995H452.71Z" fill="#E4E3E2"/>
<path d="M46.28 4.03006C47.69 3.94006 52.03 3.91006 52.09 4.04006C50.11 4.09006 51.59 4.31006 48.34 4.27006C47.66 4.19006 46.97 4.10006 46.28 4.02006V4.03006Z" fill="#C7C4C2"/>
<path d="M63.54 4.06996C64.07 3.94996 66.12 4.00996 67.14 4.03996C69.36 4.06996 71.87 4.09996 74.22 4.13996C72.87 4.34996 68.86 4.33996 65.44 4.31996C64.76 4.23996 64.07 4.14996 63.53 4.06996H63.54Z" fill="#C7C4C2"/>
<path d="M376.18 1.95997C374.1 1.94997 372.03 1.92997 369.81 1.89997C366.86 1.85997 365.71 2.00997 364.75 2.08997C365.71 2.00997 366.85 1.85997 369.81 1.89997C372.03 1.91997 374.1 1.93997 376.18 1.95997Z" fill="#C7C4C2"/>
<path d="M377.75 1.83995C379.4 1.82995 381.44 1.87995 382.93 1.68995C383.84 1.66995 384.9 1.63995 385.81 1.61995C387.46 1.60995 389.1 1.59995 390.75 1.58995C392.22 1.61995 393.69 1.64995 395 1.67995C396.54 1.60995 398.89 1.65995 400.89 1.56995C402.53 1.56995 404.16 1.56995 405.8 1.57995C405.59 1.65995 405.83 1.73995 407.11 1.81995C406.81 1.81995 406.66 1.81995 406.37 1.81995C402.64 1.81995 398.76 1.81995 394.88 1.83995C389.37 1.83995 385.71 1.94995 381.19 2.00995C380.01 1.98995 378.83 1.97995 377.65 1.95995C377.68 1.91995 377.71 1.87995 377.74 1.83995H377.75Z" fill="#C7C4C2"/>
<path d="M431.91 1.17003C431.87 1.22003 431.83 1.28003 431.79 1.33003C429.82 1.37003 428.01 1.40003 426.05 1.43003C424.08 1.48003 423.73 1.35003 422.6 1.26003C425.61 1.23003 428.76 1.19003 431.91 1.16003V1.17003Z" fill="#C7C4C2"/>
<path d="M7.51001 4.25997C10.23 4.00997 15.19 4.15997 19.08 4.12997C19.16 4.21997 19.39 4.31997 19.62 4.40997C15.48 4.35997 11.5 4.30997 7.51001 4.25997Z" fill="#B0ABA9"/>
<path d="M92.18 4.85003C93.4 4.81003 92.78 4.64003 96.49 4.86003C95.57 4.89003 94.51 4.91003 93.6 4.94003C93.17 4.91003 92.74 4.89003 92.17 4.85003H92.18Z" fill="#B0ABA9"/>
<path d="M111 3.58002C112.71 3.49002 114.57 3.40002 116.27 3.31002C116.31 3.26002 116.35 3.20002 116.39 3.15002C117.86 3.17002 119.2 3.18002 120.67 3.20002C121.43 3.19002 122.03 3.18002 122.79 3.16002C123.65 3.21002 124.64 3.27002 125.5 3.32002C131.85 3.20002 141.19 3.27002 146.96 3.32002C149.4 3.45002 154.84 3.35002 161.16 3.48002C161.14 3.50002 161.12 3.53002 161.1 3.55002C157.08 3.55002 153.81 3.53002 149.67 3.69002C149.65 3.72002 149.63 3.74002 149.61 3.77002C151.84 3.77002 154.37 3.78002 156.75 3.79002C158.09 3.79002 159.58 3.79002 160.92 3.79002C160.92 3.79002 160.94 3.76002 160.95 3.75002C163.17 3.77002 165.24 3.79002 167.47 3.81002C168.39 3.77002 169.31 3.74002 170.39 3.70002C171.24 3.75002 172.24 3.81002 173.1 3.86002C174.95 3.78002 177.72 3.86002 179.56 3.79002C181.17 3.84002 182.92 3.88002 184.53 3.93002C184.21 3.95002 183.89 3.98002 183.73 4.00002C179.36 3.87002 178.5 4.23002 176.59 3.98002C175.4 3.98002 174.21 3.98002 173.02 3.98002C171.09 3.97002 169.17 3.95002 167.39 3.93002C165.43 3.96002 163.46 4.00002 161.5 4.03002C159.88 4.00002 158.26 3.97002 156.65 3.94002C155.58 3.97002 154.67 3.99002 153.61 4.02002C152.3 3.98002 150.84 3.93002 149.53 3.89002C148.31 3.94002 146.68 3.92002 143.05 3.79002C143.83 3.75002 144.6 3.71002 145.37 3.68002C141.3 3.55002 140.58 3.71002 138.95 3.70002C136.26 3.71002 133.17 3.66002 131.03 3.72002C126.86 3.72002 122.84 3.70002 118.82 3.69002C116.89 3.69002 115.1 3.69002 113.17 3.68002C112.46 3.64002 111.74 3.60002 111.02 3.56002L111 3.58002Z" fill="#B0ABA9"/>
<path d="M197.37 3.90006C198.87 3.90006 200.22 3.88006 201.72 3.87006C201.71 3.89006 201.69 3.90006 201.69 3.91006C203.03 3.91006 204.54 3.89006 206.03 3.88006C206.05 3.85006 206.07 3.83006 206.09 3.81006C207.43 3.81006 208.92 3.81006 210.25 3.81006C212.63 3.82006 215.14 3.85006 217.37 3.87006C218.57 3.85006 219.64 3.82006 220.97 3.84006C222.29 3.87006 223.31 3.90006 224.48 3.92006C221.76 3.98006 221.37 4.10006 216.62 4.07006C213.95 4.05006 211.44 4.02006 208.76 4.01006C208.47 4.01006 208.31 4.01006 208.02 4.01006C205.92 4.03006 203.67 4.05006 201.57 4.07006C200.09 4.06006 198.76 4.04006 197.28 4.03006C195.83 3.99006 194.52 3.94006 193.06 3.90006C194.55 3.90006 195.89 3.90006 197.37 3.90006Z" fill="#B0ABA9"/>
<path d="M210.09 5.04999C210.74 4.96999 211.97 4.90999 213.06 4.85999C214.38 4.88999 215.4 4.91999 216.57 4.93999C214.5 4.91999 215.89 5.05999 212.26 5.12999C211.54 5.09999 210.81 5.07999 210.09 5.04999Z" fill="#B0ABA9"/>
<path d="M251.8 3.87006C255.84 3.85006 259.87 3.84006 263.92 3.81006C269.28 3.81006 274.5 3.81006 279.72 3.81006C281.22 3.80006 282.19 3.69006 284.1 3.74006C285.28 3.76006 286.46 3.77006 287.64 3.79006C291.99 3.76006 296.18 3.73006 300.53 3.69006C302.9 3.71006 305.27 3.73006 307.64 3.75006C305.22 3.79006 302.81 3.82006 300.4 3.86006C295.94 3.85006 294.34 3.99006 287.55 3.91006C285.29 3.94006 283.19 3.96006 281.09 3.98006C277.78 4.02006 275.55 4.03006 272.38 4.08006C269.56 4.07006 266.74 4.04006 263.78 4.02006C261.18 4.11006 257.83 4.01006 256.07 3.97006C254.59 3.95006 253.11 3.93006 251.78 3.92006C251.79 3.90006 251.8 3.89006 251.81 3.88006L251.8 3.87006Z" fill="#B0ABA9"/>
<path d="M287.46 5.03004C287.9 5.03004 288.33 5.06004 288.78 5.07004C290.3 5.02004 291.68 4.98004 293.21 4.92004C293.66 4.92004 294.1 4.92004 294.7 4.92004C296.87 5.01004 298.91 5.08004 303 5.18004C302.81 5.23004 302.47 5.29004 302.14 5.34004C300.8 5.34004 299.31 5.34004 297.97 5.34004C296.04 5.34004 294.1 5.34004 292.17 5.33004C290.42 5.28004 289.59 5.40004 287.83 5.36004C286.55 5.27004 285.12 5.20004 283.84 5.11004C285.05 5.09004 286.25 5.07004 287.46 5.04004V5.03004Z" fill="#B0ABA9"/>
<path d="M304.18 4.59002C304.63 4.59002 305.08 4.59002 305.67 4.59002C305.65 4.61002 305.65 4.61002 305.64 4.63002C309.33 4.68002 310.01 4.56002 313.44 4.56002C314.63 4.56002 316.57 4.56002 316.35 4.65002C319.74 4.70002 321.01 4.59002 322.87 4.51002C329.06 4.60002 335.1 4.50002 340.72 4.55002C346.35 4.60002 344.84 4.22002 345.42 4.04002C347.38 4.01002 348.17 4.15002 349.47 4.21002C351.27 4.19002 352.93 4.17002 354.58 4.15002C355.06 4.11002 355.53 4.07002 356.16 4.03002C357.81 4.03002 359.86 4.07002 360.45 3.88002C361.49 3.88002 362.38 3.88002 363.42 3.88002C363.92 3.81002 364.41 3.75002 364.91 3.68002C367.7 3.73002 370.68 3.74002 373.57 3.66002C374.91 3.66002 376.41 3.64002 377.91 3.64002C380.32 3.80002 382.69 3.63002 386.48 3.53002C387.08 3.53002 387.52 3.53002 387.97 3.53002C388.65 3.61002 389.19 3.69002 389.88 3.78002C392.58 3.76002 395.12 3.74002 397.83 3.71002C399.35 3.66002 400.73 3.62002 402.26 3.56002C403.61 3.56002 405.11 3.54002 406.61 3.53002C406.64 3.50002 406.66 3.46002 406.7 3.41002C407.62 3.39002 408.67 3.36002 409.59 3.33002C411.67 3.33002 413.9 3.33002 415.99 3.34002C417.71 3.23002 419.59 3.12002 421.31 2.99002C421.91 2.99002 422.65 2.99002 423.4 2.99002C423.69 3.20002 424.59 3.19002 425.33 3.19002C426.71 3.14002 426.04 3.03002 426.25 2.95002C426.9 2.89002 428.41 2.85002 427.76 2.92002C428.28 3.03002 429.19 3.21002 431.87 3.20002C433.23 3.18002 434.74 3.16002 436.09 3.13002C438.71 3.21002 439.9 3.21002 441.09 3.22002C442.73 3.22002 444.51 3.22002 446.15 3.23002C446.09 3.31002 446.03 3.39002 445.97 3.47002C444.91 3.49002 444 3.52002 442.93 3.55002C443.09 3.73002 443.25 3.92002 443.26 4.11002C443.26 4.11002 443.24 4.13002 443.23 4.15002C442.49 4.15002 441.89 4.15002 441.15 4.15002C440.85 4.15002 440.7 4.15002 440.41 4.15002C438.04 4.13002 435.67 4.11002 433.3 4.09002C432.85 4.09002 432.41 4.09002 431.81 4.09002C430.47 4.09002 428.98 4.09002 427.64 4.09002C426.57 4.13002 425.91 4.21002 424.58 4.20002C423.69 4.20002 422.79 4.20002 421.75 4.20002C420.44 4.16002 418.98 4.12002 417.52 4.07002C414.98 4.07002 411.89 4.02002 409 4.09002C409.39 4.17002 409.78 4.25002 410.17 4.33002C412.39 4.35002 414.46 4.37002 416.69 4.39002C414.97 4.49002 411.43 4.44002 411.48 4.58002C408.79 4.59002 406.25 4.60002 403.56 4.60002C398.75 4.66002 395.09 4.77002 388.32 4.85002C393.84 4.85002 393.59 4.99002 394.72 5.06002C394.1 5.09002 393.63 5.13002 393.15 5.17002C391.68 5.14002 390.36 5.11002 388.89 5.08002C388.82 5.18002 388.75 5.27002 388.68 5.36002C387.48 5.37002 386.28 5.38002 385.08 5.39002C384.96 5.35002 384.7 5.31002 384.43 5.26002C378.72 5.32002 377.76 5.00002 373.77 5.16002C373.77 5.16002 373.75 5.18002 373.74 5.20002C371.95 5.20002 370.02 5.20002 368.08 5.19002C366.13 5.21002 364.32 5.23002 362.37 5.25002C362.02 5.32002 361.68 5.38002 361.48 5.45002C358.06 5.45002 354.78 5.43002 351.51 5.43002C350.54 5.32002 349.73 5.22002 348.76 5.11002C350.36 4.96002 355.13 5.16002 355.46 4.93002C354.45 4.89002 353.59 4.84002 352.57 4.80002C351.08 4.80002 349.31 4.78002 348.34 4.87002C341.17 4.90002 335.92 4.92002 329.65 4.94002C326.82 4.94002 323.85 4.93002 321.02 4.92002C319.83 4.91002 318.66 4.89002 317.47 4.88002C315.38 4.88002 313.14 4.89002 311.05 4.90002C309.58 4.87002 308.26 4.84002 306.79 4.82002C306.35 4.82002 305.89 4.82002 305.45 4.82002C304.26 4.81002 303.76 4.88002 300.42 4.77002C302.07 4.75002 301.82 4.70002 304.13 4.58002L304.18 4.59002Z" fill="#938E8A"/>
<path d="M306.77 4.91001C308.26 4.91001 309.6 4.91001 311.09 4.91001C313.18 4.91001 315.42 4.90001 317.51 4.89001C318.2 4.96001 318.9 5.03001 319.6 5.09001C320.09 5.03001 320.57 4.98001 321.06 4.93001C323.89 4.93001 326.86 4.94001 329.69 4.95001C330.37 5.03001 330.9 5.12001 331.59 5.20001C330.69 5.21001 329.63 5.23001 328.73 5.23001C325.89 5.23001 323.06 5.24001 320.07 5.25001C319.92 5.25001 319.63 5.25001 319.48 5.25001C316.8 5.25001 314.25 5.26001 311.56 5.27001C309.35 5.23001 307.29 5.20001 305.22 5.17001C305.74 5.08001 306.25 4.99001 306.77 4.89001V4.91001Z" fill="#B0ABA9"/>
<path d="M318.4 3.70003C326.95 3.83003 331.46 3.77003 335.58 3.66003C331.46 3.78003 326.96 3.83003 318.4 3.70003Z" fill="#B0ABA9"/>
<path d="M355.49 4.95C355.17 5.18 350.39 4.99001 348.79 5.13001C349.75 5.24001 350.57 5.34 351.54 5.45C350.33 5.46 349.13 5.48 347.93 5.48C347.35 5.45 346.93 5.43 346.51 5.39C346.56 5.32 346.6 5.27 346.65 5.19C343.11 5.14 342.52 5.33001 340.19 5.26001C337.37 5.24001 334.41 5.22 331.59 5.2C330.9 5.12 330.37 5.04 329.69 4.95C335.96 4.93 341.2 4.9 348.38 4.88001C349.34 4.78001 351.11 4.81 352.61 4.81C353.62 4.85 354.48 4.9 355.5 4.94L355.49 4.95Z" fill="#A39E9B"/>
<path d="M340.19 5.27003C342.52 5.34003 343.11 5.15002 346.65 5.20002C346.6 5.27002 346.55 5.33003 346.51 5.40003C344.43 5.40003 342.19 5.40003 340.11 5.39003C340.14 5.36003 340.17 5.32003 340.2 5.27003H340.19Z" fill="#B0ABA9"/>
<path d="M347.92 3.48999C349.55 3.50999 351.33 3.51999 352.95 3.53999C352.94 3.55999 352.91 3.58999 352.89 3.60999C351.38 3.63999 350.88 3.70999 347.09 3.59999C347.41 3.56999 347.74 3.52999 347.92 3.48999Z" fill="#B0ABA9"/>
<path d="M358.27 3.00002C360.16 3.07002 362.04 3.14002 363.93 3.21002C364.08 3.21002 364.38 3.21002 364.53 3.21002C366.33 3.20002 367.98 3.18002 369.62 3.18002C370.12 3.11002 370.61 3.05002 371.26 2.98002C375.47 2.93002 378.15 2.74002 383.49 2.77002C382.87 2.59002 388.23 2.81002 387.21 2.58002C396.04 2.33002 404.18 2.81002 413.02 2.56002C414.66 2.56002 416.87 2.60002 418.1 2.54002C417.14 2.43002 414.75 2.44002 414.68 2.33002C414.71 2.29002 414.74 2.25002 414.77 2.21002C416.72 2.19002 418.53 2.17002 420.48 2.15002C421.2 2.19002 421.91 2.23002 422.48 2.27002C422.27 2.36002 421.89 2.46002 421.68 2.55002C416.72 2.81002 413.95 2.92002 409.93 2.92002C408.27 2.95002 406.45 2.99002 404.78 3.02002C406.4 3.05002 408.17 3.08002 409.78 3.11002C409.72 3.18002 409.66 3.27002 409.61 3.34002C408.69 3.37002 407.63 3.39002 406.72 3.42002C405.23 3.42002 403.74 3.42002 402.41 3.42002C400.93 3.41002 399.6 3.39002 398.12 3.37002C394.51 3.41002 391.77 3.49002 388.03 3.50002C388.02 3.52002 388.01 3.53002 388 3.54002C387.55 3.54002 387.11 3.54002 386.51 3.54002C383.68 3.54002 380.86 3.53002 378.03 3.52002C376.53 3.53002 375.03 3.55002 373.69 3.55002C372.81 3.54002 371.77 3.52002 370.89 3.50002C369.24 3.51002 367.45 3.53002 365.8 3.53002C365.34 3.55002 364.89 3.55002 364.28 3.57002C362.96 3.55002 361.47 3.54002 360.14 3.52002C360.17 3.48002 360.21 3.44002 360.23 3.40002C358.77 3.36002 357.32 3.31002 356.01 3.27002C356.82 3.18002 357.49 3.09002 358.3 3.00002H358.27Z" fill="#B0ABA9"/>
<path d="M388.34 4.86005C395.11 4.78005 398.77 4.67005 403.58 4.61005C406.27 4.61005 408.81 4.60005 411.5 4.59005C411.45 4.46005 414.99 4.51005 416.71 4.40005C414.48 4.39005 412.41 4.37005 410.19 4.34005C409.8 4.26005 409.41 4.18005 409.02 4.10005C411.9 4.03005 415 4.08005 417.54 4.08005C419 4.13005 420.46 4.16005 421.77 4.21005C422.81 4.21005 423.71 4.21005 424.6 4.21005C425.94 4.22005 426.59 4.14005 427.66 4.10005C429 4.10005 430.49 4.10005 431.83 4.10005C431.33 4.17005 430.82 4.26005 430.31 4.34005C431.65 4.34005 433.14 4.34005 434.63 4.34005C434.78 4.34005 435.08 4.34005 435.22 4.34005C435.2 4.37005 435.16 4.41005 435.14 4.46005C435.08 4.54005 435.02 4.62005 434.96 4.70005C435.7 4.91005 436.72 4.95005 436.21 5.02005C435.29 5.05005 434.23 5.07005 433.32 5.10005C432.62 5.03005 431.93 4.96005 431.23 4.90005C428.11 4.90005 424.86 4.85005 422.66 5.00005C422.61 5.07005 422.56 5.13005 422.51 5.20005C419.83 5.20005 417.3 5.19005 414.62 5.18005C411.92 5.21005 409.37 5.23005 406.67 5.24005C404.53 5.31005 402.3 5.30005 400.22 5.30005C397.81 5.33005 395.41 5.35005 393.01 5.37005C391.52 5.37005 390.18 5.37005 388.69 5.36005C388.76 5.27005 388.82 5.18005 388.9 5.08005C390.37 5.12005 391.69 5.14005 393.16 5.17005C393.64 5.13005 394.11 5.09005 394.73 5.06005C393.6 4.98005 393.85 4.84005 388.33 4.85005L388.34 4.86005Z" fill="#A39E9B"/>
<path d="M422.51 5.21996C422.56 5.14996 422.61 5.08996 422.66 5.01996C424.85 4.87996 428.1 4.91996 431.23 4.91996C431.92 4.98996 432.62 5.05996 433.32 5.11996C431.67 5.13996 429.86 5.15996 428.21 5.17996C427.41 5.24996 424.46 5.19996 422.53 5.20996L422.51 5.21996Z" fill="#B0ABA9"/>
<path d="M431.81 4.12C432.41 4.12 432.85 4.12 433.3 4.12C435.68 4.13 438.04 4.16 440.41 4.18C438.72 4.24 437.04 4.31 435.2 4.37C435.05 4.37 434.75 4.37 434.61 4.37C433.12 4.37 431.63 4.37 430.29 4.37C430.8 4.29 431.31 4.21 431.81 4.13V4.12Z" fill="#B0ABA9"/>
<path d="M434.94 4.72999C435 4.64999 435.06 4.56999 435.12 4.48999C436.88 4.53999 438.48 4.57999 440.09 4.61999C439.91 4.65999 439.58 4.69999 439.26 4.73999C438.29 4.84999 437.17 4.93999 436.2 5.04999C436.7 4.97999 435.68 4.93999 434.95 4.72999H434.94Z" fill="#B0ABA9"/>
<path d="M443.27 4.15002C447.61 4.12002 450.38 4.01002 452.71 4.09002C452.68 4.12002 452.67 4.15002 452.62 4.21002C451.99 4.26002 451.5 4.32002 451.02 4.36002C448.38 4.30002 445.89 4.24002 443.25 4.18002C443.26 4.16002 443.27 4.15002 443.28 4.14002L443.27 4.15002Z" fill="#B0ABA9"/>
<path d="M19.08 4.13003C21.05 4.09003 22.86 4.06003 24.82 4.03003C25.57 4.03003 26.31 4.03003 27.05 4.03003C27.03 4.06003 27 4.10003 26.93 4.19003C25.39 4.26003 23.99 4.34003 22.44 4.42003C21.55 4.42003 20.51 4.42003 19.61 4.42003C19.38 4.33003 19.16 4.23003 19.07 4.14003L19.08 4.13003Z" fill="#BCB8B6"/>
<path d="M138.92 3.71996C140.55 3.72996 141.27 3.56996 145.34 3.69996C144.57 3.72996 143.8 3.76996 143.02 3.80996C141.7 3.77996 140.23 3.74996 138.92 3.71996Z" fill="#BCB8B6"/>
<path d="M412.78 1.84001C415.94 1.81001 418.71 1.69001 420.16 1.54001C420.23 1.45001 420.3 1.35001 420.37 1.26001C421.12 1.26001 421.86 1.26001 422.6 1.26001C423.73 1.35001 424.08 1.47001 426.05 1.43001C428.01 1.39001 429.82 1.36001 431.79 1.33001C432.04 1.40001 432.14 1.46001 432.39 1.53001C435.01 2.02001 423.97 1.63001 424.9 1.99001C426.09 1.99001 427.3 1.97001 428.49 1.97001C427.67 2.08001 429.57 2.12001 429.66 2.21001C429.49 2.24001 429.17 2.27001 429 2.29001C427.06 2.29001 425.13 2.29001 423.19 2.28001C423.04 2.28001 422.75 2.28001 422.45 2.28001C421.89 2.24001 421.18 2.19001 420.45 2.16001C419.61 1.89001 416.11 1.98001 414.2 1.95001C413.78 1.92001 413.35 1.89001 412.77 1.86001L412.78 1.84001Z" fill="#BCB8B6"/>
<path d="M435.21 4.37005C437.05 4.31005 438.73 4.24005 440.42 4.18005C440.72 4.18005 440.87 4.18005 441.16 4.18005C440.76 4.32005 440.5 4.47005 440.1 4.61005C438.49 4.57005 436.88 4.53005 435.13 4.48005C435.16 4.44005 435.19 4.40005 435.21 4.36005V4.37005Z" fill="#BCB8B6"/>
<path d="M442.31 1.62998L442.33 1.59998C443.22 1.59998 444.26 1.59998 445.16 1.59998C445.85 1.67998 446.53 1.75998 447.22 1.83998C445.58 1.83998 443.8 1.83998 442.16 1.82998C442.21 1.75998 442.25 1.70998 442.31 1.62998Z" fill="#BCB8B6"/>
<path d="M317.51 4.90002C318.69 4.91002 319.87 4.93002 321.06 4.94002C320.57 5.00002 320.09 5.05002 319.6 5.10002C318.91 5.03002 318.21 4.96002 317.51 4.90002Z" fill="#A39E9B"/>
<path d="M362.4 5.27995C364.35 5.25995 366.16 5.23995 368.11 5.21995C370.05 5.21995 371.98 5.21995 373.77 5.22995C373.78 5.20995 373.79 5.19995 373.8 5.18995C377.79 5.02995 378.75 5.34995 384.46 5.28995C384.73 5.32995 385 5.36995 385.11 5.41995C380.44 5.47995 377.71 5.54995 374.31 5.50995C369.99 5.50995 365.82 5.48995 361.51 5.47995C361.71 5.40995 362.05 5.34995 362.4 5.27995Z" fill="#A39E9B"/>
<path d="M374.56 4.15001C376.05 4.15001 377.53 4.15001 378.87 4.16001C379.88 4.21001 380.72 4.27001 381.58 4.32001C388.79 4.44001 392.74 4.14001 398.87 4.32001C398.85 4.35001 398.83 4.38001 398.81 4.40001C396.11 4.42001 393.56 4.44001 390.86 4.46001C386.35 4.52001 379.83 4.46001 374.34 4.42001C374.41 4.33001 374.48 4.23001 374.55 4.14001L374.56 4.15001Z" fill="#A39E9B"/>
<path d="M388.01 3.5C391.75 3.48 394.49 3.41 398.1 3.37C399.58 3.39 400.9 3.41 402.39 3.42C403.73 3.42 405.22 3.42 406.7 3.42C406.67 3.46 406.64 3.5 406.61 3.54C405.11 3.55 403.61 3.57 402.26 3.57C400.73 3.63 399.35 3.67 397.83 3.72C395.12 3.75 392.58 3.77 389.88 3.79C389.2 3.71 388.65 3.63 387.97 3.54C387.97 3.54 387.99 3.52 388 3.5H388.01Z" fill="#A39E9B"/>
<path d="M404.76 3.02005C407.56 2.87005 408.75 2.87005 409.91 2.92005C413.94 2.92005 416.7 2.81005 421.66 2.55005C423.58 2.58005 425.34 2.61005 427.26 2.64005C427.53 2.68005 427.64 2.72005 427.91 2.77005C427.86 2.84005 427.81 2.90005 427.76 2.97005C428.41 2.90005 426.89 2.93005 426.25 3.00005C426.04 3.08005 426.7 3.19005 425.33 3.24005C424.59 3.24005 423.69 3.24005 423.4 3.04005C422.66 3.04005 421.91 3.04005 421.31 3.04005C419.58 3.16005 417.71 3.27005 415.99 3.39005C413.91 3.39005 411.68 3.39005 409.59 3.38005C409.65 3.31005 409.71 3.22005 409.76 3.15005C408.15 3.11005 406.38 3.08005 404.76 3.06005V3.02005Z" fill="#A39E9B"/>
<path d="M434.45 2.57002C434.9 2.57002 435.34 2.57002 435.94 2.57002C437.64 2.48002 439.35 2.39002 441.06 2.30002C441.36 2.30002 441.66 2.30002 441.8 2.30002C444.19 2.30002 446.58 2.29002 448.97 2.27002C451.02 2.32002 453.22 2.36002 455.28 2.41002C455.26 2.43002 455.24 2.46002 455.22 2.48002C456.16 2.61002 456.96 2.75002 457.75 2.88002C456.32 3.00002 454.74 3.11002 453.32 3.23002C453.74 3.26002 454.17 3.29002 454.6 3.32002C455.35 3.32002 456.09 3.32002 456.83 3.32002C460.03 3.43002 458.25 3.61002 458.59 3.76002C457.66 3.81002 456.58 3.86002 455.64 3.91002C454.32 3.88002 453.53 3.95002 452.7 4.06002C450.37 3.98002 447.61 4.09002 443.26 4.12002C443.26 3.93002 443.09 3.75002 442.93 3.56002C444 3.53002 444.91 3.51002 445.97 3.48002C446.03 3.40002 446.09 3.32002 446.15 3.24002C444.51 3.24002 442.72 3.24002 441.09 3.23002C439.9 3.23002 438.71 3.23002 436.09 3.14002C436.1 3.12002 436.11 3.11002 436.12 3.10002C436.03 3.02002 435.79 2.94002 435.71 2.86002C435 2.82002 434.28 2.77002 433.56 2.74002C433.91 2.67002 434.25 2.61002 434.45 2.54002V2.57002Z" fill="#A39E9B"/>
<path d="M441.79 1.30998C443 1.28998 444.21 1.26998 445.43 1.22998C445.34 1.34998 445.25 1.46998 445.16 1.59998C444.27 1.59998 443.22 1.59998 442.33 1.59998C442.25 1.50998 442.03 1.40998 441.79 1.31998V1.30998Z" fill="#A39E9B"/>
<path d="M261.75 4.92996C264.19 4.84996 266.63 4.77996 269.06 4.70996C269.21 4.70996 269.51 4.70996 269.81 4.70996C270.24 4.73996 270.66 4.75996 271.08 4.79996C271.02 4.86996 270.96 4.95996 270.91 5.02996C268.09 5.02996 265.26 5.01996 262.43 5.00996C262.15 4.97996 261.87 4.95996 261.74 4.92996H261.75Z" fill="#938E8A"/>
<path d="M422.46 2.26C422.76 2.26 423.06 2.26 423.2 2.26C425.14 2.26 427.07 2.26 429.01 2.27C429.12 2.32 429.38 2.38 429.49 2.43C428.84 2.5 428.05 2.56 427.26 2.62C425.34 2.59 423.58 2.56 421.66 2.53C421.88 2.44 422.25 2.34 422.46 2.25V2.26Z" fill="#938E8A"/>
<path d="M437.7 2.02002C438.3 2.02002 438.74 2.02002 439.19 2.02002C439.91 2.06002 440.49 2.08002 441.21 2.11002C441.16 2.18002 441.11 2.24002 441.06 2.31002C439.36 2.40002 437.65 2.49002 435.94 2.58002C435.34 2.58002 434.9 2.58002 434.45 2.58002C434.46 2.56002 434.47 2.55002 434.48 2.54002C434.12 2.41002 433.77 2.30002 433.26 2.18002C434.79 2.13002 436.31 2.08002 437.7 2.02002Z" fill="#938E8A"/>
<path d="M407.13 1.83001C408.35 1.79001 409.57 1.75001 410.79 1.72001C410.56 1.63001 410.48 1.53001 410.26 1.44001C411.89 1.44001 413.68 1.44001 415.32 1.45001C416.54 1.41001 416.44 1.34001 417.52 1.30001C418.28 1.29001 419.03 1.28001 419.63 1.26001C419.93 1.26001 420.22 1.26001 420.37 1.26001C420.31 1.35001 420.23 1.45001 420.16 1.54001C418.71 1.69001 415.94 1.80001 412.78 1.84001C413.36 1.87001 413.78 1.89001 414.21 1.93001C415.4 1.93001 416.59 1.93001 417.78 1.93001C420.51 1.87001 420.84 2.03001 420.46 2.14001C418.51 2.16001 416.7 2.18001 414.75 2.20001C414.72 2.24001 414.69 2.28001 414.66 2.32001C413.61 2.32001 412.71 2.34001 411.66 2.35001C407.28 2.42001 406.45 2.14001 401.06 2.17001C400.38 2.08001 402.63 2.06001 402.66 2.02001C404.17 2.00001 405.52 1.98001 407.04 1.95001C407.06 1.92001 407.09 1.88001 407.13 1.83001Z" fill="#C7C4C2"/>
<path d="M410.25 1.43999C410.3 1.36999 410.35 1.30999 410.39 1.23999C412.76 1.25999 415.13 1.27999 417.5 1.29999C416.42 1.34999 416.52 1.40999 415.3 1.44999C413.66 1.44999 411.88 1.44999 410.24 1.43999H410.25Z" fill="#D6D3D2"/>
<path d="M127.45 1.69995C128.94 1.69995 130.28 1.69995 131.76 1.70995C130.43 1.69995 131.35 1.85995 127.45 1.69995Z" fill="#E4E3E2"/>
<path d="M398.14 1.28996C401.06 1.15996 406.15 1.12996 410.4 1.23996C410.35 1.30996 410.3 1.36996 410.26 1.43996C407.58 1.42996 405.07 1.39996 402.4 1.37996C401.08 1.34996 399.61 1.31996 398.14 1.29996V1.28996Z" fill="#E4E3E2"/>
<path d="M363.03 2.41001C366.25 2.29001 367.88 2.30001 369.52 2.30001C371.65 2.65001 365.75 2.56001 363.03 2.41001Z" fill="#C7C4C2"/>
<path d="M100.76 2.92004C101.77 2.96004 102.63 3.01004 103.65 3.04004C102.7 3.12004 102.3 3.25004 99.95 3.20004C98.63 3.18004 97.6 3.16004 96.41 3.15004C96.53 2.98004 99.87 3.11004 100.75 2.92004H100.76Z" fill="#C7C4C2"/>
<path d="M224.48 3.92C225.81 3.93 226.47 3.85 227.55 3.81C228.73 3.83 229.91 3.84 231.09 3.86C232.76 3.82 234.43 3.78 236.09 3.75C236.66 3.78 237.09 3.81 237.52 3.84C239.95 3.77 243.19 3.83 246.03 3.82C247.5 3.86 248.97 3.88 250.29 3.91C249.1 3.91 248.3 3.98 247.37 4.02C244.1 4.02 240.67 4 237.4 4C236.21 4 235.02 4 231.06 3.91C229.42 3.91 228.59 4.02 224.49 3.93L224.48 3.92Z" fill="#B0ABA9"/>
</g>
</g>
</svg>
