<?xml version="1.0" encoding="utf-8"?>
<!-- Generator: Adobe Illustrator 27.0.0, SVG Export Plug-In . SVG Version: 6.00 Build 0)  -->
<svg version="1.1" id="Layer_1" xmlns="http://www.w3.org/2000/svg" xmlns:xlink="http://www.w3.org/1999/xlink" x="0px" y="0px"
	 viewBox="0 0 7.5 116.9" style="enable-background:new 0 0 7.5 116.9;" xml:space="preserve">
<style type="text/css">
	.st0{fill:#F7F7F7;}
	.st1{fill:none;}
	.st2{opacity:0.2;fill:#F4F1EF;}
	.st3{fill:#F2F8FC;}
	.st4{fill:#F4F1EF;}
	.st5{fill:#DFDDD0;}
	.st6{fill:#6B635E;}
	.st7{fill:#302615;}
	.st8{fill:#98C1EC;}
	.st9{fill:#6FA3D1;}
	.st10{fill:#F2EDE9;}
	.st11{fill:#467BAF;}
	.st12{fill:none;stroke:#A6A19E;stroke-miterlimit:10;}
	.st13{fill:none;stroke:#FEFEFE;stroke-miterlimit:10;}
	.st14{fill:none;stroke:#6B635E;stroke-width:1.5;stroke-miterlimit:10;}
	.st15{fill:none;stroke:#E5E1E6;stroke-miterlimit:10;}
	.st16{fill:none;stroke:#6790CD;stroke-width:4.2762;stroke-miterlimit:10;}
	.st17{fill:none;stroke:#FEFEFE;stroke-width:0.7308;stroke-miterlimit:10;}
	.st18{fill:none;stroke:#6B635E;stroke-width:1.1451;stroke-miterlimit:10;}
	.st19{fill:#D1EAF8;}
	.st20{opacity:0.85;}
	.st21{fill:#6790CD;}
	.st22{clip-path:url(#SVGID_00000043432271637253580880000012681057225927360677_);}
	.st23{opacity:0.9;}
	.st24{fill:#CBDAE9;}
	.st25{fill:#DDE7F0;}
	.st26{fill:#9CB8D4;}
	.st27{fill:#8CADCD;}
	.st28{fill:#B9CDE1;}
	.st29{fill:#ABC3DB;}
	.st30{fill:#789FC5;}
	.st31{fill:#F1F6FA;}
	.st32{fill:#F6F9FC;}
	.st33{fill:#E4EDF5;}
	.st34{fill:#DFEAF4;}
	.st35{fill:#ECF3F8;}
	.st36{fill:#E8F0F7;}
	.st37{fill:#DAE7F2;}
	.st38{opacity:0.4;fill:#F4F1EF;}
	.st39{fill:none;stroke:#F4F1EF;stroke-width:0.5;stroke-miterlimit:10;}
	.st40{fill:#FCFBFB;}
	.st41{fill:#FDFCFC;}
	.st42{fill:#F9F7F6;}
	.st43{fill:#F8F6F5;}
	.st44{fill:#FBFAF9;}
	.st45{fill:#FAF9F8;}
	.st46{fill:#F7F5F3;}
	.st47{fill:#D6D3D2;}
	.st48{fill:#E4E3E2;}
	.st49{fill:#B0ABA9;}
	.st50{fill:#A39E9B;}
	.st51{fill:#C7C4C2;}
	.st52{fill:#BCB8B6;}
	.st53{fill:#938E8A;}
	.st54{fill:#CEE3F4;}
	.st55{fill:#BDD9F0;}
	.st56{fill:#A1C9EA;}
	.st57{fill:#DFEDF8;}
	.st58{fill:#B0D2ED;}
	.st59{fill:#92C1E7;}
	.st60{fill:#F2F9FD;}
	.st61{fill:#F7FBFE;}
	.st62{fill:#E6F4FB;}
	.st63{fill:#E2F2FB;}
	.st64{fill:#EEF7FC;}
	.st65{fill:#EAF5FC;}
	.st66{fill:#DEF0FA;}
	.st67{fill:#C2D2DF;}
	.st68{fill:#D7E2EA;}
	.st69{fill:#8AA9C2;}
	.st70{fill:#779BB9;}
	.st71{fill:#ADC3D4;}
	.st72{fill:#9CB7CC;}
	.st73{fill:#608BAD;}
	.st74{fill:#FEFEFE;}
	.st75{fill:#3B6C9E;}
	.st76{fill:#EFEFEF;}
	
		.st77{opacity:0.498;fill:none;stroke:#B7B7B7;stroke-width:3.485746e-02;stroke-linecap:round;stroke-linejoin:round;stroke-miterlimit:10;}
	
		.st78{opacity:0.5098;fill:none;stroke:#B7B7B7;stroke-width:3.485746e-02;stroke-linecap:round;stroke-linejoin:round;stroke-miterlimit:10;}
	.st79{fill:#FFFFFF;}
	.st80{fill:none;stroke:#FFFFFF;stroke-width:0;stroke-linecap:round;stroke-miterlimit:10;}
	.st81{fill:none;stroke:#979797;stroke-width:0.1394;stroke-linecap:round;stroke-linejoin:round;stroke-miterlimit:10;}
	.st82{fill:none;stroke:#9FA7AA;stroke-width:0.1046;stroke-linecap:round;stroke-linejoin:round;stroke-miterlimit:10;}
	.st83{fill:none;stroke:#242424;stroke-width:0.1743;stroke-linecap:round;stroke-linejoin:round;stroke-miterlimit:10;}
	.st84{fill:none;stroke:#FFFFFF;stroke-width:0;stroke-linecap:round;stroke-linejoin:round;stroke-miterlimit:10;}
	.st85{fill:none;stroke:#979797;stroke-width:0.1743;stroke-linecap:round;stroke-linejoin:round;stroke-miterlimit:10;}
	.st86{fill:none;stroke:#979797;stroke-width:0;stroke-linecap:round;stroke-linejoin:round;stroke-miterlimit:10;}
	.st87{fill:none;stroke:#979797;stroke-width:6.971491e-02;stroke-linecap:round;stroke-linejoin:round;stroke-miterlimit:10;}
	.st88{fill:none;stroke:#9FA7AA;stroke-width:0.244;stroke-linecap:round;stroke-linejoin:round;stroke-miterlimit:10;}
	.st89{fill:#847F7B;}
	.st90{fill:none;stroke:#847F7B;stroke-width:0.3077;stroke-miterlimit:10;}
	.st91{fill:none;stroke:#929497;stroke-width:0.1394;stroke-linecap:round;stroke-linejoin:round;stroke-miterlimit:10;}
	.st92{fill:none;stroke:#94A294;stroke-width:6.971491e-02;stroke-linecap:round;stroke-linejoin:round;stroke-miterlimit:10;}
	.st93{fill:none;stroke:#929497;stroke-width:3.485746e-02;stroke-linecap:round;stroke-linejoin:round;stroke-miterlimit:10;}
	
		.st94{opacity:0.5098;fill:none;stroke:#B7B7B7;stroke-width:3.651847e-02;stroke-linecap:round;stroke-linejoin:round;stroke-miterlimit:10;}
	
		.st95{opacity:0.498;fill:none;stroke:#B7B7B7;stroke-width:3.651847e-02;stroke-linecap:round;stroke-linejoin:round;stroke-miterlimit:10;}
	.st96{fill:none;stroke:#979797;stroke-width:0.1461;stroke-linecap:round;stroke-linejoin:round;stroke-miterlimit:10;}
	.st97{fill:none;stroke:#979797;stroke-width:7.303695e-02;stroke-linecap:round;stroke-linejoin:round;stroke-miterlimit:10;}
	.st98{fill:none;stroke:#979797;stroke-width:0.1826;stroke-linecap:round;stroke-linejoin:round;stroke-miterlimit:10;}
	.st99{fill:none;stroke:#9FA7AA;stroke-width:0.1096;stroke-linecap:round;stroke-linejoin:round;stroke-miterlimit:10;}
	.st100{fill:none;stroke:#242424;stroke-width:0.1826;stroke-linecap:round;stroke-linejoin:round;stroke-miterlimit:10;}
	.st101{fill:none;stroke:#847F7B;stroke-width:0.2827;stroke-miterlimit:10;}
	.st102{fill:none;stroke:#9FA7AA;stroke-width:0.2556;stroke-linecap:round;stroke-linejoin:round;stroke-miterlimit:10;}
	.st103{fill:none;stroke:#929497;stroke-width:0.1461;stroke-linecap:round;stroke-linejoin:round;stroke-miterlimit:10;}
	.st104{fill:none;stroke:#94A294;stroke-width:7.303695e-02;stroke-linecap:round;stroke-linejoin:round;stroke-miterlimit:10;}
	.st105{fill:none;stroke:#929497;stroke-width:3.651847e-02;stroke-linecap:round;stroke-linejoin:round;stroke-miterlimit:10;}
	
		.st106{opacity:0.5098;fill:none;stroke:#B7B7B7;stroke-width:4.111075e-02;stroke-linecap:round;stroke-linejoin:round;stroke-miterlimit:10;}
	
		.st107{opacity:0.498;fill:none;stroke:#B7B7B7;stroke-width:4.111075e-02;stroke-linecap:round;stroke-linejoin:round;stroke-miterlimit:10;}
	.st108{fill:none;stroke:#979797;stroke-width:0.1644;stroke-linecap:round;stroke-linejoin:round;stroke-miterlimit:10;}
	.st109{fill:none;stroke:#9FA7AA;stroke-width:0.1233;stroke-linecap:round;stroke-linejoin:round;stroke-miterlimit:10;}
	.st110{fill:none;stroke:#242424;stroke-width:0.2056;stroke-linecap:round;stroke-linejoin:round;stroke-miterlimit:10;}
	.st111{fill:none;stroke:#979797;stroke-width:0.2056;stroke-linecap:round;stroke-linejoin:round;stroke-miterlimit:10;}
	.st112{fill:none;stroke:#979797;stroke-width:8.222150e-02;stroke-linecap:round;stroke-linejoin:round;stroke-miterlimit:10;}
	.st113{fill:none;stroke:#9FA7AA;stroke-width:0.2878;stroke-linecap:round;stroke-linejoin:round;stroke-miterlimit:10;}
	.st114{fill:none;stroke:#847F7B;stroke-width:0.247;stroke-miterlimit:10;}
	.st115{fill:none;stroke:#929497;stroke-width:4.111075e-02;stroke-linecap:round;stroke-linejoin:round;stroke-miterlimit:10;}
	.st116{fill:none;stroke:#929497;stroke-width:0.1644;stroke-linecap:round;stroke-linejoin:round;stroke-miterlimit:10;}
	.st117{fill:none;stroke:#94A294;stroke-width:8.222150e-02;stroke-linecap:round;stroke-linejoin:round;stroke-miterlimit:10;}
	.st118{fill:none;stroke:#F4F1EF;stroke-width:0.5458;stroke-miterlimit:10;}
	.st119{clip-path:url(#SVGID_00000163041715370303739780000002295855508435744669_);}
	.st120{fill:url(#SVGID_00000170963356526322929270000004508289362402760887_);}
	.st121{fill:none;stroke:#F2EDE9;stroke-width:0.3808;stroke-miterlimit:10;}
	.st122{fill:#D1CFCE;}
	.st123{fill:#C1BEBD;}
	.st124{fill:#A7A3A1;}
	.st125{fill:#E1E0DF;}
	.st126{fill:#B5B2B0;}
	.st127{fill:#999492;}
	.st128{fill:#E8E7E7;}
	.st129{fill:#E0DFDF;}
	.st130{fill:#D3D2D1;}
	.st131{fill:#F0F0F0;}
	.st132{fill:#DAD9D9;}
	.st133{fill:#CCCBCA;}
	.st134{fill:url(#SVGID_00000136394953194468669170000002509040846832998557_);}
	.st135{clip-path:url(#SVGID_00000165193224395712928580000015754076005174102675_);}
	.st136{clip-path:url(#SVGID_00000125588865297073620600000000706735475403684766_);}
	.st137{fill:#FDFCFB;}
	.st138{fill:#F8F5F3;}
	.st139{fill:#F7F4F1;}
	.st140{fill:#FAF8F7;}
	.st141{fill:#F9F7F5;}
	.st142{fill:#F6F2EF;}
	.st143{clip-path:url(#SVGID_00000175323987630659900400000009075782056496477608_);}
	.st144{fill:#E9E8E7;}
	.st145{fill:#D4D2D1;}
	.st146{fill:#DBD9D9;}
	.st147{fill:#CDCBCA;}
	.st148{fill:url(#SVGID_00000057131033899489185170000018217491192291305124_);}
	.st149{fill:url(#SVGID_00000146485034504430863660000016143474152172109242_);}
	.st150{fill:url(#SVGID_00000108297869810431029130000000209092175185666456_);}
	.st151{opacity:0.83;clip-path:url(#SVGID_00000098193023642987814100000004457969670009247370_);fill:#F2EDE9;}
	.st152{clip-path:url(#SVGID_00000124846094907907775690000013729964965030375050_);}
	.st153{fill:url(#SVGID_00000142149805907895191560000008166339037282402238_);}
	.st154{fill:url(#SVGID_00000176740251308143517780000014422505241391295125_);}
	.st155{clip-path:url(#SVGID_00000180347792480205198970000017657733901441761684_);}
	.st156{clip-path:url(#SVGID_00000016791833933953838230000008198318025526050745_);}
	.st157{clip-path:url(#SVGID_00000042736645138779921540000017695658574537955002_);}
	.st158{clip-path:url(#SVGID_00000183251196026644515320000007425519605535131570_);}
</style>
<g>
	<g>
		<g>
			<g>
				<g class="st23">
					<g class="st23">
						<g>
							<path class="st47" d="M4.6,115.8c0.1-0.1,0.2-0.5,0.3-0.3l0,1.5C4.7,116.9,4.5,116.6,4.6,115.8z"/>
						</g>
						<g>
							<path class="st47" d="M1.7,108.5c0-0.7,0-1.3,0-2c0-0.4,0-0.9,0.1-1.3l0-0.3c0-0.6,0-1.2,0.1-1.8c0-0.4,0-0.9,0-1.3
								c0,0,0-0.1,0.1-0.2c0-0.4,0-0.8,0-1.3c0-0.1,0.1-0.3,0.1-0.4c0-0.2-0.1-0.5-0.1-0.7c0-0.4,0-0.9,0-1.3c0,0,0,0,0,0l0-3.1
								c0-1.7,0.1-3.4,0.1-5.1l0.1,0c0-0.3,0-0.7,0-1.1l-0.1,0c0-0.9,0-1.9,0-2.9c0-0.4,0-0.8,0-1.1c0.2-1,0-0.8,0-1.1
								C1.9,83.2,2,82.8,2,82.4c0-0.2,0-0.3,0-0.5c0-0.4,0.1-0.7,0.1-1.1c0-2.3,0.1-3.6,0.1-5.6c0-1.2-0.1-3.7,0.2-4.5
								c-0.1-0.8-0.1-1.6-0.1-2.4c0.1,0.1,0.1-0.6,0.1-0.9c0-0.2,0-0.5,0-0.7c0-0.4,0-0.7,0-1.1c0-0.3,0-0.7,0-1.1l0-3.6
								c0-0.4,0-0.8,0.1-1.2c0-0.4,0-0.9,0-1.3c0-0.4,0-0.8,0-1.2c0-0.5-0.1-0.9-0.1-1.3c0-0.1,0-0.1,0-0.2c0-0.5,0-1.1,0-1.6
								c0-0.6,0-1.2,0-1.8c0-0.4,0-0.7,0.1-1.1c-0.2-0.5-0.1-1.3-0.1-1.8l0-3.1c-0.1-0.4-0.1-0.8-0.2-1.1C2.3,45.1,2.4,45,2.4,45
								c0-1,0-1.9,0-2.9c-0.1,0-0.2,0-0.3,0c-0.1-0.7-0.2-0.9-0.3-1.1c0-0.4,0-0.8,0-1.3c0.1-1.3,0.2-2.1,0-2.5c0-0.9,0-1.7-0.1-2.6
								c0.1-1.2,0.1-2,0-2c0-0.3,0-0.5,0-0.8l0-1.8c0.1-1.1,0-1.3-0.1-1.4c0-0.5,0-1,0-1.4c0-0.6,0-1.2,0-1.8c0.1-1-0.1-0.8-0.1-1.5
								c0-0.3,0.1-0.7,0.1-1.1l0-0.3c-0.2-0.4-0.1-1.1-0.1-1.5l0-0.3c-0.2-0.3-0.1-0.8-0.1-1.1c-0.1-0.1-0.1-0.3-0.2-0.4
								c0-0.5,0.1-0.9,0.1-1.4c0-0.4,0-0.7,0-1.1c-0.1-0.1-0.1-0.3-0.2-0.4c0-0.4,0.1-0.7,0.1-1.1c0-0.7,0-1.3,0.1-2
								C1.7,13.1,1.8,13,1.9,13c0,0.3,0.1,0.6,0.1,0.9C2,14,2,14,2,14.1c-0.1,0.1-0.2,0.2-0.3,0.3c0,0.3,0,0.6,0,1.1
								c0.1,0.5,0,1.1,0.1,1.5c0,0.3-0.1,0.7-0.1,1.1c0,0.4,0,0.8,0,1.3c0,0.2,0.1,0.5,0.1,0.7C2.1,20.4,2,20.9,2,21.3
								c0,0,0.1,0,0.1,0c0,0.1,0,0.2,0,0.4c0,0.5,0,1-0.1,1.6c0,0.7,0.1,1,0.2,1.3c0,0.4,0,0.8,0,1.1c0,0.2,0,0.5-0.1,0.7
								c0,0.2,0.1,0.3,0.1,0.4c0,1.1-0.1,2.2-0.1,3.2c0.1,0.3,0.1,0.5,0.2,0.8c0,0.5-0.1,0.9-0.1,1.4c0,0.5,0,0.9,0,1.4l0,0.6l0.1,0
								c0,0.5,0,1.1-0.1,1.6l-0.1,0c-0.1,1,0.1,1,0.1,1.6c0,0.4,0,0.9,0,1.3c0.2-0.3,0.3-1.2,0.2-1.6c0-0.1,0-0.3,0-0.4
								c0.1-0.4,0.1-0.7,0.2-1.1c0.3,1.3,0.1,2.4,0.2,3.5c0,1.2,0.4,1.4,0.2,2.6c-0.1,1-0.1,1.6,0.1,1.8c0,1.1,0,2.2,0,3.2
								c-0.2,0.2,0,0.6-0.1,1.1C3.6,50,3,51.9,3.4,54c-0.1,0.9,0,1.4,0,2.2c0,0.6,0,1.2-0.1,1.8c0.3,1-0.2,1.9-0.1,3.2
								c0,0.6,0,1.1-0.1,1.6c0,0.8,0.2,1.9,0,2c0,0.7-0.2,0.8-0.2,1.8c0.1,1,0,2.5,0.2,3.1c-0.2,1.3,0.1,3.7-0.1,5
								c0.2,1.1,0,2.9,0,4.3l0,0.9C3,80,3,80.5,3,80.7c0,0.3,0,0.6,0,0.8c0.1,0,0,0.5-0.2,1c0,0,0,0,0,0c-0.1-0.3-0.1-0.6-0.2-0.9
								c-0.1,0.5-0.1,0.8-0.2,1.2L2.6,83c0,0.3,0.1,0.6,0.1,0.9c-0.1,0.2-0.1,0.5-0.2,0.7c-0.1,0.9,0.2,0.5,0.2,1.1
								c-0.1,0.5-0.2,1.1-0.3,1.6c0.1,1.2-0.2,2.2,0,3.2c-0.1,0.1-0.2,0.2-0.2,0.3c0,0.4,0,0.7,0,1.1c0,0.6,0,1.2-0.1,1.8
								c0.1,0.4,0.2,1.4,0,1.4l0,1.8c0.1,0.4,0.1,0.7,0.2,1.1c0.2-0.2,0.3,0.6,0.2,1.1c-0.1,0.1-0.1,0.2-0.2,0.3
								c0,0.3,0.1,0.5,0.1,0.8c0,0.2-0.1,0.5-0.1,0.7c0,0.2,0,0.5,0,0.7c0,0.4,0,0.7,0,1.1c0,0.9,0.1,1.1,0.1,1.5c0.1,0,0.1,0,0.2,0
								c0.1,0.3,0.1,0.5,0.2,0.7c0,1-0.1,1.7-0.1,2.5c-0.1,1.2-0.3,0.7-0.5,0.8l0,0.9c-0.1,0.1-0.2,0.3-0.3,0.5
								C1.7,110,1.7,109.2,1.7,108.5z"/>
						</g>
						<g>
							<path class="st47" d="M5.4,103.8c-0.1-0.7-0.1-1.1,0.1-1.4C5.6,103,5.7,103.8,5.4,103.8z"/>
						</g>
						<g>
							<path class="st48" d="M4.4,100c0-0.2-0.1-0.4-0.1-0.5c0.1-1.4-0.1-2.7,0-4.1c-0.3-0.6-0.4,0.4-0.6,0.1
								c-0.1-0.2,0-0.7-0.1-1.1c0,0,0,0,0,0c-0.3-0.4-0.3-0.4-0.4-0.4C3.1,93.4,3,93,3,92.5c0.1-0.3,0.2-0.7,0.3-1
								c0.2,0.2,0.1,1.1,0.3,1.1c0,0.3,0.1,0.5,0.1,0.8c0.2-1.2,0.2-2.3,0.2-3.2C4,89.9,4,89.6,4.1,89.4c0.1,0.1,0.1,0.2,0.2,0.4
								c0,0.2,0,0.5,0,0.7l0,2.2c0,0.3,0,0.6,0,0.9c0.1,0.2,0.2,0.3,0.3,0.4c0,0.4,0.1,0.7,0.1,1.1c0,0.4-0.1,0.8-0.1,1.2
								c0,0.6,0,1,0.1,1.5l0,0.3c0,0.6-0.1,1.2-0.1,1.8C4.5,100,4.4,100,4.4,100z"/>
						</g>
						<g>
							<path class="st49" d="M4.8,110.2c0-0.8-0.1-1.7-0.1-2.5c0-0.7,0-1.3-0.1-2l0-0.3c0.1-0.2,0.2-0.3,0.3-0.5
								c0-0.8-0.2-0.4-0.3-0.9c0-0.6,0-1.3,0-2c0-0.3,0-0.6,0.1-0.9c0.1-0.1,0.2-0.3,0.3-0.5c0-0.9,0-1.9-0.2-2.2l0-0.3
								c0-0.5-0.1-0.9-0.1-1.5c0-0.4,0.1-0.8,0.1-1.2c0-0.4-0.1-0.7-0.1-1.1c0-0.4,0-0.8,0-1.3c-0.1-0.3-0.2-0.3-0.3-0.1l0-2.2
								l0.5,0.1c0.3-1.3,0-3.1,0.2-4.9c0.2-1.9-0.1-3.6,0.2-5.2c0.1,2.9,0,5.7,0.2,7.8c0,0,0,0,0,0c0,1.3-0.1,2.7-0.1,4.2
								c0.1,0.8,0.2,1.6-0.1,1.8l0,0.9c0,0.1,0,0.2,0,0.3c0,0.4,0,0.9-0.1,1.3c0.1,0,0.2,0,0.2,0c0.1,1,0.1,1.3,0.2,1.7
								c0,1.3,0,2.5,0,3.8c-0.1,0.3-0.2,0.7-0.1,1.4c-0.1,2.5-0.2,5.1-0.3,7.6C5,110.9,4.9,110.6,4.8,110.2z"/>
						</g>
						<g>
							<path class="st50" d="M5.5,98.5c-0.1-0.3-0.1-0.6-0.2-1.7c-0.1,0-0.1,0-0.2,0c0-0.4,0-0.8,0.1-1.3c0-0.1,0-0.2,0-0.3l0-0.9
								c0.2-0.2,0.1-1,0.1-1.8c0-1.5,0.1-2.9,0.1-4.2c0,0,0,0,0,0c-0.2-2.1,0-4.9-0.2-7.8c-0.2,1.6,0,3.3-0.2,5.2
								c-0.2,1.8,0.1,3.5-0.2,4.9l-0.5-0.1c0-0.2,0-0.5,0-0.7c0.1-0.3,0.1-0.6,0.1-0.9c0-0.6-0.1-0.2-0.2-0.6c0-0.5,0-0.9,0-1.4
								c0-1,0-2,0-3.1c-0.1-0.5,0-1.3,0-2c0-0.4,0.1-0.7,0.1-1c0.1-0.9,0.2-1.3,0.1-1.6c0-0.3,0.1-0.7,0.1-1c0-0.3-0.1-0.5-0.1-0.8
								c0-0.4,0.1-0.8,0.1-1.2c0-0.5-0.1-1-0.1-1.5c0-0.4,0-0.9,0.1-1.4l0-0.9c0.3-0.5-0.1-0.7,0-1.8c0,0-0.1-0.1-0.1-0.2
								c-0.2-0.7,0-1.6-0.1-2.2c0.1-0.4,0.1-0.7,0.2-1.1c0-0.4,0-0.7,0.1-1.1c0-0.5,0-1.1-0.1-1.6c0-0.1,0-0.1,0-0.2
								c0-0.7,0-1.3,0.1-2c0-1.2-0.1-1.3-0.2-2c0.1-1,0-1.2,0-1.7c0.1-1,0.1-1.3,0.1-1.6c0-0.8,0-1.7,0-2.5c0-0.2-0.1-0.4-0.1-0.7
								c0-0.2,0-0.3,0-0.4c0-0.3,0-0.7,0.1-1.1c0-0.4,0.2-1.3,0.1-2c0-0.8,0-1.5,0.1-2.2c-0.1-0.8-0.1-1.4-0.1-2.2
								c0-0.5-0.1-1.1-0.1-1.6c0.1-1.7-0.1-2.1-0.1-3.3l-0.1-1.8c0-0.6,0-1.1-0.1-1.6c0.1-0.2,0-0.7,0-1.1c0.2-2.2,0.1-3.3-0.1-4.4
								c0-0.6-0.1-1.2-0.1-1.8c0-0.4,0-0.8,0-1.1c0.1-1,0.1-1.1,0-1.5l-0.1,0c0-0.5,0-1.1,0-1.6c0,0,0-0.1,0-0.2c0-0.3,0-0.7,0.1-1
								c0-0.2,0-0.3,0-0.4c0-0.4,0-0.9,0-1.3c0-0.2,0-0.5,0.1-0.7c0-0.3,0-0.7,0-1.1l0-2.1c0.1,1,0.3,1.6,0.1,2.2c0,0.4,0,0.8,0,1.1
								c0.1,0.7,0.1,1.5,0,2.2L4.4,25c0,0.3,0,0.5,0,0.8c0.2,0.2,0.2,0.7,0.2,1.1c0,0.2,0.1,0.3,0.1,0.4c0,0.4,0,0.8,0.1,1.3
								c-0.1,0.3-0.2,0.5-0.2,1c0.2,0.1,0.7-0.2,0.6,1.2c-0.1,1.4,0.1,3,0,4.5c0.1,0.5,0.2,0.8,0.2,1.7c-0.1-0.1-0.1,0.4-0.1,0.7
								c0,0.9,0.1,1,0.1,2c0,0.1,0,0.2-0.1,0.4c0.1,0.6,0.2,0.5,0.2,0.9c0.1-0.8,0.1-1,0.1-1.3l0-0.3c0-0.4,0.1-0.7,0.1-1.1
								c0,0.4,0,0.7,0,1.1c0.1,0.1,0.2,0.3,0.3,0.4l0,0.6c-0.1,1-0.2,1.6-0.3,2.1c0,0.2,0,0.3,0,0.4c0.1,0.4,0.1,0.7,0.2,1.1
								c0,0.1,0,0.2,0,0.3l0.1,0.9c0,0.4,0,0.8,0,1.1c0,0.1,0,0.1,0,0.2c0,0.4,0,0.7,0,1.1c0,0.3-0.1,0.6-0.1,0.9
								c-0.1,0-0.2,0-0.3,0c0,0.1-0.1,0.2-0.1,0.3c0,0.1,0,0.2,0,0.2c0.1,0.6,0.2,1.2,0.3,1.9c0,0,0.1-0.1,0.1-0.2
								c0,0.7,0,1.5-0.1,2.2c0,0.4,0.1,0.7,0.1,1.1c0,0.6-0.1,1.3-0.1,2c0.1,1.4,0.2,2.4,0,3.1c0,0.7,0,1.3-0.1,2c0,0.2,0,0.4,0,0.5
								c0,0.3,0,0.5,0,0.8c0,0.3-0.1,0.6-0.1,0.9c0.1,0.3,0.1,0.6,0.2,0.8c0,0.5,0,1.1-0.1,1.6c0,1.9,0,3.7,0,5.6
								c0,0.6,0.2,1,0.2,1.7c0,0.1,0,0.2,0,0.4c-0.1,0.3-0.1,0.7-0.2,1c0,0.9,0,1.7,0,2.5c0,0.6,0,1.1,0,1.7c0,0.2,0,0.5,0,0.7
								c-0.1,4.5-0.1,9-0.2,13.6c-0.3,0.9-0.1,0.8,0,1.1c0,1.1-0.1,2.1-0.1,3.2C5.5,97.4,5.5,98,5.5,98.5z"/>
						</g>
						<g>
							<path class="st47" d="M4.4,93.6c0-0.3,0-0.6,0-0.9c0.1-0.3,0.2-0.2,0.3,0.1c0,0.5,0,0.9,0,1.3C4.6,93.9,4.5,93.8,4.4,93.6z"
								/>
						</g>
						<g>
							<path class="st51" d="M2.4,104.4c0-0.3-0.1-0.5-0.1-1.5c0-0.4,0-0.7,0-1.1c0-0.2,0-0.5,0-0.7c0-0.1-0.1-0.1-0.1-0.2
								c0.1-0.2,0.2-0.4,0.2-0.5c0-0.3-0.1-0.5-0.1-0.8c0.1-0.1,0.1-0.2,0.2-0.3c0.1-0.6,0-1.4-0.2-1.1c-0.1-0.4-0.1-0.7-0.2-1.1
								l0-1.8c0.2,0,0.2-1.1,0-1.4c0-0.6,0-1.2,0.1-1.8c0-0.4,0-0.7,0-1.1c0.1-0.1,0.2-0.2,0.2-0.3c-0.1-1.1,0.1-2,0-3.2
								c0.1-0.5,0.2-1.1,0.3-1.6c0-0.6-0.3-0.2-0.2-1.1c0.1-0.2,0.1-0.5,0.2-0.7c0-0.3-0.1-0.6-0.1-0.9l-0.1-0.2c0-0.1,0-0.2,0-0.4
								c0.1-0.3,0.2-0.5,0.3-0.9c0.1,0.3,0.2,0.6,0.2,0.9c0.2-0.5,0.2-1.1,0.2-1C3,81.3,3,81,3,80.7C3,80.5,3,80,3.1,80l0-0.9
								c0-1.4,0.1-3.3,0-4.3c0.3-1.4,0-3.8,0.1-5c-0.2-0.7,0-2.1-0.2-3.1c-0.1-1,0.2-1.1,0.2-1.8c0.2-0.1,0-1.2,0-2
								c0-0.5,0-1,0.1-1.6C3.1,59.9,3.6,59,3.3,58c0-0.6,0-1.2,0.1-1.8c-0.1-0.8-0.2-1.3,0-2.2C3,51.9,3.6,50,3.2,48
								c0-0.4-0.1-0.8,0.1-1.1c0-1.1,0-2.2,0-3.2c-0.2-0.2-0.2-0.8-0.1-1.8C3.4,40.6,3,40.4,3,39.2c-0.1-1.1,0.1-2.1-0.2-3.5
								c-0.1,0.4-0.1,0.7-0.2,1.1c0,0.1,0,0.2,0,0.4c0.2,0.4,0.1,1.3-0.2,1.6c0-0.4,0-0.9,0-1.3c0-0.5-0.1-1.1-0.1-1.6l0.1,0
								c0-0.5,0-1.1,0.1-1.6l-0.1,0l0-0.6c0-0.3,0-0.7,0-1.1c0-0.2,0-0.3,0-0.4c0-0.5,0.1-1,0.1-1.4c-0.1-0.2-0.1-0.3-0.2-0.4
								c0-0.1,0-0.2,0-0.4c0-1.1,0.1-2.1,0.1-3.2c0-0.1-0.1-0.2-0.1-0.4c0-0.2,0-0.5,0.1-0.7c0,0,0.1,0,0.1,0
								c0.1-0.2,0.1-0.5,0.2-0.7c0.1,0.2,0.1,0.4,0.2,0.6C3,26.7,3.2,27.9,3.3,29c-0.2,0.4-0.1,1-0.1,2c0,0,0.1,0,0.1,0
								c0,0.9,0,1.9,0.1,2.9c-0.1,0.6,0.1,0.5,0.2,0.8c0,0.3,0,0.6,0,0.9c0.1,0.8,0.2,1.7,0.3,2.4c-0.1,4.2,0,7.6,0.1,11.6
								c0,1-0.2,1,0,2.5c0,0.4,0,0.9,0,1.3c-0.1,1.5-0.1,2.4-0.2,3.1c0.1,1,0.2,0.8,0.2,1.1c0,0.3,0,0.5,0,0.8c-0.1,1,0,1.2,0,1.6
								c-0.1,1,0,1.1,0,1.4c0,0.1,0,0.1,0,0.2c0,0.7,0,1.4,0,2.2c0,0.2,0,0.3,0,0.5c-0.1,0.5-0.1,1.1-0.2,1.6c0,0.7,0,1.5,0,2.2
								l0,0.9c0,0,0,0,0,0c-0.1,1.9,0,4.4-0.2,5.9c0.1,1,0,2.1,0,2.9c-0.2,0.2-0.1,0.9-0.2,1.4c0,0.4,0,0.7-0.1,1.1
								c-0.1,1.2,0,2.8-0.2,3.6c0.1,0.6,0.1,1.2,0.2,1.8c0,0.1-0.1,0.2-0.1,0.4c0,0.5,0,0.7,0,0.9c-0.1,0-0.2-0.2-0.2,0.1
								c0,0.9,0.1,1.2,0.3,1.9c0,0.4-0.1,0.7-0.1,1.1c0,0.3,0,0.6,0,0.9c0.1,0.2,0.1,0.4,0.2,0.6c-0.1,0.3-0.2,0.7-0.3,1
								c0,0.5,0.1,0.9,0.1,1.3c0,0.4,0,0.9,0,1.3l0,0.3l0,1.5C3.1,97.1,3,97.4,3,97.6c0,0.9,0.2,1.8,0,2.7c0,0.8-0.1,1.7-0.1,2.5
								c0,0.6-0.2,1-0.3,1.6C2.5,104.4,2.5,104.4,2.4,104.4z"/>
						</g>
						<g>
							<path class="st52" d="M3.6,92.6c0-0.3,0-0.6,0.1-0.9c0.1-0.6-0.1-0.7-0.2-0.9c0-0.3,0-0.7,0.1-1c-0.1-0.3-0.1-0.5-0.2-0.8
								c0,0-0.1,0-0.1,0C3,88.3,2.9,88,2.9,87.1c0-0.3,0.1-0.1,0.2-0.1c0-0.2,0-0.4,0-0.9c0.1-0.1,0.1-0.3,0.1-0.4
								c-0.1-0.6-0.1-1.2-0.2-1.8c0.2-0.8,0.1-2.4,0.2-3.6c0-0.4,0-0.7,0.1-1.1c0.1-0.5,0-1.2,0.2-1.4c0-0.8,0.1-1.9,0-2.9
								c0.1-1.5,0-4.1,0.2-5.9c0,0,0,0,0,0l0-0.9c0-0.7,0-1.5,0-2.2c0-0.5,0.1-1.1,0.2-1.6c0-0.2,0-0.4,0-0.5c0-0.8,0-1.5,0-2.2
								c0-0.1,0-0.1,0-0.2c0-0.3-0.1-0.4,0-1.4c0-0.4-0.1-0.6,0-1.6c0-0.3,0-0.5,0-0.8c0-0.3-0.2-0.1-0.2-1.1
								c0.1-0.7,0.1-1.6,0.2-3.1c0-0.4,0-0.9,0-1.3c-0.2-1.5,0-1.5,0-2.5c-0.1-4-0.2-7.4-0.1-11.6c-0.1-0.7-0.2-1.6-0.3-2.4
								c0-0.3,0-0.6,0-0.9c-0.1-0.3-0.3-0.2-0.2-0.8c0-1,0-1.9-0.1-2.9c0,0-0.1,0-0.1,0c0.1-1-0.1-1.6,0.1-2c0-1.1-0.3-2.2-0.4-3.3
								c-0.1-0.2-0.1-0.4-0.2-0.6c-0.1,0.2-0.1,0.5-0.2,0.7c0,0-0.1,0-0.1,0c0-0.3,0-0.7,0-1.1c-0.1-0.2-0.3-0.5-0.2-1.3
								c0-0.6,0-1.1,0.1-1.6c0-0.1,0-0.3,0-0.4c0-0.3,0-0.6,0.1-0.9C2.2,19.3,2,18.4,2,17c0-1,0-2,0-2.9C2,14,2,14,2,13.9
								c0,0,0.1,0,0.1,0c0,0.4,0.1,0.7,0.1,1.1c0,0,0.1,0.6,0.2,0.4c0-1.4,0.3-1.6,0.2-2.7c0-0.3,0-0.5,0-0.8l0.3-1.8l0.1,2.4
								c0,1.6,0.1,3.6-0.1,5c0,0.9,0.3,1.1,0.2,1.8c0.1,1.1,0.3,2.2,0.3,3.3c0.1,0.2,0.2,0.4,0.2,0.6c0,0.4,0,0.8,0,1.3
								c0,0,0,0.1,0,0.2l-0.3,1.4l0.3,0.6c0.1-0.3,0.1-0.7,0.2-1.1c0,0,0.1,0,0.1,0c0,0.1,0,0.2,0,0.2c0,0.6,0,1.1,0,1.6
								C4,28,4,28.5,4,28.9c0,0,0.1,0.1,0.1,0.2c0,0.3,0,0.7,0,1.1c0,0.6,0.1,1.2,0.1,1.8c0.1,1,0.2,2.2,0.1,4.4c0,0.4,0,0.9,0,1.1
								c0,0.5,0,1.1,0.1,1.6c0,0.6,0,1.2-0.1,1.8c0,1.1,0.1,2.2,0.1,3.3c0,0.3,0,0.6-0.1,0.9c-0.1,0.5,0.1,0.7,0.1,1.1
								c0,1.3,0,2.6,0,4c0,1,0,2,0.1,3.1c0,0,0,0,0,0c0,0.1,0,0.2,0,0.4c0,0.3-0.1,0.7-0.1,1.1c0,0.7-0.1,1.5,0,2.2
								c0,0.1-0.1,0.2-0.1,0.4l0.1,1.3c0,0.3,0,0.6-0.1,0.9c0,0.3,0.1,0.4,0.1,0.8c0,0.3-0.1,0.6-0.1,0.9c0,0.3,0,0.6,0,0.9
								c0,0.6,0,1.2-0.1,1.8c0,0.3,0,0.7,0,1.1l0.1,0c0,0.4,0,0.8,0,1.1c0,0,0,0,0,0c0,0.4,0,0.7,0,1.1c0,0.4,0,0.7,0,1.1
								c0,0.5-0.1,1.5,0.1,2.2c-0.1,0.4-0.1,0.8-0.2,1.3c0.1,0.5,0,1.2,0.1,1.6c-0.1,0.2-0.1,0.5-0.2,0.7c0,0.3,0.1,0.5,0.1,0.7
								c0,0.6,0,1.1-0.1,1.7c0,0,0,0,0,0c0,0.3,0,0.7,0,1.1c0,0.6,0,1.2,0,1.8l-0.1,0c-0.2-1-0.2-1.9-0.2-2.9l-0.1,0
								c-0.2,1.6,0,3-0.2,3.6c-0.1,1.5-0.1,3.8,0,5.4c-0.1,0.2-0.1,0.5-0.2,0.7c0,0.2,0,0.3,0,0.5c0,0.4,0,0.7-0.1,1.1
								c0.1,0,0.1,0,0.2,0C3.9,88,4,88.5,4.1,88.9c0.1-0.2,0.1-0.4,0.1-0.5c0,0.4,0.2,0,0.2,0.6c0,0.3-0.1,0.6-0.1,0.9
								c-0.1-0.2-0.1-0.3-0.2-0.4C4,89.6,4,89.9,3.9,90.1c0,1,0,2.1-0.2,3.2C3.6,93.1,3.6,92.9,3.6,92.6z"/>
						</g>
						<g>
							<path class="st47" d="M3.1,90.9c0-0.3,0-0.6,0-0.9c0-0.3,0.1-0.7,0.1-1.1c0,0,0.1,0,0.1,0c0.1,0.3,0.1,0.5,0.2,0.8
								c0,0.3,0,0.7-0.1,1c0,0.3-0.1,0.5-0.1,0.7C3.3,91.3,3.2,91.1,3.1,90.9z"/>
						</g>
						<g>
							<path class="st47" d="M6.1,33.8c0-0.2,0-0.5,0-0.7c0-0.7,0-1.5,0.1-2.2c0,0,0.1,0,0.1,0c0-0.5,0-1.1,0-1.6
								c0-0.1,0.1-0.2,0.1-0.4c0.2,0.4,0.2,1.5,0,2c0,0.1,0.1,0.1,0.1,0.2c0,0.9-0.1,1.8-0.1,2.7c0,0.7,0,1.3-0.1,2
								c-0.1,0-0.2,0.1-0.3,0.1C6.1,35.2,6.1,34.5,6.1,33.8z"/>
						</g>
						<g>
							<path class="st49" d="M2.2,9.4c-0.4,0.2,0-2.6-0.5-1.9C1.6,7.6,1.5,7.6,1.4,7.7c-0.1,0-0.1,0-0.2,0c0-0.4,0-0.7,0-1.1
								C1.2,6.4,1.1,6.3,1.1,6.2C1,5.7,1,5.2,0.9,4.7c0.2-0.5,0.3-0.5,0.4-0.5c0,0.3,0.1,0.6,0.1,0.9C1.5,5.1,1.6,5,1.7,5
								c0,0,0,0,0,0C1.9,5,1.9,5,2,5c0-0.4,0-0.9,0-1.3c0,0,0.1-0.1,0.1-0.1c0.1-0.1,0.2-0.2,0.4-0.3c0,0.6,0,1.2,0,1.8
								c0,0,0,0.1,0,0.2l-0.2,0c0,0.2-0.1,0.3-0.1,0.5c0.1,0.5,0.1,1,0.2,1.5C2.6,7.2,2.7,7.1,2.9,7c0,0,0,0,0,0
								C3,7,3.1,7.1,3.1,7.2c0-0.2,0.1-0.4,0.1-0.5c0.1,0,0.2-0.1,0.3-0.1c0,0,0,0,0,0c0,0.3,0.1,0.7,0.1,1.1c0,0.7-0.2,0.9-0.3,1
								l-0.2,0C3.1,8.7,3,8.7,3,8.8C2.9,8.6,2.8,8.4,2.7,8.2c-0.1,0-0.1,0.1-0.2,0.1c0,0-0.1-0.1-0.1-0.2C2.4,8.6,2.3,9,2.2,9.4z"/>
						</g>
						<g>
							<path class="st47" d="M0.8,7C0.9,6.7,1,6.5,1.1,6.2c0.1,0.1,0.1,0.2,0.2,0.4c0,0.4,0,0.7,0,1.1C1.2,7.7,1.1,7.8,1,8
								C1,7.6,0.9,7.3,0.8,7z"/>
						</g>
						<g>
							<path class="st47" d="M3.3,1.1C3.1,1.3,3,1.5,2.8,1.7l-0.1,0c0-0.1-0.1-0.2-0.1-0.2c-0.2,0-0.4,0-0.6,0.1
								C1.8,1.8,1.6,2.2,1.6,1.5l0-0.6c0.1,0,0.2,0,0.3,0c0.2-0.4,0.4-1.3,0.6-0.2c0.3-0.8,0.6-1.2,0.8-0.1c0.2,0.2,0.3,0.4,0.5,0.6
								l0,0.6c0,0.1-0.1,0.2-0.1,0.3C3.6,1.8,3.4,1.5,3.3,1.1z"/>
						</g>
						<g>
							<path class="st48" d="M2.2,108.5c0.1-0.1,0.4,0.4,0.5-0.8c0,0.6,0,1.2,0,1.8c-0.1,0.6-0.5,0.8-0.5-0.1L2.2,108.5z"/>
						</g>
						<g>
							<path class="st48" d="M4.6,110.2c-0.1-0.1-0.2-0.3-0.3-0.4c-0.3-1.9,0.2-0.8,0.1-2.2l0-0.9c0.1-0.4,0.1-0.7,0.2-1.1
								c0,0.7,0,1.3,0.1,2c0,0.9,0.1,1.7,0.1,2.5C4.7,110.2,4.7,110.2,4.6,110.2z"/>
						</g>
						<g>
							<path class="st48" d="M4.6,103.8c-0.2-0.6-0.5,0-0.4-1.3c0.1-0.5,0.2-0.5,0.3-0.7C4.6,102.5,4.6,103.2,4.6,103.8z"/>
						</g>
						<g>
							<path class="st48" d="M1.6,101.2c0-0.3,0-0.6,0.1-0.9c0-0.4,0-0.8,0-1.1c0-0.4,0-0.7,0-1.1c0,0,0.1-0.1,0.1-0.2c0,0,0,0,0,0
								c0,0.4,0,0.9,0,1.3c0,0.2,0.1,0.5,0.1,0.7c0,0.1-0.1,0.2-0.1,0.4c0,0.4,0,0.8,0,1.3c0,0.1,0,0.1-0.1,0.2
								C1.7,101.6,1.7,101.4,1.6,101.2z"/>
						</g>
						<g>
							<path class="st48" d="M3.6,100.8c-0.1-1.2-0.1-1.9,0-2.1C3.8,99.8,3.8,100.4,3.6,100.8z"/>
						</g>
						<g>
							<path class="st48" d="M5.5,96.9c0-1.1,0.1-2.2,0.1-3.2c0-0.1,0.1-0.3,0.1-0.4c0-0.2-0.1-0.5-0.1-0.7c0.1-4.5,0.1-9,0.2-13.6
								c0.1,0.1,0.2,0.3,0.3,0.4C6,80.7,5.9,82,6.1,83c-0.1,1.2,0.1,2.3,0.1,3.6C6.1,86.7,6,86.5,6,86.8c0,1.3,0.4,2.5,0.1,3.4
								c0,0.6,0.1,1.1,0.1,1.7c0,0.4-0.1,0.8-0.1,1.2c0,0.1-0.1,0.3-0.1,0.4c0,0.4,0,0.8-0.1,1.2c0,0.7,0.2,1.8-0.1,2
								c0,0.3,0.1,0.7,0.1,1.1c-0.1-0.2-0.2,0.5-0.4,0.7C5.5,98,5.5,97.4,5.5,96.9z"/>
						</g>
						<g>
							<path class="st48" d="M1.9,89.8c0-0.3,0-0.7,0-1.1l0.1,0c0,0.4,0,0.8,0,1.1L1.9,89.8z"/>
						</g>
						<g>
							<path class="st48" d="M1.9,85.8c-0.1-0.6-0.2-1,0-1.1C1.9,85.1,1.9,85.5,1.9,85.8z"/>
						</g>
						<g>
							<path class="st48" d="M2,81.9c-0.3-2.4,0-4.2,0-6.2c-0.1-2.4,0-5.7,0-8.1c0.1-0.2,0-0.6,0.1-0.9c0-0.1,0-0.1,0-0.2
								C2,62.6,2.2,59.2,2,55.6c0.1-0.3,0-0.8,0.1-1.2c-0.2-1.3,0-3.4,0-5.1c-0.2-0.6,0-1.9-0.1-2.7c0.1-2-0.2-3.7,0-5.6
								c0,0.2,0.2,0.4,0.3,1.1c0.1,0,0.2,0,0.3,0c0,1,0,1.9,0,2.9c-0.1,0-0.1,0.1-0.2,0.2c0.1,0.4,0.1,0.8,0.2,1.1l0,3.1
								c0,0.6-0.1,1.3,0.1,1.8c0,0.4,0,0.7-0.1,1.1c0,0.6,0,1.2,0,1.8c0,0.5,0,1.1,0,1.6c0,0.1,0,0.1,0,0.2c0,0.4,0.1,0.8,0.1,1.3
								c0,0.4,0,0.8,0,1.2c0,0.4,0,0.9,0,1.3c0,0.4,0,0.8-0.1,1.2l0,3.6c0,0.4,0,0.8,0,1.1c0,0.4,0,0.7,0,1.1c0,0.2,0,0.5,0,0.7
								c-0.1,0.3,0,0.9-0.1,0.9c0,0.8-0.1,1.6,0.1,2.4c-0.3,0.8-0.2,3.2-0.2,4.5c0,2-0.1,3.3-0.1,5.6C2.1,81.2,2.1,81.5,2,81.9z"/>
						</g>
						<g>
							<path class="st48" d="M5.8,76.6c0-0.8,0-1.7,0-2.5c0.1-0.3,0.1-0.7,0.2-1c0.2,0.4,0,1.4,0.2,1.8c0.1,0.5-0.1,1.2-0.1,1.8
								c0,0.5,0,0.9,0,1.3C6,77.9,6,78.2,5.8,78.3C5.8,77.7,5.8,77.2,5.8,76.6z"/>
						</g>
						<g>
							<path class="st48" d="M5.8,65.4c0-0.5,0-1.1,0.1-1.6l0.1-0.6c-0.1-0.9-0.2-0.6-0.2-1.1c0-0.3,0-0.5,0-0.8c0-0.1,0-0.3,0-0.5
								c0-0.7,0-1.3,0.1-2c0.1-0.7,0.1-1.7,0-3.1c0-0.7,0.1-1.3,0.1-2c0-0.4-0.1-0.8-0.1-1.1c0-0.7,0-1.4,0.1-2.2l0-2.1
								c0-0.3,0.1-0.6,0.1-0.9c0-0.4,0-0.7,0-1.1c0-0.1,0-0.1,0-0.2c0-0.3,0-0.7,0-1.1c0.1-0.3,0.2-0.7,0.3-1c0-0.4-0.1-0.7,0-1.1
								l0-1.5c0-0.3,0-0.7,0-1.1C6.1,40.4,6,40.3,6,40.3l0-0.6c0-0.5,0.1-1,0.1-1.6c0-0.7,0-1.3,0-2c0,0,0-0.1,0-0.2
								c0.1-0.1,0.2-0.1,0.3-0.1c0,0.3,0.1,0.7,0.1,1.1c0,0.3,0,0.7-0.1,1c0,0.4,0.1,0.9,0.1,1.3c0.1,0.4,0,0.9,0,1.4
								c0,0.4,0,0.8,0,1.1c0,1.5-0.1,3-0.1,4.5c0,0.1,0,0.2,0,0.4c0,0.6-0.1,1.2-0.1,1.8c0,0.2,0,0.5,0,0.7
								c-0.1,0.9-0.2,1.3-0.1,1.6c0,0.3,0,0.6,0,0.9c-0.1,0.8,0.2,0.3,0.2,0.9c-0.1,0.2-0.1,0.5-0.2,0.7c0,0.6-0.2,1.5,0,1.7
								c-0.1,0.4-0.1,1.3,0,1.8c-0.1,0.7,0,0.8,0.1,1.6c-0.2,0.1-0.2,0.3-0.1,0.9c-0.2,1.3-0.1,2.8-0.1,3.9c0,0.5-0.1,1.3,0,1.5
								c0,1.5-0.1,2.4,0,3.8c0.3-0.4,0.1,1,0.1,1.3C6,70.4,6.2,72,6,72.7c0-0.6-0.2-1-0.2-1.7C5.8,69.2,5.8,67.3,5.8,65.4z"/>
						</g>
						<g>
							<path class="st48" d="M1.8,39.6c-0.1-0.8-0.1-2.1,0-2.5C2,37.5,1.9,38.3,1.8,39.6z"/>
						</g>
						<g>
							<path class="st48" d="M1.8,34.5c-0.1-0.5-0.1-1.6,0-2C1.9,32.5,1.9,33.3,1.8,34.5z"/>
						</g>
						<g>
							<path class="st48" d="M1.8,31.8c-0.1-0.7-0.1-1.3-0.1-1.8c0-0.5,0-0.9,0-1.4c0,0.2,0.2,0.4,0.1,1.4L1.8,31.8z"/>
						</g>
						<g>
							<path class="st48" d="M1.7,27.1c-0.1-0.8-0.1-1.3-0.1-1.8c0-0.5-0.1-1-0.1-1.5c0-0.5,0-1.1-0.1-1.6c0-1.1-0.2-1.7-0.2-3.1
								c0-0.5-0.1-1.1-0.1-1.6c0-0.5,0.1-0.7,0.1-1.2c0.1,0.1,0.1,0.3,0.2,0.4c0,0.4,0,0.7,0,1.1c0,0.5-0.1,0.9-0.1,1.4
								c0.1,0.2,0.1,0.3,0.2,0.4c0,0.3-0.1,0.9,0.1,1.1l0,0.3c0,0.4-0.1,1.1,0.1,1.5l0,0.3c0,0.4-0.1,0.7-0.1,1.1
								c0,0.6,0.1,0.5,0.1,1.5C1.8,25.9,1.7,26.5,1.7,27.1z"/>
						</g>
						<g>
							<path class="st48" d="M1.3,13.1c-0.4-0.1-0.2-1.3-0.2-2c-0.2-0.6-0.1-2-0.3-2c0-0.6,0.1-0.6,0.2-1c0.1-0.1,0.1-0.2,0.2-0.3
								c0,0.8,0.1,1.6,0.1,2.4l0,0.6c0,0,0,0.1,0,0.2c0,0.2,0,0.3,0,0.5C1.4,11.9,1.3,12.5,1.3,13.1z"/>
						</g>
						<g>
							<path class="st48" d="M0.8,7C0.7,7.1,0.6,7.3,0.6,7C0.4,6.8,0.4,6.6,0.3,6.2c0.1-0.6,0.3-0.7,0.5-1.5
								C0.8,4.5,0.7,4.4,0.6,4.3c0.3-0.1,0.2-1.7,0.3-1.8c0,0,0.1,0,0.1,0c0.1-0.3,0.3-0.8,0.3-1c0.1,0,0.2,0,0.3,0
								c0,0.6,0.2,0.3,0.3,0.1c0.2,0,0.4-0.1,0.6-0.1c0,0,0.1,0.1,0.1,0.2C2.7,2.2,2.6,2.8,2.6,3.3C2.4,3.4,2.3,3.5,2.2,3.6
								c0,0-0.1,0.1-0.1,0.1C1.9,3.9,1.8,4.1,1.8,4.3c-0.1,0-0.3,0-0.4-0.1c-0.1,0-0.2,0-0.4,0.5C1,5.2,1,5.7,1.1,6.2
								C1,6.5,0.9,6.7,0.8,7z"/>
						</g>
						<g>
							<path class="st48" d="M4.7,2.4C4.6,2.2,4.5,2,4.5,1.6C4.6,0.9,4.7,0.9,4.9,1C5,1.4,4.9,2,4.8,2.4C4.8,2.4,4.7,2.4,4.7,2.4z"
								/>
						</g>
						<g>
							<path class="st51" d="M4.6,105.3c-0.1-0.4-0.1-1.5,0-1.5c0.1,0.5,0.3,0.1,0.3,0.9C4.8,105,4.7,105.1,4.6,105.3z"/>
						</g>
						<g>
							<path class="st51" d="M4.7,100.9c-0.1-0.1-0.1-0.7,0-0.9c0-0.6,0.1-1.2,0.1-1.8C5,98.6,5,99.6,5,100.4
								C4.9,100.6,4.8,100.8,4.7,100.9z"/>
						</g>
						<g>
							<path class="st51" d="M2.2,21.7c0,0.5,0,1-0.1,1.6c0,0.7,0.1,1,0.2,1.3c-0.1-0.2-0.3-0.5-0.2-1.3C2.1,22.8,2.2,22.3,2.2,21.7
								z"/>
						</g>
						<g>
							<path class="st51" d="M2,21.3c0-0.4,0-0.9-0.2-1.3c0-0.2-0.1-0.5-0.1-0.7c0-0.4,0-0.8,0-1.3c0-0.4,0.1-0.7,0.1-1.1
								c-0.1-0.4,0-1-0.1-1.5l0-1.2c0.1,0.1,0.2,0,0.3-0.3C2,14,2,14,2,14.1C2,15,2,16,2,17c0,1.4,0.1,2.3,0.2,3.5
								c0,0.3,0,0.6-0.1,0.9C2.1,21.4,2.1,21.4,2,21.3z"/>
						</g>
						<g>
							<path class="st51" d="M1.2,7.6c0.1,0,0.1,0,0.2,0c0,0.5,0.1,1,0.1,1.5C1.6,9.6,1.5,9.7,1.4,10C1.3,9.2,1.3,8.4,1.2,7.6z"/>
						</g>
						<g>
							<path class="st49" d="M4.9,115.1c-0.3-0.7-0.1-1.9-0.2-2.9c0.1,0,0.2-0.1,0.3-0.1C5,113.1,5,114.1,4.9,115.1z"/>
						</g>
						<g>
							<path class="st49" d="M5.6,93.7c0-0.3-0.2-0.2,0-1.1c0,0.2,0.1,0.5,0.1,0.7C5.7,93.4,5.6,93.5,5.6,93.7z"/>
						</g>
						<g>
							<path class="st49" d="M4.1,88.9C4,88.5,3.9,88,3.8,87.6c-0.1,0-0.1,0-0.2,0c0-0.4,0-0.7,0.1-1.1c0-0.2,0-0.3,0-0.5
								c0.1-0.2,0.1-0.5,0.2-0.7c-0.1-1.6-0.1-4,0-5.4c0.2-0.6,0-2,0.2-3.6l0.1,0c0,1,0,1.8,0.2,2.9l0.1,0c0-0.6,0-1.2,0-1.8
								c0-0.3,0-0.7,0-1.1c0,0,0,0,0,0c0-0.6,0-1.1,0.1-1.7c0-0.3-0.1-0.5-0.1-0.7c0.1-0.2,0.1-0.5,0.2-0.7c-0.1-0.5,0-1.2-0.1-1.6
								c0.1-0.4,0.1-0.8,0.2-1.3c0,0.1,0.1,0.2,0.1,0.2c-0.1,1.1,0.3,1.3,0,1.8l0,0.9c0,0.5,0,1-0.1,1.4c0,0.5,0.1,1,0.1,1.5
								c0,0.4-0.1,0.8-0.1,1.2c0,0.3,0.1,0.5,0.1,0.8c0,0.3-0.1,0.7-0.1,1c0.1,0.3,0,0.7-0.1,1.6c0-0.2-0.1-0.4-0.1-0.6
								c-0.2,1,0,1.2,0,1.6c0,0.7,0,1.5,0,2c0,1.1,0,2.1,0,3.1c0,0.5,0,0.9,0,1.4C4.2,88.5,4.1,88.7,4.1,88.9z"/>
						</g>
						<g>
							<path class="st49" d="M4.5,67c0-0.4,0-0.7,0-1.1c0,0,0,0,0,0c0-0.3,0-0.7,0-1.1l-0.1,0c0-0.3,0-0.7,0-1.1
								c0-0.6,0-1.2,0.1-1.8c0-0.3-0.1-0.6,0-0.9c0-0.3,0.1-0.6,0.1-0.9c0.1,0.7,0.2,0.8,0.2,2c0,0.7,0,1.3-0.1,2c0,0.1,0,0.1,0,0.2
								c0,0.5,0,1.1,0.1,1.6c0,0.4,0,0.7-0.1,1.1c-0.1,0.4-0.1,0.7-0.2,1.1C4.5,67.7,4.5,67.4,4.5,67z"/>
						</g>
						<g>
							<path class="st49" d="M5.8,63.8c-0.1-0.2-0.2-0.5-0.2-0.8c0-0.3,0.1-0.6,0.1-0.9c0,0.5,0.1,0.2,0.2,1.1L5.8,63.8z"/>
						</g>
						<g>
							<path class="st49" d="M4.4,53.2c0-1,0-2-0.1-3.1c0-1.4,0-2.7,0-4c0-0.4-0.1-0.6-0.1-1.1c0-0.3,0-0.6,0.1-0.9
								c0-1.1-0.1-2.2-0.1-3.3c0-0.6,0-1.2,0.1-1.8l0.1,1.8c0,1.1,0.2,1.5,0.1,3.3c0,0.6,0.1,1.1,0.1,1.6c0,0.8,0.1,1.4,0.1,2.2
								c0,0.7,0,1.4-0.1,2.2c0.1,0.7,0,1.5-0.1,2C4.5,52.5,4.5,52.9,4.4,53.2C4.5,53.3,4.4,53.2,4.4,53.2z"/>
						</g>
						<g>
							<path class="st49" d="M5.8,44.2c0-0.1,0-0.2,0-0.3c-0.1-0.4-0.1-0.7-0.2-1.1c0-0.1,0-0.2,0-0.4c0.1-0.6,0.2-1.1,0.3-2.1
								c0.1,0,0.1,0.1,0.2,0.2c0,0.3,0,0.7,0,1.1l0,1.5c-0.1,0.4,0.1,0.7,0,1.1c-0.1,0.3-0.2,0.7-0.3,1L5.8,44.2z"/>
						</g>
						<g>
							<path class="st53" d="M5.3,40c0-0.1,0-0.2,0-0.4c0,0,0,0,0,0c0.1-0.9-0.1-1.1-0.1-2c0-0.3,0-0.8,0.1-0.7
								c0.1-0.9-0.1-1.2-0.2-1.7c0.1-1.6,0-3.1,0-4.5c0.1-1.4-0.4-1-0.6-1.2c0-0.5,0.1-0.7,0.2-1c0-0.5-0.1-0.9-0.1-1.3
								c0-0.1-0.1-0.2-0.1-0.4c0-0.4,0-0.9-0.2-1.1c0-0.3,0-0.5,0-0.8l-0.2-0.4c0.1-0.7,0.1-1.5,0-2.2c0-0.3,0-0.7,0-1.1
								c0.2-0.6,0-1.2-0.1-2.2c0-0.2,0-0.3,0-0.4c0.1-0.2,0.2-0.3,0.3-0.5c0-0.7-0.1-1.3-0.1-2c-0.1-0.4-0.1-0.7-0.2-1.1
								c0-0.3,0-0.7,0-1.1c0,0-0.1,0-0.1,0c0-0.2-0.1-0.5-0.1-0.7c0-0.5,0-1.1,0-1.6c-0.1-0.4-0.3-0.9-0.4-1.3c0-0.2,0-0.3,0-0.5
								c0.2-0.1,0.2-0.3,0.2-0.5C3.6,9,3.5,9.1,3.4,9.1c-0.1-0.2-0.1-0.5,0-0.4c0.1-0.1,0.3-0.4,0.3-1c0-0.3-0.1-0.7-0.1-1.1
								c0.1-0.7,0.1-1,0.1-1.3c0-0.4,0-0.9,0-1.3c0.1,0,0.2,0,0.3,0c0,0.3,0.1,0.5,0.1,0.8c0.2,0,0.4-0.1,0.7-0.1c0,0,0,0,0,0
								c0,0.2,0,0.3,0,0.5c0,0.1,0,0.1,0,0.2c0,0.6,0,1.2-0.1,1.8c0,0.1,0,0.2,0,0.4c0,0.3,0,0.7,0,1.1c0,0.3,0.1,0.4,0.1,0.8
								c0,0.2,0,0.5,0,0.7c0,0.3-0.1,0.7-0.1,1.1c0,0.6-0.1,1.4,0,2.2c0.1-0.1,0.2-0.2,0.3-0.3c0-0.6,0-1.1,0.1-1.7
								c0.1,0.4,0.1,1.3,0.2,1.3c0,0.7,0,1.3,0,2C5.4,16,5.5,17,5.6,18.7c0-1.4,0.2-1.3,0.3-1.6c0,0.2,0.1,0.3,0.1,0.4
								c0,0.4-0.1,0.7-0.1,1.1c0.1,0,0.2,0,0.3,0.1c0,0.3,0,0.6,0,0.9c0,0-0.1,0.1-0.1,0.2c0.1,1.4-0.3,1.7-0.1,2.7c0,0,0,0,0,0
								c0,0.5,0,0.9,0,1.4c0,0.5,0,1,0.1,1.4c0.1,0.1,0.2,0.2,0.2,0.2c0,0.9,0,1.7,0,2.5c-0.1,0.2-0.3,0.5-0.4,0.7
								C5.8,28.3,6,27.1,5.7,27c-0.1,0.2-0.1,0.5-0.2,0.7c0,0.4,0,0.8,0.1,1.1c0,1.8,0.1,3.1,0.1,4.7c0,0.7,0,1.5,0,2.2
								c0,0.3,0,0.6,0,0.9c0,0.5,0,1.1,0,1.6c0,0.4-0.1,0.7-0.1,1.1l0,0.3c0,0.3,0.1,0.4-0.1,1.3C5.5,40.5,5.4,40.6,5.3,40z"/>
						</g>
						<g>
							<path class="st49" d="M5.7,39.3c0-0.4,0-0.7,0-1.1c0-0.5,0-1.1,0-1.6l0.2-0.5c-0.1-0.1-0.1-0.2-0.2-0.4c0-0.7,0-1.5,0-2.2
								C5.8,33.3,5.9,33.2,6,33c0,0.2,0,0.5,0,0.7c0,0.7,0,1.4,0,2.2c0,0,0,0.1,0,0.2c0,0.7,0,1.3,0,2c0,0.6-0.1,1.1-0.1,1.6
								C5.9,39.6,5.8,39.5,5.7,39.3z"/>
						</g>
						<g>
							<path class="st49" d="M4.2,36.4c0.2-2.2,0.1-3.3-0.1-4.4C4.3,33.1,4.4,34.2,4.2,36.4z"/>
						</g>
						<g>
							<path class="st50" d="M5.7,27c0.3,0.1,0,1.3,0.2,1.7c0.1-0.2,0.3-0.5,0.4-0.7c0,0.3,0,0.6,0,0.9c0,0.1-0.1,0.3-0.1,0.4
								c-0.1,0-0.1,0-0.2,0c-0.1,0.9,0.2,1,0.1,1.6c0,0.7,0,1.5-0.1,2.2c-0.1,0.2-0.2,0.3-0.3,0.5c0-1.6-0.1-2.9-0.1-4.7
								c-0.1-0.2-0.1-0.7-0.1-1.1C5.6,27.5,5.7,27.2,5.7,27z"/>
						</g>
						<g>
							<path class="st49" d="M6.1,30.9c0.1-0.6-0.1-0.7-0.1-1.6c0.1,0,0.2,0,0.2,0c0,0.5,0,1.1,0,1.6C6.2,30.9,6.1,30.9,6.1,30.9z"
								/>
						</g>
						<g>
							<path class="st49" d="M4,28.9C4,28.5,4,28,4,27.6l0.1,0c0,0.4,0.1,0.5,0,1.5C4.1,29,4,28.9,4,28.9z"/>
						</g>
						<g>
							<path class="st49" d="M3.4,26.3l0.3-1.4c0,0,0-0.1,0-0.2c0-0.5,0-0.9,0-1.3c-0.1-0.1-0.2-0.3-0.2-0.4
								c-0.1-1.1-0.3-1.7-0.3-3.1c-0.2,0.2,0-1.2-0.2-0.9c-0.3-2.2,0.3-4.3,0-6.5c0-0.4,0-1,0-1.3C2.7,11.4,2.7,12,2.6,12l-0.1,0
								c0-0.5,0-1-0.1-1.4c0-0.2,0.1-0.4,0.1-0.5c0.1,0.1,0.2,0.1,0.3,0.2c0.3,1.3,0.4,2,0.4,3c0,0.4,0.1,0.9,0.1,1.3
								c0-0.4,0.1-0.8,0.1-1.3c0.1,0,0.2,0,0.3,0c0,0.3,0.1,0.5,0.1,0.7c0,0.4,0,0.8,0,1.1c0,0.4,0,0.7-0.1,1.1
								c0,0.9,0.1,1.6,0.2,2.6c0,0,0,0,0,0c0,0.1,0,0.2,0,0.4l0,2.1c0,0.4,0,0.8,0,1.1c0,0.2,0,0.5-0.1,0.7c0,0.4,0,0.9,0,1.3
								c0,0.1,0,0.2,0,0.4c0,0.3,0,0.7-0.1,1c0,0-0.1,0-0.1,0c-0.1,0.4-0.1,0.7-0.2,1.1L3.4,26.3z"/>
						</g>
						<g>
							<path class="st50" d="M5.6,18.7C5.5,17,5.4,16,5.3,14.8c0-0.7,0-1.3,0-2c-0.2,0-0.1-0.9-0.2-1.3C5,12,5,12.6,5,13.1
								c-0.1,0.1-0.2,0.2-0.3,0.3c-0.1-0.7,0-1.5,0-2.2c0.1-0.4,0.1-0.7,0.1-1.1c0-0.3,0-0.5,0-0.7c0-0.3-0.1-0.5-0.1-0.8
								c0-0.3,0-0.7,0-1.1C4.8,7.8,4.9,7.9,5,8c0-0.3,0-0.7,0-1.1c0,0,0-0.1,0-0.2c0,0,0.1,0,0.1,0c0.1,0,0.2,0,0.3,0
								c0.2-0.2,0.3-0.4,0.4-0.3c0,0.3,0.1,0.5,0.1,0.7L5.7,7.8c0,0.8-0.1,1.6,0.1,2.2L6,10c0,0.7,0,1.3,0,2c0,0.7,0.1,1.3,0.1,2
								c0.1,0.5,0.1,1.1,0.1,1.6c0,0.6,0.1,1.2,0.1,1.8c0,0.4,0,0.7,0,1.1c-0.1,0-0.2,0-0.3-0.1c0-0.4,0.1-0.7,0.1-1.1
								c0-0.1-0.1-0.2-0.1-0.4C5.8,17.3,5.6,17.3,5.6,18.7z"/>
						</g>
						<g>
							<path class="st49" d="M6,10l-0.2,0C5.6,9.4,5.7,8.6,5.7,7.8l0.2-0.5C5.9,7.7,6,8.2,6,8.6C6.1,8.8,6,9.5,6,10z"/>
						</g>
						<g>
							<path class="st49" d="M4.7,7.7c0-0.2,0-0.3,0-0.4c0-0.6,0-1.2,0.1-1.8C4.9,5.9,5,6.3,5,6.8c0,0,0,0.1,0,0.2C5,7.3,5,7.7,5,8
								C4.9,7.9,4.8,7.8,4.7,7.7z"/>
						</g>
						<g>
							<path class="st49" d="M5.5,6.9c-0.1,0-0.2,0-0.3,0C5.2,6.4,5.3,6,5.3,5.6c0,0,0.1,0.1,0.1,0.2C5.6,6,5.7,6.3,5.8,6.5
								C5.7,6.4,5.7,6.7,5.5,6.9z"/>
						</g>
						<g>
							<path class="st49" d="M4.8,4.8c0-1.1-0.2-1.8-0.1-2.4c0,0,0.1,0,0.1,0C4.9,2.5,5,2.7,5,2.8C5,3.5,4.9,4.1,4.8,4.8
								C4.8,4.8,4.8,4.8,4.8,4.8z"/>
						</g>
						<g>
							<path class="st52" d="M4.7,112.2c0-0.5-0.1-1-0.1-1.5l0-0.6c0,0,0.1,0,0.2,0c0.1,0.4,0.2,0.7,0.3,1.1c0,0.2,0,0.5,0,0.7
								C5,112.1,4.8,112.2,4.7,112.2z"/>
						</g>
						<g>
							<path class="st52" d="M4.3,81.8c0-0.4-0.2-0.6,0-1.6c0,0.2,0.1,0.4,0.1,0.6C4.3,81.1,4.3,81.5,4.3,81.8z"/>
						</g>
						<g>
							<path class="st52" d="M2,12.5c0-0.8-0.2-1.5-0.4-1.9c-0.1,0-0.2,0-0.3-0.1l0-0.6c0.1-0.3,0.2-0.4,0.2-0.9
								c0-0.5-0.1-1-0.1-1.5c0.1-0.1,0.2-0.1,0.2-0.2c0.6-0.7,0.1,2.1,0.5,1.9c0-0.3,0-0.6,0-0.9c0.1,0.2,0.2-0.3,0.3-0.3
								c0,0,0.1,0.1,0.1,0.2l0,1.5c0,0,0,0.1,0,0.2c-0.1,0.1-0.1,0.3-0.1,0.5c-0.3,0.2-0.2,1.1-0.3,1.6C2.1,12.2,2.1,12.3,2,12.5z"
								/>
						</g>
						<g>
							<path class="st52" d="M5,6.8C5,6.3,4.9,5.9,4.8,5.5c0-0.1,0-0.1,0-0.2C5,5.4,5.2,5.5,5.3,5.6c0,0.4-0.1,0.8-0.2,1.3
								C5.1,6.8,5.1,6.8,5,6.8z"/>
						</g>
						<g>
							<path class="st52" d="M1.8,5C1.8,5,1.8,5,1.8,5c0-0.2,0-0.5,0-0.7C1.8,4.1,1.9,3.9,2,3.8C2,4.2,2,4.6,2,5C1.9,5,1.9,5,1.8,5z
								"/>
						</g>
						<g>
							<path class="st50" d="M5.7,36.6c0-0.3,0-0.6,0-0.9c0.1,0.1,0.1,0.2,0.2,0.4L5.7,36.6z"/>
						</g>
						<g>
							<path class="st50" d="M6.1,25.2c0-0.5,0-1-0.1-1.4c0-0.5,0-1,0-1.4c0,0,0,0,0,0c-0.2-1,0.2-1.3,0.1-2.7
								c0-0.1,0.1-0.1,0.1-0.2c0.1,1.2,0.2,1.9,0.1,2.7c0,1.1,0,2.1,0,3.2C6.3,25.4,6.2,25.3,6.1,25.2z"/>
						</g>
						<g>
							<path class="st50" d="M4.8,22.2c0-0.4,0-0.8,0-1.1c0.1-0.3,0.1-0.5,0.2-0.7c0.1-1.8-0.2-2.8,0-4.4c0,0,0.1,0,0.1,0
								c0,0.7,0.1,1.3,0.1,2c0.1,1.1,0,2.8,0,4.2C5,22.2,4.9,22.2,4.8,22.2z"/>
						</g>
						<g>
							<path class="st50" d="M4,18.7c0-0.9-0.1-1.6-0.2-2.6c0-0.4,0-0.7,0.1-1.1c0-0.3,0-0.7,0-1.1C4,14,4,14,4,14
								c0,0.4,0,0.8,0,1.1c0.1,0.4,0.1,0.8,0.2,1.1c0,0.7,0.1,1.3,0.1,2C4.2,18.4,4.1,18.6,4,18.7C4,18.8,4,18.8,4,18.7z"/>
						</g>
						<g>
							<path class="st50" d="M3.4,14.5c-0.2-0.7-0.2-1-0.1-1.3c0-1-0.1-1.7-0.4-3c0-0.5,0.1-0.9,0.1-1.4c0-0.1,0.1-0.1,0.1-0.2
								l0.2,0c-0.1-0.2,0,0.2,0,0.4C3.5,9.1,3.6,9,3.7,9.3c0,0.2,0,0.4-0.2,0.5c0,0.2,0,0.4,0,0.5c0.1,0.5,0.3,0.9,0.4,1.3
								c0,0.5,0,1.1,0,1.6c-0.1,0-0.2,0-0.3,0C3.5,13.7,3.5,14.1,3.4,14.5z"/>
						</g>
						<g>
							<path class="st50" d="M2.9,7c0-0.1,0-0.2,0-0.4C2.8,6.2,2.7,5.7,2.6,5.3c0-0.1,0-0.2,0-0.2c0-0.6,0-1.2,0-1.8
								c0.1-0.5,0.1-1.1,0.2-1.6l0.1,0C3,1.5,3.1,1.3,3.3,1.1c0.1,0.4,0.3,0.8,0.4,1.1c0-0.1,0.1-0.2,0.1-0.3l0-0.6
								C3.9,0.5,4.2,1,4.3,0.9c0.1,0.2,0.1,0.5,0.2,0.7c0,0.3,0,0.5,0.2,0.7C4.6,3,4.7,3.7,4.8,4.8c-0.2,0-0.4,0-0.7,0.1
								C4.1,4.6,4,4.3,4,4.1c-0.1,0-0.2,0-0.3,0c0,0.4,0,0.9,0,1.3c0,0.3,0,0.6-0.1,1.3c0,0,0,0,0,0c-0.1,0-0.2,0.1-0.3,0.1
								C3.2,6.9,3.2,7,3.1,7.2C3.1,7.1,3,7,2.9,7z"/>
						</g>
						<g>
							<path class="st50" d="M1.4,5.1c0-0.3-0.1-0.6-0.1-0.9c0.1,0,0.3,0,0.4,0.1c0,0.2,0,0.5,0,0.7C1.6,5,1.5,5.1,1.4,5.1z"/>
						</g>
						<g>
							<path class="st53" d="M5.7,50.7c-0.1-0.6-0.2-1.2-0.3-1.9c0,0,0-0.1,0-0.2c0-0.1,0.1-0.2,0.1-0.3c0.1,0,0.2,0,0.3,0l0,2.1
								C5.7,50.6,5.7,50.7,5.7,50.7z"/>
						</g>
						<g>
							<path class="st53" d="M2.5,10c0-0.1,0-0.2,0-0.2l0-1.5c0.1,0,0.1-0.1,0.2-0.1C2.8,8.4,2.9,8.6,3,8.8c0,0.5-0.1,0.9-0.1,1.4
								C2.8,10.2,2.6,10.1,2.5,10z"/>
						</g>
						<g>
							<path class="st53" d="M2.2,6.2c0-0.2,0-0.3,0-0.4c0-0.2,0.1-0.3,0.1-0.5l0.2,0c0.1,0.4,0.2,0.9,0.3,1.3c0,0.2,0,0.3,0,0.4
								c0,0,0,0,0,0C2.7,7.1,2.6,7.2,2.4,7.3C2.4,6.9,2.3,6.5,2.2,6.2z"/>
						</g>
						<g>
							<path class="st51" d="M2,13.9c0-0.3-0.1-0.6-0.1-0.9c-0.1,0.1-0.2,0.1-0.3,0.1c0-0.4,0-0.9,0-1.3c0-0.3-0.1-0.3-0.2-0.6
								c0-0.2,0-0.4,0-0.5c0-0.1,0-0.2,0-0.2c0.1,0,0.2,0,0.3,0.1C1.9,11,2,11.7,2,12.5c0-0.1,0.1-0.3,0.1-0.4l0-0.9
								c-0.1-0.7,0.1-0.8,0.2-0.7c0,0.5,0,1,0.1,1.4l0.1,0c0,0.3,0,0.5,0,0.8c0.1,1.1-0.3,1.3-0.2,2.7C2.3,15.6,2.3,15,2.2,15
								c0-0.4-0.1-0.7-0.1-1.1C2.1,13.9,2.1,13.9,2,13.9z"/>
						</g>
						<g>
							<path class="st47" d="M1.6,13.1l-0.2,0c0-0.6,0-1.2,0.1-1.8c0.1,0.3,0.1,0.2,0.2,0.6C1.6,12.2,1.6,12.7,1.6,13.1z"/>
						</g>
						<g>
							<path class="st48" d="M1.9,84.7c0-0.4,0-0.7,0-1.1C1.9,84,2.1,83.7,1.9,84.7z"/>
						</g>
						<g>
							<path class="st48" d="M1.4,16.2c-0.1-0.7-0.2-2-0.1-3.1l0.2,0c0,0.7,0,1.3-0.1,2C1.5,15.4,1.4,15.8,1.4,16.2z"/>
						</g>
						<g>
							<path class="st51" d="M2.7,25.1c-0.1-0.8-0.1-1.2-0.1-1.6C3,22.9,2.9,24.4,2.7,25.1z"/>
						</g>
						<g>
							<path class="st51" d="M3.3,91.5c0.1-0.3,0.1-0.5,0.1-0.7c0.1,0.2,0.3,0.3,0.2,0.9c0,0.3,0,0.6-0.1,0.9
								C3.4,92.6,3.5,91.7,3.3,91.5z"/>
						</g>
						<g>
							<path class="st49" d="M4.5,60.2c0-0.3-0.1-0.5-0.1-0.8c0-0.3,0-0.6,0.1-0.9l-0.1-1.3c0-0.1,0.1-0.3,0.1-0.4
								c-0.1-0.6,0-1.4,0-2.2c0-0.4,0.1-0.7,0.1-1.1c0,0.3,0.1,0.5,0.1,0.7c0,0.8,0,1.7,0,2.5c0,0.3,0,0.6-0.1,1.6
								C4.5,58.9,4.6,59.1,4.5,60.2z"/>
						</g>
					</g>
				</g>
			</g>
		</g>
	</g>
</g>
</svg>
