<?xml version="1.0" encoding="utf-8"?>
<!-- Generator: Adobe Illustrator 27.0.0, SVG Export Plug-In . SVG Version: 6.00 Build 0)  -->
<svg version="1.1" id="Layer_1" xmlns="http://www.w3.org/2000/svg" xmlns:xlink="http://www.w3.org/1999/xlink" x="0px" y="0px"
	 viewBox="0 0 3.7 324" style="enable-background:new 0 0 3.7 324;" xml:space="preserve">
<style type="text/css">
	.st0{fill:#F7F7F7;}
	.st1{fill:none;}
	.st2{opacity:0.2;fill:#F4F1EF;}
	.st3{fill:#F2F8FC;}
	.st4{fill:#F4F1EF;}
	.st5{fill:#DFDDD0;}
	.st6{fill:#6B635E;}
	.st7{fill:#302615;}
	.st8{fill:#98C1EC;}
	.st9{fill:#6FA3D1;}
	.st10{fill:#F2EDE9;}
	.st11{fill:#467BAF;}
	.st12{fill:none;stroke:#A6A19E;stroke-miterlimit:10;}
	.st13{fill:none;stroke:#FEFEFE;stroke-miterlimit:10;}
	.st14{fill:none;stroke:#6B635E;stroke-width:1.5;stroke-miterlimit:10;}
	.st15{fill:none;stroke:#E5E1E6;stroke-miterlimit:10;}
	.st16{fill:none;stroke:#6790CD;stroke-width:4.2762;stroke-miterlimit:10;}
	.st17{fill:none;stroke:#FEFEFE;stroke-width:0.7308;stroke-miterlimit:10;}
	.st18{fill:none;stroke:#6B635E;stroke-width:1.1451;stroke-miterlimit:10;}
	.st19{fill:#D1EAF8;}
	.st20{opacity:0.85;}
	.st21{fill:#6790CD;}
	.st22{clip-path:url(#SVGID_00000138553140419279070830000012429630646862947208_);}
	.st23{opacity:0.9;}
	.st24{fill:#CBDAE9;}
	.st25{fill:#DDE7F0;}
	.st26{fill:#9CB8D4;}
	.st27{fill:#8CADCD;}
	.st28{fill:#B9CDE1;}
	.st29{fill:#ABC3DB;}
	.st30{fill:#789FC5;}
	.st31{fill:#F1F6FA;}
	.st32{fill:#F6F9FC;}
	.st33{fill:#E4EDF5;}
	.st34{fill:#DFEAF4;}
	.st35{fill:#ECF3F8;}
	.st36{fill:#E8F0F7;}
	.st37{fill:#DAE7F2;}
	.st38{opacity:0.4;fill:#F4F1EF;}
	.st39{fill:none;stroke:#F4F1EF;stroke-width:0.5;stroke-miterlimit:10;}
	.st40{fill:#FCFBFB;}
	.st41{fill:#FDFCFC;}
	.st42{fill:#F9F7F6;}
	.st43{fill:#F8F6F5;}
	.st44{fill:#FBFAF9;}
	.st45{fill:#FAF9F8;}
	.st46{fill:#F7F5F3;}
	.st47{fill:#D6D3D2;}
	.st48{fill:#E4E3E2;}
	.st49{fill:#B0ABA9;}
	.st50{fill:#A39E9B;}
	.st51{fill:#C7C4C2;}
	.st52{fill:#BCB8B6;}
	.st53{fill:#938E8A;}
	.st54{fill:#CEE3F4;}
	.st55{fill:#BDD9F0;}
	.st56{fill:#A1C9EA;}
	.st57{fill:#DFEDF8;}
	.st58{fill:#B0D2ED;}
	.st59{fill:#92C1E7;}
	.st60{fill:#F2F9FD;}
	.st61{fill:#F7FBFE;}
	.st62{fill:#E6F4FB;}
	.st63{fill:#E2F2FB;}
	.st64{fill:#EEF7FC;}
	.st65{fill:#EAF5FC;}
	.st66{fill:#DEF0FA;}
	.st67{fill:#C2D2DF;}
	.st68{fill:#D7E2EA;}
	.st69{fill:#8AA9C2;}
	.st70{fill:#779BB9;}
	.st71{fill:#ADC3D4;}
	.st72{fill:#9CB7CC;}
	.st73{fill:#608BAD;}
	.st74{fill:#FEFEFE;}
	.st75{fill:#3B6C9E;}
	.st76{fill:#EFEFEF;}
	
		.st77{opacity:0.498;fill:none;stroke:#B7B7B7;stroke-width:3.485746e-02;stroke-linecap:round;stroke-linejoin:round;stroke-miterlimit:10;}
	
		.st78{opacity:0.5098;fill:none;stroke:#B7B7B7;stroke-width:3.485746e-02;stroke-linecap:round;stroke-linejoin:round;stroke-miterlimit:10;}
	.st79{fill:#FFFFFF;}
	.st80{fill:none;stroke:#FFFFFF;stroke-width:0;stroke-linecap:round;stroke-miterlimit:10;}
	.st81{fill:none;stroke:#979797;stroke-width:0.1394;stroke-linecap:round;stroke-linejoin:round;stroke-miterlimit:10;}
	.st82{fill:none;stroke:#9FA7AA;stroke-width:0.1046;stroke-linecap:round;stroke-linejoin:round;stroke-miterlimit:10;}
	.st83{fill:none;stroke:#242424;stroke-width:0.1743;stroke-linecap:round;stroke-linejoin:round;stroke-miterlimit:10;}
	.st84{fill:none;stroke:#FFFFFF;stroke-width:0;stroke-linecap:round;stroke-linejoin:round;stroke-miterlimit:10;}
	.st85{fill:none;stroke:#979797;stroke-width:0.1743;stroke-linecap:round;stroke-linejoin:round;stroke-miterlimit:10;}
	.st86{fill:none;stroke:#979797;stroke-width:0;stroke-linecap:round;stroke-linejoin:round;stroke-miterlimit:10;}
	.st87{fill:none;stroke:#979797;stroke-width:6.971491e-02;stroke-linecap:round;stroke-linejoin:round;stroke-miterlimit:10;}
	.st88{fill:none;stroke:#9FA7AA;stroke-width:0.244;stroke-linecap:round;stroke-linejoin:round;stroke-miterlimit:10;}
	.st89{fill:#847F7B;}
	.st90{fill:none;stroke:#847F7B;stroke-width:0.3077;stroke-miterlimit:10;}
	.st91{fill:none;stroke:#929497;stroke-width:0.1394;stroke-linecap:round;stroke-linejoin:round;stroke-miterlimit:10;}
	.st92{fill:none;stroke:#94A294;stroke-width:6.971491e-02;stroke-linecap:round;stroke-linejoin:round;stroke-miterlimit:10;}
	.st93{fill:none;stroke:#929497;stroke-width:3.485746e-02;stroke-linecap:round;stroke-linejoin:round;stroke-miterlimit:10;}
	
		.st94{opacity:0.5098;fill:none;stroke:#B7B7B7;stroke-width:3.651847e-02;stroke-linecap:round;stroke-linejoin:round;stroke-miterlimit:10;}
	
		.st95{opacity:0.498;fill:none;stroke:#B7B7B7;stroke-width:3.651847e-02;stroke-linecap:round;stroke-linejoin:round;stroke-miterlimit:10;}
	.st96{fill:none;stroke:#979797;stroke-width:0.1461;stroke-linecap:round;stroke-linejoin:round;stroke-miterlimit:10;}
	.st97{fill:none;stroke:#979797;stroke-width:7.303695e-02;stroke-linecap:round;stroke-linejoin:round;stroke-miterlimit:10;}
	.st98{fill:none;stroke:#979797;stroke-width:0.1826;stroke-linecap:round;stroke-linejoin:round;stroke-miterlimit:10;}
	.st99{fill:none;stroke:#9FA7AA;stroke-width:0.1096;stroke-linecap:round;stroke-linejoin:round;stroke-miterlimit:10;}
	.st100{fill:none;stroke:#242424;stroke-width:0.1826;stroke-linecap:round;stroke-linejoin:round;stroke-miterlimit:10;}
	.st101{fill:none;stroke:#847F7B;stroke-width:0.2827;stroke-miterlimit:10;}
	.st102{fill:none;stroke:#9FA7AA;stroke-width:0.2556;stroke-linecap:round;stroke-linejoin:round;stroke-miterlimit:10;}
	.st103{fill:none;stroke:#929497;stroke-width:0.1461;stroke-linecap:round;stroke-linejoin:round;stroke-miterlimit:10;}
	.st104{fill:none;stroke:#94A294;stroke-width:7.303695e-02;stroke-linecap:round;stroke-linejoin:round;stroke-miterlimit:10;}
	.st105{fill:none;stroke:#929497;stroke-width:3.651847e-02;stroke-linecap:round;stroke-linejoin:round;stroke-miterlimit:10;}
	
		.st106{opacity:0.5098;fill:none;stroke:#B7B7B7;stroke-width:4.111075e-02;stroke-linecap:round;stroke-linejoin:round;stroke-miterlimit:10;}
	
		.st107{opacity:0.498;fill:none;stroke:#B7B7B7;stroke-width:4.111075e-02;stroke-linecap:round;stroke-linejoin:round;stroke-miterlimit:10;}
	.st108{fill:none;stroke:#979797;stroke-width:0.1644;stroke-linecap:round;stroke-linejoin:round;stroke-miterlimit:10;}
	.st109{fill:none;stroke:#9FA7AA;stroke-width:0.1233;stroke-linecap:round;stroke-linejoin:round;stroke-miterlimit:10;}
	.st110{fill:none;stroke:#242424;stroke-width:0.2056;stroke-linecap:round;stroke-linejoin:round;stroke-miterlimit:10;}
	.st111{fill:none;stroke:#979797;stroke-width:0.2056;stroke-linecap:round;stroke-linejoin:round;stroke-miterlimit:10;}
	.st112{fill:none;stroke:#979797;stroke-width:8.222150e-02;stroke-linecap:round;stroke-linejoin:round;stroke-miterlimit:10;}
	.st113{fill:none;stroke:#9FA7AA;stroke-width:0.2878;stroke-linecap:round;stroke-linejoin:round;stroke-miterlimit:10;}
	.st114{fill:none;stroke:#847F7B;stroke-width:0.247;stroke-miterlimit:10;}
	.st115{fill:none;stroke:#929497;stroke-width:4.111075e-02;stroke-linecap:round;stroke-linejoin:round;stroke-miterlimit:10;}
	.st116{fill:none;stroke:#929497;stroke-width:0.1644;stroke-linecap:round;stroke-linejoin:round;stroke-miterlimit:10;}
	.st117{fill:none;stroke:#94A294;stroke-width:8.222150e-02;stroke-linecap:round;stroke-linejoin:round;stroke-miterlimit:10;}
	.st118{fill:none;stroke:#F4F1EF;stroke-width:0.5458;stroke-miterlimit:10;}
	.st119{clip-path:url(#SVGID_00000150066664536069004330000000925859359784529296_);}
	.st120{fill:url(#SVGID_00000121247189892247111710000001173729607958904961_);}
	.st121{fill:none;stroke:#F2EDE9;stroke-width:0.3808;stroke-miterlimit:10;}
	.st122{fill:#D1CFCE;}
	.st123{fill:#C1BEBD;}
	.st124{fill:#A7A3A1;}
	.st125{fill:#E1E0DF;}
	.st126{fill:#B5B2B0;}
	.st127{fill:#999492;}
	.st128{fill:#E8E7E7;}
	.st129{fill:#E0DFDF;}
	.st130{fill:#D3D2D1;}
	.st131{fill:#F0F0F0;}
	.st132{fill:#DAD9D9;}
	.st133{fill:#CCCBCA;}
	.st134{fill:url(#SVGID_00000023269981303455792570000007481469209048875403_);}
	.st135{clip-path:url(#SVGID_00000065039247405284050220000000766207574069382590_);}
	.st136{clip-path:url(#SVGID_00000172436502759273902760000009541019610854426523_);}
	.st137{fill:#FDFCFB;}
	.st138{fill:#F8F5F3;}
	.st139{fill:#F7F4F1;}
	.st140{fill:#FAF8F7;}
	.st141{fill:#F9F7F5;}
	.st142{fill:#F6F2EF;}
	.st143{clip-path:url(#SVGID_00000179630569562802379190000009514895151930248074_);}
	.st144{fill:#E9E8E7;}
	.st145{fill:#D4D2D1;}
	.st146{fill:#DBD9D9;}
	.st147{fill:#CDCBCA;}
	.st148{fill:url(#SVGID_00000079477199319261436930000014800537406353191575_);}
	.st149{fill:url(#SVGID_00000137097779169149539340000014317194017822748332_);}
	.st150{fill:url(#SVGID_00000116232299612694474930000012547693205075353221_);}
	.st151{opacity:0.83;clip-path:url(#SVGID_00000080206948947424610220000003179944627016117136_);fill:#F2EDE9;}
	.st152{clip-path:url(#SVGID_00000164505729835120530210000003862412534442735779_);}
	.st153{fill:url(#SVGID_00000168100061161044925110000005733348779413308551_);}
	.st154{fill:url(#SVGID_00000111879799416304820140000010109835624962786463_);}
	.st155{clip-path:url(#SVGID_00000088111859189269189210000005707414761908595343_);}
	.st156{clip-path:url(#SVGID_00000016786110387860201360000005125379223509509290_);}
	.st157{clip-path:url(#SVGID_00000180343066735444525340000010637110074368856978_);}
	.st158{clip-path:url(#SVGID_00000134245340285487336450000002068543698930522012_);}
	.st159{clip-path:url(#SVGID_00000140710552898300340770000015066698926654982541_);}
	.st160{clip-path:url(#SVGID_00000175324995353068950140000007868596817976289201_);}
	.st161{clip-path:url(#SVGID_00000122680085911661666100000011809646786828823173_);}
</style>
<g>
	<g>
		<g>
			<g>
				<g class="st23">
					<g class="st23">
						<g>
							<path class="st47" d="M2.6,320.3c0-0.2,0.1-1.4,0.1-0.9c0,1.4,0,2.7,0,4.1C2.6,323.5,2.5,322.6,2.6,320.3z"/>
						</g>
						<g>
							<path class="st47" d="M1.3,300.1c0-1.9,0-3.7,0-5.5c0-1.1,0-2.4,0-3.5c0-0.3,0-0.6,0-0.9c0-1.7,0-3.3,0-5c0-1.1,0-2.4,0-3.5
								c0-0.1,0-0.3,0-0.5c0-1.2,0-2.3,0-3.5c0-0.4,0-0.7,0-1c0-0.6,0-1.4-0.1-2c0-1.1,0-2.4,0-3.5c0,0,0,0,0,0c0-2.8,0-5.6,0-8.5
								c0-4.7,0-9.4,0-14.1c0,0,0,0,0.1,0.1c0-0.9,0-2,0-3c0,0,0,0-0.1-0.1c0-2.6,0-5.3,0-7.9c0-1,0-2.1,0-3c0.1-2.7,0-2.1,0-3
								c0-1.1,0-2.3,0.1-3.5c0-0.4,0-0.9,0-1.5c0-1,0-2,0-3c0-6.3,0-10.1,0-15.5c0-3.4,0-10.2,0.1-12.3c-0.1-2.2,0-4.5,0-6.6
								c0.1,0.2,0-1.5,0.1-2.4c0-0.6,0-1.4,0-2c0-1,0-2,0-3c0-0.9,0-2,0-3c0-3.3,0-6.7,0-10c0-1.1,0-2.3,0-3.4c0-1.2,0-2.4,0-3.6
								c0-1.2,0-2.3,0-3.5c0-1.3,0-2.4,0-3.6c0-0.2,0-0.3,0-0.5c0-1.5,0-3,0-4.5c0-1.7,0-3.3,0-5c0-1,0-2,0-3c-0.1-1.3-0.1-3.5,0-5
								c0-2.8,0-5.6,0-8.5c0-1.1-0.1-2.1-0.1-3.1c0-0.2,0.1-0.4,0.1-0.4c0-2.7,0-5.3,0-8.1c0,0-0.1-0.1-0.1-0.1c0-2-0.1-2.6-0.1-3.1
								c0-1.2,0-2.3,0-3.5c0-3.7,0.1-5.8,0-7c0-2.4,0-4.7,0-7.1c0.1-3.4,0-5.5,0-5.4c0-0.7,0-1.4,0-2.1c0-1.7,0-3.3,0-5
								c0.1-3,0-3.6,0-4c0-1.4,0-2.7,0-4c0-1.7,0-3.4,0-5c0-2.8,0-2.3,0-4.1c0-0.9,0-2,0-3c0-0.3,0-0.6,0-0.9c-0.1-1-0.1-3,0-4.1
								c0-0.3,0-0.6,0-0.9c-0.1-0.7-0.1-2.2,0-3.1c0-0.3-0.1-0.7-0.1-1.1c0-1.3,0-2.6,0.1-3.9c0-1,0-2,0-3c0-0.3-0.1-0.7-0.1-1
								c0-1,0-2.1,0-3c0-1.9,0-3.6,0-5.5c0-0.2,0.1-0.2,0.1-0.4c0,0.9,0,1.7,0.1,2.6c0,0.2,0,0.3,0,0.5c0,0.3-0.1,0.5-0.1,0.9
								c0,0.8,0,1.6,0,2.9c0,1.4,0,3,0.1,4.1c0,0.9,0,2,0,3c0,1.2,0,2.3,0,3.5c0,0.6,0,1.4,0,2c0.1,1,0.1,2.5,0.1,3.6
								c0,0,0,0,0.1,0.1c0,0.3,0,0.6,0,1c0,1.5,0,2.9,0,4.5c0,2.1,0.1,2.9,0.1,3.5c0,1.1,0,2.1,0,3c0,0.6,0,1.3,0,2
								c0,0.4,0,0.8,0,1.1c0,3,0,6-0.1,8.9c0,0.8,0.1,1.4,0.1,2.2c0,1.2,0,2.6,0,3.9c0,1.4,0,2.6,0,4c0,0.5,0,1,0,1.6c0,0,0,0,0,0
								c0,1.5,0,3,0,4.5c0,0,0,0,0,0c0,2.9,0,2.9,0.1,4.5c0,1.2,0,2.4,0,3.6c0.1-0.8,0.1-3.3,0.1-4.4c0-0.4,0-0.7,0-1
								c0-1,0.1-1.9,0.1-2.9c0.1,3.7,0,6.6,0.1,9.6c0,3.2,0.2,3.8,0.1,7.2c0,2.8,0,4.6,0,5c0,2.9,0,6,0,9c-0.1,0.7,0,1.8,0,3
								c0.2,5.7-0.1,10.9,0.1,16.6c-0.1,2.4,0,3.7,0,6.1c0,1.7,0,3.3,0,5c0.1,2.7-0.1,5.3,0,8.9c0,1.6,0,3,0,4.5
								c0,2.1,0.1,5.2,0,5.5c0,1.9-0.1,2.3-0.1,4.9c0.1,2.9,0,6.8,0.1,8.6c-0.1,3.5,0.1,10.2-0.1,13.9c0.1,3,0,8.1,0,12
								c0,0.8,0,1.7,0,2.5c0-0.2,0,1.2,0,1.9c0,0.7,0,1.7,0,2.1c0-0.1,0,1.4-0.1,2.9c0,0,0,0,0,0c0-0.9,0-1.6-0.1-2.6
								c-0.1,1.3-0.1,2.3-0.1,3.4c0,0.2,0,0.4,0.1,0.6c0,0.9,0,1.7,0.1,2.6c0,0.6-0.1,1.3-0.1,1.9c-0.1,2.6,0.1,1.3,0.1,3.1
								c0,1.4-0.1,3-0.1,4.4c0,3.4-0.1,6,0,9c0,0.4-0.1,0.7-0.1,0.9c0,1,0,2,0,3c0,1.7,0,3.3,0,5c0.1,1,0.1,3.9,0,4c0,1.7,0,3.3,0,5
								c0,1.1,0.1,2,0.1,3.1c0.1-0.7,0.1,1.6,0.1,3.1c0,0.3-0.1,0.6-0.1,0.9c0,0.7,0,1.4,0,2.1c0,0.6,0,1.3-0.1,1.9c0,0.6,0,1.4,0,2
								c0,1,0,2,0,3c0,2.5,0,3.1,0.1,4c0,0,0.1,0.1,0.1,0.1c0,0.8,0.1,1.4,0.1,2.1c0,2.7,0,4.7-0.1,7c0,3.3-0.2,1.9-0.2,2.3
								c0,0.8,0,1.7,0,2.5c0,0.4-0.1,0.9-0.1,1.3C1.3,304.3,1.3,302,1.3,300.1z"/>
						</g>
						<g>
							<path class="st47" d="M2.9,287c0-2,0-3.1,0-3.9C3,284.8,3.1,287.2,2.9,287z"/>
						</g>
						<g>
							<path class="st48" d="M2.5,276.6c0-0.4,0-1-0.1-1.5c0-3.9-0.1-7.4,0-11.5c-0.1-1.7-0.2,1.2-0.3,0.2c-0.1-0.6,0-1.9-0.1-3
								c0,0,0,0,0,0c-0.1-1.2-0.2-1.2-0.2-1.2c0-1.2,0-2.3,0-3.6c0-0.9,0.1-1.9,0.1-2.8c0.1,0.6,0,3,0.1,3c0,0.7,0,1.4,0,2.1
								c0.1-3.2,0.1-6.3,0.1-9c0-0.6,0.1-1.3,0.1-1.9c0,0.3,0.1,0.7,0.1,1.1c0,0.6,0,1.4,0,2c0,2,0,4,0,6c0,0.9,0,1.7,0,2.5
								c0,0.5,0.1,0.8,0.1,1.2c0,1.1,0,2,0.1,3.1c0,1.1,0,2.3,0,3.4c0,1.7,0,2.7,0,4.1c0,0.3,0,0.6,0,0.9c0,1.6,0,3.4-0.1,5
								C2.6,276.6,2.5,276.6,2.5,276.6z"/>
						</g>
						<g>
							<path class="st49" d="M2.7,304.9c0-2.3,0-4.6-0.1-7c0-1.9,0-3.7,0-5.6c0-0.3,0-0.6,0-0.9c0-0.5,0.1-1,0.1-1.4
								c0-2.3-0.1-1.2-0.1-2.6c0-1.8,0-3.7,0-5.5c0-0.8,0-1.6,0-2.5c0-0.4,0.1-0.9,0.1-1.3c0-2.4,0-5.2-0.1-6.1c0-0.3,0-0.6,0-0.9
								c0-1.4-0.1-2.5,0-4.1c0-1.1,0-2.3,0-3.4c0-1.1,0-2-0.1-3.1c0-1.1,0-2.3,0-3.5c0-0.8-0.1-0.8-0.1-0.1c0-2,0-4,0-6
								c0.1,0.1,0.1,0.1,0.2,0.2c0.2-3.7,0-8.5,0.1-13.5c0.1-5.4,0-10,0.1-14.4c0.1,7.9,0,15.8,0.1,21.6c0,0,0,0,0,0
								c0,3.6-0.1,7.4,0,11.6c0,2.3,0.1,4.4,0,5c0,0.8,0,1.7,0,2.5c0,0.3,0,0.6,0,1c0,1.2,0,2.4,0,3.5c0,0,0.1,0.1,0.1,0.1
								c0,2.9,0.1,3.7,0.1,4.6c0,3.5,0,7,0,10.5c-0.1,0.9-0.1,1.9,0,3.9c0,7.1-0.1,14-0.1,21C2.8,306.9,2.7,305.9,2.7,304.9z"/>
						</g>
						<g>
							<path class="st50" d="M3,272.6c0-0.9-0.1-1.7-0.1-4.6c0,0-0.1-0.1-0.1-0.1c0-1.1,0-2.3,0-3.5c0-0.3,0-0.6,0-1
								c0-0.8,0-1.7,0-2.5c0.1-0.6,0.1-2.7,0-5c0-4.2,0.1-8,0-11.6c0,0,0,0,0,0c-0.1-5.8,0-13.7-0.1-21.6c-0.1,4.5,0,9.1-0.1,14.4
								c-0.1,5,0.1,9.8-0.1,13.5c-0.1-0.1-0.1-0.1-0.2-0.2c0-0.6,0-1.4,0-2c0-0.8,0-1.6,0.1-2.4c0-1.6-0.1-0.6-0.1-1.6
								c0-1.4,0-2.6,0-4c0-2.8,0-5.6,0-8.6c0-1.5,0-3.7,0-5.5c0-0.9,0-2,0-2.9c0.1-2.5,0.1-3.7,0.1-4.5c0-0.9,0-1.9,0.1-2.9
								c0-0.7,0-1.4,0-2.1c0-1.1,0-2.3,0-3.4c0-1.4,0-2.8-0.1-4.1c0-1.2,0-2.6,0-3.9c0-0.8,0-1.7,0-2.5c0.1-1.3-0.1-1.9,0-5
								c0-0.1,0-0.3,0-0.6c-0.1-2,0-4.5,0-6c0-1,0-1.9,0.1-3c0-1,0-2,0-3c0-1.5,0-3.1,0-4.5c0-0.2,0-0.3,0-0.5c0-1.9,0-3.6,0-5.5
								c0-3.3,0-3.6-0.1-5.5c0-2.9,0-3.5,0-4.6c0-2.8,0-3.6,0-4.4c0-2.3,0-4.7,0-7c0-0.6-0.1-1.2-0.1-2c0-0.4,0-0.7,0-1
								c0-0.9,0-2,0-3c0-1.2,0.1-3.6,0-5.4c0-2.1,0-4,0-6c0-2.2,0-3.8-0.1-6.1c0-1.5,0-2.9,0-4.5c0-4.8,0-5.9,0-9
								c0-1.7,0-3.4-0.1-5.1c0-1.6,0-3,0-4.5c0-0.6,0-1.9,0-3c0.1-6,0-9.2,0-12c0-1.7,0-3.5,0-5c0-1,0-2.1,0-3c0.1-2.7,0-3,0-4.1
								c0,0,0,0,0,0c0-1.5,0-2.9,0-4.5c0-0.1,0-0.3,0-0.5c0-0.9,0-2,0-2.9c0-0.4,0-0.7,0-1.1c0-1.2,0-2.4,0-3.6c0-0.6,0-1.3,0-2
								c0-0.9,0-2,0-3c0-2,0-4,0-5.9c0,2.7,0.1,4.3,0.1,6c0,1,0,2.1,0,3c0,2,0,4.1,0,6.1c0,0.3,0.1,0.7,0.1,1c0,0.7,0,1.4,0,2.1
								c0.1,0.4,0.1,1.9,0.1,3c0,0.4,0,0.8,0.1,1.1c0,1.2,0,2.3,0,3.6c0,0.9-0.1,1.5-0.1,2.8c0.1,0.4,0.3-0.7,0.3,3.3
								c0,3.9,0,8.2,0,12.5c0,1.3,0.1,2.2,0.1,4.6c-0.1-0.2,0,1.2,0,2c0,2.4,0.1,2.9,0,5.5c0,0.4,0,0.7,0,1c0.1,1.6,0.1,1.4,0.1,2.6
								c0.1-2.3,0-2.7,0-3.5c0-0.3,0-0.6,0-0.9c0-1,0-2,0-3c0,1,0,2,0,3c0.1,0.4,0.1,0.7,0.1,1.1c0,0.5,0,1,0,1.6
								c-0.1,2.9-0.1,4.3-0.1,5.8c0,0.4,0,0.7,0,1c0,1.1,0.1,2,0.1,3.1c0,0.3,0,0.6,0,0.9c0,0.8,0,1.7,0,2.5c0,1,0,2.1,0,3
								c0,0.2,0,0.3,0,0.5c0,1,0,2,0,3c0,0.8,0,1.6,0,2.5c0,0-0.1-0.1-0.1-0.1c0,0.3,0,0.6,0,0.9c0,0.2,0,0.4,0,0.5
								c0,1.7,0.1,3.4,0.1,5.1c0-0.1,0-0.3,0-0.5c0,2.1,0,4.1,0,6c0,1.1,0,2,0.1,3.1c0,1.8,0,3.6-0.1,5.5c0.1,3.8,0.1,6.5,0,8.5
								c0,1.9,0,3.6,0,5.5c0,0.5,0,1,0,1.5c0,0.7,0,1.4,0,2.1c0,0.8,0,1.5,0,2.5c0,0.8,0.1,1.6,0.1,2.1c0,1.5,0,3,0,4.5
								c0,5.1,0,10.3,0,15.6c0,1.7,0.1,2.8,0.1,4.6c0,0.3,0,0.6,0,1c0,0.9,0,1.9-0.1,2.9c0,2.4,0,4.7,0,7c0,1.6,0,3,0,4.6
								c0,0.6,0,1.4,0,2c0,12.5-0.1,25-0.1,37.5c-0.1,2.6,0,2.2,0,3c0,2.9,0,5.9-0.1,8.9C3,269.5,3,271.1,3,272.6z"/>
						</g>
						<g>
							<path class="st47" d="M2.5,259c0-0.8,0-1.6,0-2.5c0-0.7,0.1-0.6,0.1,0.1c0,1.2,0,2.4,0,3.5C2.6,259.8,2.5,259.5,2.5,259z"/>
						</g>
						<g>
							<path class="st51" d="M1.6,288.8c0-1,0-1.5-0.1-4c0-1,0-2,0-3c0-0.6,0-1.4,0-2c0-0.2,0-0.3,0-0.6c0-0.5,0.1-1,0.1-1.4
								c0-0.7,0-1.4,0-2.1c0-0.3,0.1-0.6,0.1-0.9c0-1.5,0-3.8-0.1-3.1c0-1.1-0.1-2-0.1-3.1c0-1.7,0-3.3,0-5c0.1,0,0.1-3,0-4
								c0-1.7,0-3.3,0-5c0-1.1,0-2,0-3c0-0.3,0.1-0.6,0.1-0.9c-0.1-3,0-5.6,0-9c0-1.4,0.1-3,0.1-4.4c0-1.8-0.2-0.6-0.1-3.1
								c0-0.6,0.1-1.3,0.1-1.9c0-0.9,0-1.7-0.1-2.6c0-0.2,0-0.4-0.1-0.6c0-0.3,0-0.6,0-1.1c0-0.8,0.1-1.5,0.1-2.4
								c0,1,0.1,1.7,0.1,2.6c0.1-1.5,0.1-2.9,0.1-2.9c0-0.5,0-1.4,0-2.1c0-0.7,0-2.1,0-1.9c0-0.8,0-1.7,0-2.5c0-4,0.1-9,0-12
								c0.1-3.7,0-10.5,0.1-13.9c-0.1-1.8,0-5.8-0.1-8.6c0-2.6,0.1-3.1,0.1-4.9c0.1-0.3,0-3.4,0-5.5c0-1.5,0-2.9,0-4.5
								c-0.1-3.6,0.2-6.2,0-8.9c0-1.7,0-3.3,0-5c0-2.3-0.1-3.6,0-6.1c-0.1-5.7,0.1-10.9-0.1-16.6c0-1.2,0-2.3,0-3c0-3,0-6.1,0-9
								c-0.1-0.5-0.1-2.3,0-5c0.1-3.3-0.1-3.9-0.1-7.2c-0.1-3,0.1-5.9-0.1-9.6c0,1-0.1,1.9-0.1,2.9c0,0.3,0,0.6,0,1
								c0.1,1.1,0,3.6-0.1,4.4c0-1.2,0-2.4,0-3.6c0-1.5,0-3.1-0.1-4.5c0,0,0,0,0,0c0-1.4,0-3,0-4.5c0,0,0,0,0,0c0-0.5,0-1,0-1.6
								c0-0.9,0-2,0-2.9c0-0.4,0-0.7,0-1c0-1.3,0-2.7,0-3.9c0-0.4-0.1-0.8-0.1-1.1c0-0.3,0-0.6,0-1c0-2.9,0-5.9,0.1-8.9
								c0-0.3,0-0.7,0-1.1c0-0.6,0-1.3,0-2c0,0,0,0,0.1,0.1c0-0.6,0.1-1.3,0.1-1.9c0,0.5,0.1,1.1,0.1,1.5C1.9,74,2,77.1,2,80.2
								c-0.1,1.1,0,2.7-0.1,5.5c0,0,0,0,0,0c0,2.6,0,5.3,0,8c0,1.7,0.1,1.3,0.1,2.2c0,0.8,0,1.6,0,2.5c0,2.1,0.1,4.8,0.1,6.6
								c0,11.7,0,21.1,0,32.1c0,2.8-0.1,2.8,0,7c0,1.1,0,2.4,0,3.6c-0.1,4.1,0,6.7-0.1,8.5c0,2.8,0.1,2.1,0.1,3c0,0.7,0,1.4,0,2.1
								c0,2.8,0,3.5,0,4.5c-0.1,2.8,0,3.1,0,4c0,0.2,0,0.3,0,0.5c0,2,0,4,0,6c0,0.4,0,0.9,0,1.5c0,1.4,0,3-0.1,4.4c0,2,0,4.1,0,6.1
								c0,0.8,0,1.7,0,2.5c0,0,0,0,0,0c-0.1,5.2,0,12.3-0.1,16.4c0.1,2.7,0,5.8,0,8.1c-0.1,0.7,0,2.6-0.1,3.9c0,1,0,2,0,3
								c0,3.3,0,7.7-0.1,9.9c0,1.7,0.1,3.4,0.1,5.1c0,0.3,0,0.6-0.1,1c0,1.5,0,2,0,2.5c0,0.1-0.1-0.5-0.1,0.3c0,2.5,0,3.4,0.1,5.1
								c0,1,0,2.1,0,3c0,0.8,0,1.7,0,2.5c0,0.5,0.1,1.1,0.1,1.6c0,0.9-0.1,1.9-0.1,2.8c0,1.3,0,2.4,0,3.6c0,1.1,0,2.4,0,3.6
								c0,0.3,0,0.6,0,0.9c0,1.4,0,2.7,0,4.1c0,0.6,0,1.3-0.1,1.9c0,2.5,0.1,5.1,0,7.5c0,2.3,0,4.7,0,7
								C1.8,286.2,1.7,287.2,1.6,288.8C1.7,288.8,1.6,288.8,1.6,288.8z"/>
						</g>
						<g>
							<path class="st52" d="M2.1,256.2c0-0.8,0-1.6,0-2.5c0-1.6,0-1.9-0.1-2.6c0-0.9,0-2,0-2.9c0-0.8-0.1-1.4-0.1-2.2
								c0,0,0,0-0.1-0.1c-0.1-1.7-0.1-2.6-0.1-5.1c0-0.8,0.1-0.3,0.1-0.3c0-0.5,0-1,0-2.5c0-0.4,0-0.7,0.1-1c0-1.7,0-3.4-0.1-5.1
								C2,229.8,2,225.3,2,222c0-1,0-2,0-3c0-1.3,0-3.2,0.1-3.9c0-2.2,0-5.4,0-8.1c0.1-4.1,0-11.3,0.1-16.4c0,0,0,0,0,0
								c0-0.8,0-1.7,0-2.5c0-2,0-4.1,0-6.1c0-1.4,0-3,0.1-4.4c0-0.5,0-1,0-1.5c0-2.1,0-4.1,0-6c0-0.2,0-0.3,0-0.5c0-0.8,0-1.2,0-4
								c0-1.1-0.1-1.7,0-4.5c0-0.7,0-1.4,0-2.1c0-0.9-0.1-0.2-0.1-3c0.1-1.8,0-4.3,0.1-8.5c0-1.1,0-2.4,0-3.6c-0.1-4.2,0-4.2,0-7
								c-0.1-11-0.1-20.5,0-32.1c0-1.8-0.1-4.5-0.1-6.6c0-0.9,0-1.7,0-2.5C2.1,95,2,95.4,2,93.7c0-2.6,0-5.3,0-8c0,0,0,0,0,0
								c0-2.8,0-4.4,0.1-5.5c0-3-0.1-6.2-0.2-9.3c0-0.4-0.1-1-0.1-1.5c0,0.6-0.1,1.3-0.1,1.9c0,0,0,0-0.1-0.1c0-0.9,0-2,0-3
								c0-0.7-0.1-1.5-0.1-3.5c0-1.6,0-3,0-4.5c0-0.4,0-0.7,0-1c0-0.8,0-1.7,0-2.5c0-3.2-0.1-5.7-0.1-9.6c0-2.7,0-5.4,0-8
								c0-0.2,0-0.3,0-0.5c0,0,0,0,0.1,0.1c0,1.1,0,2,0,3.1c0,0,0,1.6,0.1,1.1c0-3.8,0.1-4.4,0.1-7.4c0-0.7,0-1.4,0-2.1
								c0-1.6,0.1-3.3,0.1-4.9c0,2.2,0,4.4,0,6.6c0,4.5,0,9.8,0,13.9c0,2.6,0.1,3,0.1,5.1c0.1,3,0.1,6,0.2,9.2c0,0.5,0.1,1,0.1,1.6
								c0,1.2,0,2.3,0,3.6c0,0.1,0,0.3,0,0.4c0,1.3-0.1,2.6-0.1,4c0,0.6,0.1,1,0.1,1.6c0-0.9,0-1.9,0.1-3c0,0,0,0,0.1,0.1
								c0,0.2,0,0.4,0,0.5c0,1.6,0,3,0,4.5c0,1.1,0,2.4,0,3.5c0,0.1,0,0.4,0.1,0.6c0,0.9,0,2,0,3c0,1.6,0,3.4,0,5
								c0.1,2.9,0.1,6,0,12c0,1.1,0,2.4,0,3c0,1.5,0,2.9,0,4.5c0,1.7,0,3.3,0,5c0,3,0,6,0.1,9c0,0.8,0,1.7,0,2.5c0,1.3,0,2,0,3.1
								c0,3.7,0,7.3,0,11.1c0,2.8,0,5.7,0,8.5c0,0,0,0,0,0c0,0.3,0,0.6,0,1c0,0.9,0,2,0,3c0,2,0,4.3,0,6c0,0.3,0,0.6,0,1
								c0,1.2,0,2.3,0.1,3.5c0,0.8,0,1.7,0,2.5c0,0.8,0.1,1.2,0.1,2.1c0,0.8,0,1.5,0,2.5c0,0.9,0,1.7,0,2.5c0,1.6,0,3.3,0,5
								c0,0.9,0,2,0,2.9c0,0,0,0,0,0c0,1,0,2.1,0,3c0,0,0,0,0,0c0,1.1,0,2,0,3c0,1,0,2,0,3c0,1.5,0,4,0,6c0,1.1,0,2.4-0.1,3.5
								c0,1.3,0,3.2,0,4.5c0,0.6-0.1,1.3-0.1,1.9c0,0.8,0,1.4,0.1,2c0,1.6,0,3,0,4.6c0,0,0,0,0,0c0,0.9,0,2,0,2.9c0,1.7,0,3.4,0,5
								c0,0,0,0,0,0c-0.1-2.9-0.1-5.2-0.1-8c0,0,0,0,0,0c-0.1,4.4,0,8.2-0.1,9.9c0,4-0.1,10.6,0,15c0,0.6-0.1,1.3-0.1,1.9
								c0,0.5,0,0.9,0,1.5c0,1,0,2,0,3c0,0,0.1,0.1,0.1,0.1c0,1.2,0.1,2.5,0.1,3.7c0-0.5,0-1,0.1-1.5c0,1.1,0.1,0.1,0.1,1.6
								c0,0.8,0,1.6-0.1,2.4c0-0.4-0.1-0.8-0.1-1.1c0,0.6-0.1,1.3-0.1,1.9c0,2.7,0,5.8-0.1,9C2.2,257.6,2.1,256.9,2.1,256.2z"/>
						</g>
						<g>
							<path class="st47" d="M1.9,251.5c0-0.8,0-1.7,0-2.5c0-0.9,0-2,0-3c0,0,0,0,0.1,0.1c0,0.8,0.1,1.4,0.1,2.2c0,0.9,0,2,0,2.9
								c0,0.7,0,1.3-0.1,2C2,252.6,2,252,1.9,251.5z"/>
						</g>
						<g>
							<path class="st47" d="M3.2,93.4c0-0.6,0-1.4,0-2c0-2,0-4.1,0-6c0,0,0,0,0.1,0.1c0-1.5,0-3,0-4.5c0-0.3,0-0.6,0-1
								c0.1,1.1,0.1,4,0,5.5c0,0.2,0,0.4,0.1,0.6c0,2.5,0,5,0,7.5c0,1.9,0,3.6,0,5.5c0,0.1-0.1,0.2-0.1,0.4
								C3.2,97.4,3.2,95.4,3.2,93.4z"/>
						</g>
						<g>
							<path class="st49" d="M1.5,26c-0.2,0.6,0-7.1-0.2-5.2c0,0.2-0.1,0.2-0.1,0.4c0,0-0.1-0.1-0.1-0.1c0-1,0-2,0-3
								c0-0.3-0.1-0.7-0.1-1c0-1.4,0-2.8-0.1-4.1c0.1-1.4,0.2-1.3,0.2-1.3c0,0.9,0,1.7,0,2.5c0-0.2,0.1-0.3,0.1-0.4c0,0,0,0,0,0
								c0,0,0.1,0.1,0.1,0.1c0-1.1,0-2.4,0-3.5c0-0.1,0-0.3,0.1-0.4c0.1-0.4,0.1-0.6,0.2-0.9c0,1.7,0,3.4,0,5c0,0.1,0,0.3,0,0.5
								c0,0-0.1-0.1-0.1-0.1c0,0.5,0,0.9,0,1.4c0,1.4,0.1,2.8,0.1,4.2c0.1-0.4,0.1-0.6,0.2-0.9c0,0,0,0,0,0c0,0.1,0.1,0.4,0.1,0.6
								c0-0.5,0-1,0.1-1.5c0-0.1,0.1-0.2,0.1-0.3c0,0,0,0,0,0c0,0.9,0,2,0,3C2.2,23,2.1,23.7,2,24c0,0-0.1-0.1-0.1-0.1
								c0,0.2,0,0.3-0.1,0.5c0-0.6-0.1-1.1-0.1-1.6c0,0.1-0.1,0.3-0.1,0.3c0-0.1,0-0.3,0-0.5C1.6,23.8,1.6,24.9,1.5,26z"/>
						</g>
						<g>
							<path class="st47" d="M0.9,19.5c0-0.9,0.1-1.6,0.1-2.4c0,0.3,0.1,0.7,0.1,1c0,1,0,2,0,3c0,0.3-0.1,0.6-0.1,1
								C1,21.1,0.9,20.3,0.9,19.5z"/>
						</g>
						<g>
							<path class="st47" d="M2,3C1.9,3.6,1.9,4.1,1.8,4.8c0,0,0,0,0,0c0-0.2,0-0.5-0.1-0.6c-0.1,0-0.2,0.1-0.3,0.3
								C1.3,5,1.3,6,1.3,4.3c0-0.5,0-1,0-1.6c0,0,0.1,0.1,0.1,0.1c0.1-1.1,0.2-3.7,0.3-0.7C1.8-0.1,1.9-1.2,2,2
								c0.1,0.6,0.2,1.2,0.2,1.7c0,0.5,0,1,0,1.6c0,0.3,0,0.6,0,0.9C2.1,5.1,2.1,4,2,3z"/>
						</g>
						<g>
							<path class="st48" d="M1.5,300.3c0.1-0.4,0.2,1,0.2-2.3c0,1.7,0,3.4,0,5c-0.1,1.6-0.2,2.2-0.2-0.2
								C1.5,301.9,1.5,301.1,1.5,300.3z"/>
						</g>
						<g>
							<path class="st48" d="M2.6,304.8c0-0.4-0.1-0.7-0.1-1.1c-0.1-5.4,0.1-2.3,0-6c0-0.8,0-1.7,0-2.5c0-1,0-1.9,0.1-3
								c0,1.9,0,3.7,0,5.6C2.6,300.2,2.7,302.5,2.6,304.8C2.6,304.8,2.6,304.8,2.6,304.8z"/>
						</g>
						<g>
							<path class="st48" d="M2.6,287.2c-0.1-1.5-0.2-0.1-0.2-3.6c0-1.4,0.1-1.3,0.2-1.9C2.6,283.6,2.6,285.5,2.6,287.2z"/>
						</g>
						<g>
							<path class="st48" d="M1.2,279.9c0-0.8,0-1.7,0-2.5c0-1,0-2.1,0-3c0-1.1,0-2,0-3c0-0.1,0-0.3,0.1-0.5c0,0,0,0,0,0
								c0,1.1,0,2.4,0,3.5c0,0.6,0,1.4,0.1,2c0,0.3,0,0.6,0,1c0,1.2,0,2.3,0,3.5c0,0.2,0,0.4,0,0.5C1.3,281,1.3,280.4,1.2,279.9z"/>
						</g>
						<g>
							<path class="st48" d="M2.1,278.8c-0.1-3.3-0.1-5.4,0-5.9C2.2,276,2.2,277.8,2.1,278.8z"/>
						</g>
						<g>
							<path class="st48" d="M3,268.1c0-3,0-6,0.1-8.9c0-0.4,0-0.7,0-1c0-0.6,0-1.4,0-2c0-12.5,0.1-25,0.1-37.5
								c0,0.4,0.1,0.7,0.1,1.1c0,3.6-0.1,7.1,0,10c0,3.4,0.1,6.4,0,10.1c0,0.2-0.1-0.4-0.1,0.4c0,3.5,0.2,6.9,0,9.5
								c0,1.6,0,3.1,0.1,4.6c0,1.1,0,2.3,0,3.4c0,0.4,0,0.7,0,1c0,1.1,0,2.3,0,3.4c0,1.9,0.1,4.9,0,5.5c0,1,0,1.9,0,3.1
								c-0.1-0.5-0.1,1.3-0.2,1.8C3,271.1,3,269.5,3,268.1z"/>
						</g>
						<g>
							<path class="st48" d="M1.4,248.4c0-0.9,0-2,0-3c0,0,0,0,0.1,0.1C1.4,246.5,1.4,247.5,1.4,248.4
								C1.4,248.5,1.4,248.4,1.4,248.4z"/>
						</g>
						<g>
							<path class="st48" d="M1.4,237.5c-0.1-1.6-0.1-2.9,0-3C1.4,235.4,1.4,236.4,1.4,237.5z"/>
						</g>
						<g>
							<path class="st48" d="M1.4,226.5c-0.1-6.7,0-11.6,0-17c-0.1-6.5,0-15.8,0-22.5c0-0.5,0-1.6,0-2.5c0-0.2,0-0.3,0-0.5
								c0-10.6,0.1-20.1,0-30.1c0-0.8,0-2.3,0-3.4c-0.1-3.7,0-9.4,0-14.1c-0.1-1.5,0-5.3,0-7.6c0-5.4-0.1-10.1,0-15.6
								c0,0.5,0.1,1.1,0.1,3.1c0,0,0.1,0.1,0.1,0.1c0,2.7,0,5.3,0,8.1c0,0.1-0.1,0.3-0.1,0.4c0,1,0.1,2,0.1,3.1c0,2.8,0,5.6,0,8.5
								c0,1.5,0,3.7,0,5c0,1,0,2,0,3c0,1.7,0,3.4,0,5c0,1.5,0,3,0,4.5c0,0.2,0,0.3,0,0.5c0,1.2,0,2.3,0,3.6c0,1.1,0,2.3,0,3.5
								c0,1.2,0,2.4,0,3.6c0,1.1,0,2.3,0,3.4c0,3.3,0,6.7,0,10c0,1,0,2.1,0,3c0,1,0,2,0,3c0,0.6,0,1.4,0,2c0,0.9,0,2.6-0.1,2.4
								c0,2.1,0,4.4,0,6.6c-0.1,2.2-0.1,9-0.1,12.3c0,5.4,0,9.2,0,15.5C1.5,224.5,1.5,225.4,1.4,226.5z"/>
						</g>
						<g>
							<path class="st48" d="M3.1,212c0-2.3,0-4.6,0-7c0-0.9,0-1.9,0.1-2.9c0.1,1,0,4,0.1,5c0.1,1.3,0,3.4-0.1,5c0,1.2,0,2.4,0,3.5
								c0-0.2,0,0.6-0.1,0.9C3.1,215.1,3.1,213.6,3.1,212z"/>
						</g>
						<g>
							<path class="st48" d="M3.1,181c0-1.5,0-3,0-4.5c0-0.5,0-1,0-1.5c0-2.5-0.1-1.6-0.1-3c0-0.7,0-1.4,0-2.1c0-0.4,0-0.9,0-1.5
								c0-1.9,0-3.6,0-5.5c0.1-1.9,0-4.7,0-8.5c0-1.9,0-3.7,0.1-5.5c0-1.1,0-2-0.1-3.1c0-2,0-3.9,0-6c0-2,0-4,0-5.9
								c0-0.8,0-1.6,0-2.5c0-1,0-2,0-3c0-0.2,0-0.3,0-0.5c0-0.9,0-2,0-3c0-0.9,0.1-1.9,0.1-2.8c0-1.2,0-1.8,0-3c0-1.4,0-2.7,0-4.1
								c0-0.9,0-2,0-2.9c0-0.2-0.1-0.5-0.1-0.6c0-0.5,0-1,0-1.6c0-1.4,0-2.9,0.1-4.4c0-1.9,0-3.7,0-5.5c0-0.1,0-0.3,0-0.4
								c0-0.2,0.1-0.3,0.1-0.4c0,1,0,2,0.1,3.1c0,0.9,0,2,0,2.9c0,1.2,0,2.4,0,3.6c0,1.1,0,2.6,0,4c0,1,0,2.1,0,3
								c0,4.2,0,8.3-0.1,12.5c0,0.3,0,0.6,0,1.1c0,1.7,0,3.3-0.1,5c0,0.6,0,1.4,0,2c-0.1,2.5-0.1,3.6,0,4.4c0,0.8,0,1.7,0,2.5
								c0,2.2,0.1,0.7,0.1,2.6c0,0.6-0.1,1.3-0.1,1.9c0,1.6-0.1,4.3,0,4.6c0,1.2,0,3.6,0,5c0,1.9,0,2.2,0,4.5
								c-0.1,0.2-0.1,0.8,0,2.5c-0.1,3.7-0.1,7.9,0,10.9c0,1.4-0.1,3.6,0,4.1c0,4.1,0,6.7,0,10.6c0.1-1,0.1,2.7,0,3.5
								c-0.1,1.6,0,5.9-0.1,7.9c0-1.8-0.1-2.9-0.1-4.6C3.1,191.3,3.1,186.1,3.1,181z"/>
						</g>
						<g>
							<path class="st48" d="M1.4,109.6c0-2.1-0.1-5.8,0-7C1.4,103.8,1.4,105.9,1.4,109.6z"/>
						</g>
						<g>
							<path class="st48" d="M1.3,95.5c0-1.5,0-4.4,0-5.4C1.4,90,1.4,92.1,1.3,95.5z"/>
						</g>
						<g>
							<path class="st48" d="M1.3,88c-0.1-2-0.1-3.5,0-5c0-1.4,0-2.6,0-4c0,0.4,0.1,1,0,4C1.3,84.6,1.3,86.3,1.3,88z"/>
						</g>
						<g>
							<path class="st48" d="M1.3,75c-0.1-2.1-0.1-3.6,0-5c0-1.4,0-2.7,0-4.1c0-1.5,0-3,0-4.5c0-3-0.1-4.7-0.1-8.6
								c0-1.5,0-2.9,0-4.5c0-1.3,0-2.1,0-3.4c0,0.3,0.1,0.7,0.1,1c0,1,0,2,0,3c0,1.3,0,2.6-0.1,3.9c0,0.4,0.1,0.8,0.1,1.1
								c0,0.8,0,2.4,0,3.1c0,0.3,0,0.6,0,0.9c0,1.1,0,3.1,0,4.1c0,0.3,0,0.6,0,0.9c0,1,0,2.1,0,3c0,1.8,0.1,1.3,0,4.1
								C1.3,71.6,1.3,73.3,1.3,75z"/>
						</g>
						<g>
							<path class="st48" d="M1.1,36.2C1,36,1,32.6,1,30.6c-0.1-1.8,0-5.5-0.1-5.7c0-1.8,0-1.8,0.1-2.8c0-0.4,0.1-0.7,0.1-1
								c0,2.2,0,4.4,0,6.5c0,0.5,0,1,0,1.6c0,0.1,0,0.3,0,0.5c0,0.4,0,1,0,1.5C1.1,32.9,1.1,34.5,1.1,36.2z"/>
						</g>
						<g>
							<path class="st48" d="M0.9,19.5c0,0.3-0.1,0.7-0.1-0.1c-0.1-0.5-0.1-1.2-0.1-2.2c0-1.6,0.1-2,0.2-4.3c0-0.4-0.1-0.7-0.1-1.1
								C0.9,11.6,0.9,7.1,0.9,7c0,0,0,0,0,0C1,6.1,1.1,4.8,1.1,4.1c0,0,0.1,0.1,0.1,0.1C1.3,6,1.3,5,1.4,4.4
								c0.1-0.1,0.2-0.2,0.3-0.3c0,0.1,0,0.4,0.1,0.6c0,1.4,0,3-0.1,4.4C1.6,9.4,1.6,9.7,1.5,10c0,0.1,0,0.3-0.1,0.4
								c0,0.5-0.1,1-0.1,1.4c-0.1-0.1-0.1-0.1-0.2-0.2c0,0-0.1-0.1-0.2,1.3C1,14.3,1,15.7,1,17.1C1,17.9,0.9,18.6,0.9,19.5z"/>
						</g>
						<g>
							<path class="st48" d="M2.6,6.5C2.6,6,2.5,5.4,2.5,4.5c0-1.9,0.1-2,0.2-1.8C2.8,3.8,2.7,5.6,2.6,6.5C2.7,6.6,2.6,6.6,2.6,6.5z
								"/>
						</g>
						<g>
							<path class="st51" d="M2.6,291.3c0-1-0.1-4,0-4.1c0,1.4,0.1,0.4,0.1,2.6C2.7,290.3,2.6,290.8,2.6,291.3z"/>
						</g>
						<g>
							<path class="st51" d="M2.6,279.2c-0.1-0.4,0-1.8,0-2.5c0-1.6,0-3.3,0.1-5c0.1,0.9,0.1,3.8,0.1,6.1
								C2.7,278.4,2.7,278.8,2.6,279.2z"/>
						</g>
						<g>
							<path class="st51" d="M1.5,60.2c0,1.5,0,2.9,0,4.5c0,2.1,0.1,2.9,0.1,3.5c0-0.7-0.1-1.5-0.1-3.5C1.5,63.1,1.5,61.6,1.5,60.2z
								"/>
						</g>
						<g>
							<path class="st51" d="M1.4,59.1c0-1.2,0-2.6-0.1-3.6c0-0.6,0-1.4,0-2c0-1.2,0-2.3,0-3.5c0-1,0-2.1,0-3c0-1.1,0-2.7-0.1-4.1
								c0-1.1,0-2.3,0-3.4c0,0.1,0.1,0,0.1-0.9c0,0.2,0,0.3,0,0.5c0,2.6,0,5.3,0,8c0,3.9,0.1,6.4,0.1,9.6
								C1.5,57.5,1.5,58.3,1.4,59.1C1.5,59.1,1.5,59.1,1.4,59.1z"/>
						</g>
						<g>
							<path class="st51" d="M1.1,21.1C1.1,21.1,1.1,21.2,1.1,21.1c0.1,1.5,0.1,2.7,0.1,4.1c0,1.4,0,1.6-0.1,2.4
								C1.1,25.5,1.1,23.3,1.1,21.1z"/>
						</g>
						<g>
							<path class="st49" d="M2.7,318.5c-0.1-1.9-0.1-5.4-0.1-8.1c0-0.1,0.1-0.2,0.1-0.4C2.8,312.9,2.7,315.7,2.7,318.5z"/>
						</g>
						<g>
							<path class="st49" d="M3,259.1c0-0.9-0.1-0.4,0-3c0,0.6,0,1.4,0,2C3.1,258.4,3,258.7,3,259.1z"/>
						</g>
						<g>
							<path class="st49" d="M2.4,246c0-1.2-0.1-2.5-0.1-3.7c0,0-0.1-0.1-0.1-0.1c0-1,0-2,0-3c0-0.5,0-1,0-1.5
								c0-0.6,0.1-1.3,0.1-1.9c-0.1-4.4,0-11,0-15c0.1-1.7,0-5.5,0.1-9.9c0,0,0,0,0,0c0,2.8,0,5.1,0.1,8c0,0,0,0,0,0
								c0-1.6,0-3.3,0-5c0-0.9,0-2,0-2.9c0,0,0,0,0,0c0-1.6,0-3,0-4.6c0-0.6,0-1.3-0.1-2c0-0.6,0.1-1.3,0.1-1.9c0-1.3,0-3.2,0-4.5
								c0-1.1,0-2.4,0.1-3.5c0,0.2,0,0.4,0,0.6c-0.1,3.1,0.1,3.7,0,5c0,0.8,0,1.7,0,2.5c0,1.4,0,2.7,0,3.9c0,1.4,0,2.8,0.1,4.1
								c0,1.1,0,2.3,0,3.4c0,0.7,0,1.4,0,2.1c0,0.9,0,1.9-0.1,2.9c0,0.9,0,2-0.1,4.5c0-0.5,0-1.1-0.1-1.6c-0.1,2.9,0,3.4,0,4.5
								c0,1.9,0,4.1,0,5.5c0,2.9,0,5.7,0,8.6c0,1.4,0,2.6,0,4C2.4,245,2.4,245.5,2.4,246z"/>
						</g>
						<g>
							<path class="st49" d="M2.5,185.4c0-1.1,0-2,0-3c0,0,0,0,0,0c0-0.9,0-2,0-3c0,0,0,0,0,0c0-0.9,0-2,0-2.9c0-1.7,0-3.4,0-5
								c0-0.8,0-1.6,0-2.5c0-0.9,0-1.6,0-2.5c0,1.9,0.1,2.2,0.1,5.5c0,1.9,0,3.6,0,5.5c0,0.2,0,0.3,0,0.5c0,1.5,0,3,0,4.5
								C2.6,183.5,2.6,184.5,2.5,185.4c0,1.1,0,2,0,3C2.5,187.4,2.5,186.5,2.5,185.4z"/>
						</g>
						<g>
							<path class="st49" d="M3.1,176.5c0-0.5-0.1-1.3-0.1-2.1c0-0.9,0-1.6,0-2.5c0,1.4,0.1,0.5,0.1,3C3.2,175.5,3.1,176,3.1,176.5z
								"/>
						</g>
						<g>
							<path class="st49" d="M2.5,147.3c0-2.8,0-5.7,0-8.5c0-3.8,0-7.4,0-11.1c0-1-0.1-1.7,0-3.1c0-0.8,0-1.7,0-2.5c0-3,0-6-0.1-9
								c0-1.7,0-3.3,0-5c0,1.7,0,3.4,0.1,5.1c0,3.1,0.1,4.2,0,9c0,1.6,0,3.1,0,4.5c0,2.3,0,3.9,0.1,6.1c0,2,0,3.9,0,6
								c0,1.8,0,4.2,0,5.4C2.5,145.4,2.5,146.4,2.5,147.3C2.5,147.3,2.5,147.3,2.5,147.3z"/>
						</g>
						<g>
							<path class="st49" d="M3.1,122.3c0-0.3,0-0.6,0-0.9c0-1.1,0-2-0.1-3.1c0-0.3,0-0.6,0-1c0-1.5,0.1-2.9,0.1-5.8
								c0,0.1,0.1,0.4,0.1,0.6c0,0.9,0,2,0,2.9c0,1.4,0,2.7,0,4.1c0,1.2,0,1.8,0,3c0,0.9-0.1,1.9-0.1,2.8
								C3.1,124,3.1,123.2,3.1,122.3z"/>
						</g>
						<g>
							<path class="st53" d="M2.9,110.6c0-0.3,0-0.6,0-1c0,0,0,0,0,0c0-2.6,0-3.1,0-5.5c0-0.8,0-2.2,0-2c0-2.4,0-3.3-0.1-4.6
								c0-4.3,0-8.6,0-12.5c0-3.9-0.2-2.9-0.3-3.3c0-1.4,0.1-1.9,0.1-2.8c0-1.3,0-2.4,0-3.6c0-0.3,0-0.7-0.1-1.1c0-1.2,0-2.6-0.1-3
								c0-0.7,0-1.4,0-2.1c0-0.3-0.1-0.7-0.1-1c0-2,0-4,0-6.1c0-0.9,0-2,0-3c0.1-1.7,0-3.3-0.1-6c0-0.4,0-0.7,0-1
								c0-0.5,0.1-0.9,0.1-1.3c0-1.9,0-3.7,0-5.6c0-1.1,0-2-0.1-3.1c0-0.9,0-2,0-3c0,0,0,0-0.1-0.1c0-0.6,0-1.4,0-2c0-1.5,0-3,0-4.5
								c-0.1-1.2-0.1-2.5-0.2-3.7c0-0.4,0-0.9,0-1.5c0.1-0.2,0.1-0.8,0.1-1.4c0-1-0.1-0.5-0.1-0.6C2,24.6,2,23.6,2,24
								c0.1-0.4,0.2-1,0.1-2.9c0-1,0-2,0-3c0-1.8,0-2.7,0-3.5c0-1.1,0-2.4,0-3.5c0,0,0.1,0.1,0.1,0.1c0,0.7,0,1.4,0,2.1
								c0.1-0.1,0.2-0.2,0.3-0.2c0,0,0,0,0,0c0,0.5,0,0.9,0,1.5c0,0.2,0,0.3,0,0.5c0,1.7,0,3.3,0,5c0,0.3,0,0.6,0,1c0,0.9,0,2,0,2.9
								c0,0.8,0.1,1.2,0.1,2.1c0,0.6,0,1.3,0,2c0,0.9,0,1.9-0.1,3c0,1.8,0,3.9,0,6c0-0.3,0.1-0.5,0.1-0.8c0-1.6,0-3,0-4.6
								c0.1,1.2,0,3.7,0.1,3.6c0,1.9,0,3.7,0,5.5c0,3.4,0.1,5.9,0.1,10.7c0-3.9,0.1-3.7,0.1-4.5c0,0.4,0,0.8,0.1,1.1c0,1,0,2,0,3
								c0.1,0.1,0.1,0.1,0.1,0.1c0,0.8,0,1.7,0,2.5c0,0.1,0,0.3-0.1,0.5c0,4-0.1,4.7-0.1,7.5c0,0,0,0,0,0c0,1.3,0,2.6,0,4
								c0,1.4,0,2.6,0,4c0,0.2,0.1,0.5,0.1,0.6c0,2.4,0,4.7,0,7c-0.1,0.7-0.1,1.2-0.2,1.9c-0.1-1.1,0-4.5-0.1-4.7c0,0.7,0,1.3-0.1,2
								c0,1,0,2.3,0,3c0,5,0,8.7,0,13.1c0,2,0,4.1,0,6c0,0.8,0,1.7,0,2.5c0,1.5,0,3,0,4.5c0,1,0,2,0,3c0,0.3,0,0.6,0,0.9
								c0,0.8,0,1.2,0,3.5C3,112.1,2.9,112.2,2.9,110.6z"/>
						</g>
						<g>
							<path class="st49" d="M3.1,108.8c0-1,0-2,0-3c0-1.5,0-3,0-4.5c0-0.5,0.1-1,0.1-1.5c0-0.3-0.1-0.7-0.1-1c0-2,0-4.1,0-6
								c0-0.5,0.1-0.9,0.1-1.3c0,0.6,0,1.4,0,2c0,2,0,4,0,6.1c0,0.1,0,0.3,0,0.4c0,1.9,0,3.7,0,5.5c0,1.5,0,3-0.1,4.4
								C3.1,109.5,3.1,109.2,3.1,108.8z"/>
						</g>
						<g>
							<path class="st49" d="M2.4,100.6c0.1-6,0-9.2,0-12C2.5,91.5,2.5,94.7,2.4,100.6z"/>
						</g>
						<g>
							<path class="st50" d="M3.1,74.7c0.1,0.2,0,3.6,0.1,4.7c0.1-0.7,0.1-1.2,0.2-1.9c0,0.8,0,1.7,0,2.5c0,0.4,0,0.7,0,1
								c0,0-0.1-0.1-0.1-0.1c0,2.5,0.1,2.9,0,4.5c0,2,0,4.1,0,6c0,0.5-0.1,0.9-0.1,1.3c0-4.4,0-8.1,0-13.1c-0.1-0.7,0-1.9,0-3
								C3,76,3,75.4,3.1,74.7z"/>
						</g>
						<g>
							<path class="st49" d="M3.2,85.4c0-1.6-0.1-2,0-4.5c0,0,0.1,0.1,0.1,0.1C3.3,82.4,3.3,84,3.2,85.4C3.3,85.4,3.3,85.4,3.2,85.4
								z"/>
						</g>
						<g>
							<path class="st49" d="M2.3,80c0-1.1,0-2.4,0-3.5c0,0,0,0,0,0c0,1.1,0.1,1.4,0,4.1C2.3,80.3,2.3,80.1,2.3,80z"/>
						</g>
						<g>
							<path class="st49" d="M2,72.7c0-1.3,0.1-2.6,0.1-4c0-0.1,0-0.3,0-0.4c0-1.3,0-2.4,0-3.6c0-0.3-0.1-0.7-0.1-1.1
								c0-2.9-0.1-4.8-0.1-8.6c-0.1,0.4,0-3.3-0.1-2.6c-0.1-6.2,0.1-11.9,0-18.1c0-1.2,0-2.7,0-3.6c-0.1,0.7-0.1,2.3-0.1,2.4
								c0,0,0,0-0.1-0.1c0-1.4,0-2.6,0-4c0-0.5,0-1,0.1-1.4c0,0.2,0.1,0.4,0.1,0.6C1.9,31.8,2,33.7,2,36.5c0,1.2,0,2.4,0.1,3.6
								c0-1.1,0-2.4,0-3.5c0,0,0.1,0.1,0.1,0.1c0,0.6,0,1.4,0,2c0,1,0,2.1,0,3c0,1,0,2,0,3c0,2.5,0.1,4.4,0.1,7.1c0,0,0,0,0,0
								c0,0.3,0,0.6,0,1c0,2,0,4,0,5.9c0,1.1,0,2.1,0,3c0,0.6,0,1.3,0,2c0,1.2,0,2.4,0,3.6c0,0.3,0,0.6,0,1.1c0,0.9,0,2,0,2.9
								c0,0,0,0-0.1-0.1c0,1,0,2-0.1,3C2.1,73.7,2.1,73.3,2,72.7z"/>
						</g>
						<g>
							<path class="st50" d="M3,51.6c0-4.7-0.1-7.3-0.1-10.7c0-1.9,0-3.7,0-5.5c-0.1,0,0-2.4-0.1-3.6c0,1.6,0,3,0,4.6
								c0,0.3-0.1,0.5-0.1,0.8c0-2,0-4.2,0-6c0-1,0-2,0.1-3c0-0.7,0-1.4,0-2c0-0.9,0-1.4-0.1-2.1c0-0.9,0-2,0-2.9
								c0,0.4,0.1,0.7,0.1,1.1c0-0.9,0-2,0-3c0-0.1,0-0.3,0-0.4c0,0,0,0,0.1,0.1c0,0,0.1,0.1,0.1,0.1c0.1-0.5,0.1-1.2,0.2-0.9
								c0,0.6,0,1.4,0,2c0,0.5-0.1,1-0.1,1.5c0,2.2,0,4.5,0.1,6c0,0,0.1,0.1,0.1,0.1c0,1.9,0,3.6,0,5.5c0,1.9,0,3.7,0,5.6
								c0,1.5,0,3.1,0,4.5c0,1.7,0,3.4,0,5c0,1,0,2,0,3c0,0-0.1-0.1-0.1-0.1c0-1,0-2,0-3c0-0.3,0-0.7-0.1-1.1
								C3.1,47.9,3,47.8,3,51.6z"/>
						</g>
						<g>
							<path class="st49" d="M3.2,27.7c0,0-0.1-0.1-0.1-0.1c-0.1-1.5-0.1-3.8-0.1-6c0-0.5,0.1-1,0.1-1.5c0,1.2,0,2.4,0,3.6
								C3.2,24.3,3.2,26.3,3.2,27.7z"/>
						</g>
						<g>
							<path class="st49" d="M2.6,21.2c0-0.4,0-0.7,0-1c0-1.7,0-3.3,0-5c0,1.2,0.1,2.4,0.1,3.6c0,0.1,0,0.3,0,0.4c0,1,0,2.1,0,3
								C2.7,21.9,2.7,21.5,2.6,21.2z"/>
						</g>
						<g>
							<path class="st49" d="M3,19c0,0-0.1-0.1-0.1-0.1c0-1.2,0-2.4,0.1-3.5c0,0.1,0,0.4,0.1,0.6c0.1,0.7,0.1,1.5,0.2,2.1
								C3.1,17.8,3.1,18.5,3,19z"/>
						</g>
						<g>
							<path class="st49" d="M2.7,13.1c0-3-0.1-5,0-6.6c0,0,0,0,0.1,0.1c0,0.4,0.1,0.8,0.1,1.1C2.7,9.6,2.7,11.3,2.7,13.1
								C2.7,13.2,2.7,13.2,2.7,13.1z"/>
						</g>
						<g>
							<path class="st52" d="M2.6,310.4c0-1.4,0-2.7-0.1-4c0-0.5,0-1,0-1.6c0,0,0,0,0.1,0.1c0,1.1,0.1,2.1,0.1,3.1c0,0.6,0,1.4,0,2
								C2.7,310.1,2.7,310.3,2.6,310.4z"/>
						</g>
						<g>
							<path class="st52" d="M2.4,226.4c0-1.1-0.1-1.6,0-4.5c0,0.5,0,1.1,0.1,1.6C2.5,224.4,2.4,225.5,2.4,226.4z"/>
						</g>
						<g>
							<path class="st52" d="M1.4,34.5c0-2.2-0.1-4.2-0.2-5.2c0,0-0.1-0.1-0.1-0.1c0-0.5,0-1,0-1.6c0-0.8,0.1-1,0.1-2.4
								c0-1.4,0-2.6-0.1-4c0-0.2,0.1-0.2,0.1-0.4c0.3-1.8,0.1,5.9,0.2,5.2c0-0.8,0-1.7,0-2.5c0.1,0.6,0.1-0.8,0.1-0.8
								c0,0.1,0,0.3,0,0.5c0,1.4,0,2.7,0,4.1c0,0.1,0,0.3,0,0.5c0,0.4,0,0.9-0.1,1.4c-0.1,0.6-0.1,3-0.1,4.4
								C1.5,33.8,1.5,34.1,1.4,34.5z"/>
						</g>
						<g>
							<path class="st52" d="M2.8,18.8c0-1.3-0.1-2.5-0.1-3.6c0-0.2,0-0.3,0-0.5c0.1,0.3,0.2,0.5,0.2,0.7
								C2.9,16.5,2.9,17.6,2.8,18.8C2.8,18.8,2.8,18.8,2.8,18.8z"/>
						</g>
						<g>
							<path class="st52" d="M1.3,13.8C1.3,13.8,1.3,13.8,1.3,13.8c0-0.6,0-1.4,0-2c0-0.5,0.1-1,0.1-1.4c0,1.1,0,2.4,0,3.5
								C1.4,13.9,1.4,13.9,1.3,13.8z"/>
						</g>
						<g>
							<path class="st50" d="M3,101.3c0-0.8,0-1.7,0-2.5c0,0.3,0.1,0.7,0.1,1C3.1,100.3,3.1,100.8,3,101.3z"/>
						</g>
						<g>
							<path class="st50" d="M3.2,69.8c0-1.4,0-2.6,0-4c0-1.4,0-2.7,0-4c0,0,0,0,0,0c-0.1-2.8,0.1-3.5,0.1-7.5c0-0.2,0-0.4,0.1-0.5
								c0,3.3,0.1,5.2,0,7.6c0,3,0,5.9,0,9C3.3,70.3,3.3,70.1,3.2,69.8z"/>
						</g>
						<g>
							<path class="st50" d="M2.7,61.3c0-1,0-2.1,0-3c0-0.7,0.1-1.3,0.1-1.9c0.1-5-0.1-7.8,0-12.1c0,0,0,0,0,0c0,1.9,0,3.7,0,5.6
								c0,3.2,0,7.7,0,11.6C2.8,61.4,2.7,61.3,2.7,61.3z"/>
						</g>
						<g>
							<path class="st50" d="M2.3,51.9c0-2.6,0-4.5-0.1-7.1c0-1,0-2,0-3c0-0.9,0-2,0-3c0,0,0,0,0.1,0.1c0,1.1,0,2.1,0,3
								c0,1.1,0.1,2,0.1,3.1c0,1.9,0,3.7,0,5.6C2.4,51,2.4,51.4,2.3,51.9C2.3,51.9,2.3,51.9,2.3,51.9z"/>
						</g>
						<g>
							<path class="st50" d="M2.1,40.1C2,38.2,2,37.3,2,36.5c0-2.8-0.1-4.8-0.2-8.2c0-1.3,0-2.6,0-3.9c0-0.2,0-0.3,0.1-0.5
								C2,23.9,2,24,2,24c0-0.5,0,0.6,0,1.1c0,0.1,0.1-0.3,0.1,0.6c0,0.5,0,1.1-0.1,1.4c0,0.5,0,1,0,1.5c0.1,1.2,0.1,2.5,0.2,3.7
								c0,1.5,0,3,0,4.5c0,0-0.1-0.1-0.1-0.1C2.1,37.8,2.1,39,2.1,40.1z"/>
						</g>
						<g>
							<path class="st50" d="M1.8,19.3c0-0.3,0-0.6,0-1c0-1.2-0.1-2.4-0.1-3.6c0-0.2,0-0.4,0-0.5c0-1.7,0-3.3,0-5c0-1.4,0-3,0.1-4.4
								c0,0,0,0,0,0C1.9,4.1,1.9,3.6,2,3c0.1,1,0.1,2.1,0.2,3.1c0-0.3,0-0.6,0-0.9c0-0.5,0-1,0-1.6c0.1-2.2,0.2-1,0.2-1.2
								c0,0.7,0.1,1.4,0.1,2.1c0,0.9,0,1.5,0.1,2.1c0,1.6,0,3.6,0,6.6c-0.1,0-0.2,0.1-0.3,0.2c0-0.7,0-1.4,0-2.1
								c0,0-0.1-0.1-0.1-0.1c0,1.1,0,2.4,0,3.5c0,0.8,0,1.7,0,3.5c0,0,0,0,0,0c0,0.1-0.1,0.2-0.1,0.3c0,0.5,0,1-0.1,1.5
								C1.9,19.7,1.9,19.5,1.8,19.3z"/>
						</g>
						<g>
							<path class="st50" d="M1.2,14.2c0-0.8,0-1.7,0-2.5c0.1,0.1,0.1,0.1,0.2,0.2c0,0.6,0,1.4,0,2C1.3,13.9,1.2,14,1.2,14.2z"/>
						</g>
						<g>
							<path class="st53" d="M3.1,140.3c0-1.7-0.1-3.4-0.1-5.1c0-0.1,0-0.3,0-0.5c0-0.3,0-0.6,0-0.9c0,0,0.1,0.1,0.1,0.1
								c0,2,0,4,0,5.9C3.1,140.1,3.1,140.2,3.1,140.3z"/>
						</g>
						<g>
							<path class="st53" d="M1.7,27.7c0-0.2,0-0.4,0-0.5c0-1.4,0-2.7,0-4.1c0-0.1,0.1-0.3,0.1-0.3c0,0.5,0.1,1,0.1,1.6
								c0,1.3,0,2.6,0,3.9C1.8,28.1,1.7,27.9,1.7,27.7z"/>
						</g>
						<g>
							<path class="st53" d="M1.5,17.1c0-0.4,0-0.7,0-1c0-0.5,0-0.9,0-1.4c0,0,0.1,0.1,0.1,0.1c0,1.2,0.1,2.4,0.1,3.6
								c0,0.4,0,0.7,0,1c0,0,0,0,0,0c-0.1,0.2-0.1,0.5-0.2,0.9C1.6,19.1,1.6,18,1.5,17.1z"/>
						</g>
						<g>
							<path class="st51" d="M1.4,38.5c0-0.9,0-1.7-0.1-2.6c0,0.2-0.1,0.2-0.1,0.4c0-1.1,0-2.4,0-3.5c0-0.9-0.1-0.8-0.1-1.5
								c0-0.5,0-1.1,0-1.5c0-0.2,0-0.4,0-0.5c0,0,0.1,0.1,0.1,0.1c0.1,1,0.1,3,0.2,5.2c0-0.4,0-0.7,0-1c0-0.8,0-1.7,0-2.5
								c0-1.9,0.1-2.1,0.1-1.9c0,1.4,0,2.6,0,4c0,0,0,0,0.1,0.1c0,0.7,0,1.4,0,2.1c0,3.1-0.1,3.6-0.1,7.4c0,0.5-0.1-1.1-0.1-1.1
								C1.5,40.5,1.5,39.6,1.4,38.5C1.5,38.5,1.5,38.5,1.4,38.5z"/>
						</g>
						<g>
							<path class="st47" d="M1.2,36.3c0,0-0.1-0.1-0.1-0.1c0-1.7,0-3.3,0-5c0,0.8,0.1,0.7,0.1,1.5C1.2,33.9,1.2,35.1,1.2,36.3z"/>
						</g>
						<g>
							<path class="st48" d="M1.4,234.4c0-1,0-2,0-3C1.4,232.3,1.4,231.7,1.4,234.4z"/>
						</g>
						<g>
							<path class="st48" d="M1.1,44.8c-0.1-2-0.1-5.6,0-8.6c0,0,0.1,0.1,0.1,0.1c0,1.9,0,3.6,0,5.5C1.2,42.7,1.2,43.7,1.1,44.8z"/>
						</g>
						<g>
							<path class="st51" d="M1.7,69.4c-0.1-2.3-0.1-3.4-0.1-4.5C1.9,63.3,1.8,67.5,1.7,69.4z"/>
						</g>
						<g>
							<path class="st51" d="M2,253.1c0-0.7,0-1.3,0.1-2c0,0.7,0.1,0.9,0.1,2.6c0,0.9,0,1.6,0,2.5C2,256.1,2.1,253.8,2,253.1z"/>
						</g>
						<g>
							<path class="st49" d="M2.5,166.4c0-0.9,0-1.4-0.1-2.1c0-0.8,0-1.7,0-2.5c0-1.2,0-2.3-0.1-3.5c0-0.4,0-0.7,0-1c0-1.7,0-4,0-6
								c0-1,0-2.1,0-3c0,0.8,0,1.4,0.1,2c0,2.3,0,4.7,0,7c0,0.8,0,1.7,0,4.4C2.5,163,2.6,163.6,2.5,166.4z"/>
						</g>
					</g>
				</g>
			</g>
		</g>
	</g>
</g>
<g>
	<defs>
		<rect id="SVGID_00000048492758830528719470000014965958965317725873_" x="-203.4" y="822" width="1940.3" height="344.9"/>
	</defs>
	<clipPath id="SVGID_00000031181573139415970470000001343547877492019875_">
		<use xlink:href="#SVGID_00000048492758830528719470000014965958965317725873_"  style="overflow:visible;"/>
	</clipPath>
	<g style="clip-path:url(#SVGID_00000031181573139415970470000001343547877492019875_);">
		
			<image style="overflow:visible;" width="4610" height="4416" xlink:href="../../02_Project/02_Illustrator/Oricum_2/WEB/Homepage_Folder/Links/mariya-oliynyk-pvwaZNE-wbg-unsplash.jpg"  transform="matrix(0.4214 0 0 0.4214 -203.3621 -690.4688)">
		</image>
	</g>
</g>
</svg>
