<svg xmlns="http://www.w3.org/2000/svg" width="23.124" height="18" viewBox="0 0 23.124 18">
  <path id="icon_header_envelope_new" d="M3.685,1.5A1.7,1.7,0,0,0,1.843,3V4.87L9.958,8.562a3.286,3.286,0,0,0,3.272,0L21.281,4.87V3a1.7,1.7,0,0,0-1.842-1.5ZM1.843,6.731V15a1.7,1.7,0,0,0,1.842,1.5H19.439A1.7,1.7,0,0,0,21.281,15V6.731l-6.964,3.04a5.484,5.484,0,0,1-5.448,0ZM0,3C0,1.345,1.653,0,3.685,0H19.439c2.032,0,3.685,1.345,3.685,3V15c0,1.655-1.653,3-3.685,3H3.685C1.653,18,0,16.654,0,15Z" fill="#f7f8f8"/>
</svg>
