<svg xmlns="http://www.w3.org/2000/svg" width="13.664" height="18" viewBox="0 0 13.664 18">
  <path id="icon_header_location" d="M6.832,0A6.839,6.839,0,0,0,0,6.832c0,3.126,4.183,8.315,5.982,10.4.242.281.436.5.556.634a.393.393,0,0,0,.588,0c.12-.134.315-.354.556-.634,1.8-2.087,5.982-7.276,5.982-10.4A6.839,6.839,0,0,0,6.832,0M1.4,6.832a5.432,5.432,0,0,1,10.864,0,6.906,6.906,0,0,1-.908,2.816,27.132,27.132,0,0,1-2.2,3.482c-.872,1.2-1.7,2.21-2.24,2.844l0,.005a.111.111,0,0,1-.084.038.1.1,0,0,1-.081-.037l0,0c-.85-1.01-1.583-1.941-2.241-2.846a26.635,26.635,0,0,1-2.2-3.482A6.906,6.906,0,0,1,1.4,6.832M6.832,9.761A2.929,2.929,0,1,0,3.9,6.832a2.933,2.933,0,0,0,2.93,2.929m0-4.459A1.53,1.53,0,1,1,5.3,6.832,1.532,1.532,0,0,1,6.832,5.3" fill="#fff"/>
</svg>
